<?xml version="1.0" encoding="utf-8"?>
<svg width="60.316" height="62.681" version="1.1" viewBox="0 0 94.243 97.939" xmlns="http://www.w3.org/2000/svg">
  <g style="fill: var(--icon-fill, #aaa); touch-action: none;">
    <path d="m31.571 71.796-10.598-31.762 26.853-21.056 27.455 21.056-10.2 32.344z"/>
    <path d="m0 33.343 0.892 31.908 17.192 23.602 12.24-15.092-11.28-34.152z"/>
    <path d="m64.786 74.538-33.525-0.201-10.781 15.153 27.099 8.449 27.684-8.83z"/>
    <path d="m1.621 32.345 16.901-22.729 27.974-9.616v16.901l-27.024 21.285z"/>
    <path d="m49.824 0.017 27.682 9.325 16.153 23.325-17.028 5.967-27.1-21.423z"/>
    <path d="m67.066 73.197 10.415-31.761 16.762-5.829-0.076 28.558-16.609 23.311z"/>
  </g>
</svg>
