<?xml version="1.0" encoding="utf-8"?>
<svg width="62.246" height="71.632" version="1.1" viewBox="0 0 272.32 313.39" xmlns="http://www.w3.org/2000/svg">
  <g transform="translate(-246.69 -375.67)" style="fill: var(--icon-fill, #aaa); touch-action: none;">
    <path d="m379.93 375.67c-0.57 0.019-1.226 0.228-1.585 0.731l-80.673 96.527c-1.342 1.681-1.433 2.056 0.366 2.073l161.59-0.427c2.221-0.182 2.23-0.07 0.792-1.951l-79.27-96.527c-0.164-0.254-0.649-0.44-1.22-0.426zm15.489 8.598 72.746 88.478c0.974 1.182 1.212 1.249 2.927 0.427l38.354-17.562c2.513-1.134 2.165-1.366 0.487-2.5zm-33.965 3.232c-0.034-0.072-0.625 0.37-1.952 1.281l-105.61 69.513 33.05 15.001c1.724 0.568 2.239 0.599 3.354-0.793l69.698-83.234c0.981-1.137 1.495-1.696 1.462-1.768zm153.6 72.258c-0.328 0.023-0.846 0.212-1.646 0.548l-39.392 17.989c-1.398 0.635-1.311 1.49-0.792 2.561l45.793 116.16-3.292-135.31c-0.101-1.479-0.123-1.99-0.671-1.951zm-264.15 3.598-4.208 131.65 38.782-113.91c0.573-1.682 0.559-1.767-0.61-2.317zm210.86 17.073-165.25 0.427c-2.361-0.035-2.264-0.033-1.098 1.89l83.905 141.53c1.417 2.159 1.265 2.092 2.744-0.121l80.612-141.77c0.708-1.127 1.212-1.914-0.914-1.953zm6.586 3.72c-0.152 0.064-0.318 0.639-0.793 1.524l-81.16 142.81c-0.887 1.508-1.097 2.048 1.036 1.708l128.84-17.744c2.044-0.467 1.982-1.197 1.281-3.232l-48.6-123.48c-0.321-1.183-0.456-1.65-0.609-1.586zm-178.18 1.342c-0.158 0.113-0.3 0.715-0.609 1.585l-41.16 121.16c-0.701 2.573-0.78 3.541 1.829 4.024l123.11 17.805c2.328 0.351 2.03-0.822 1.463-1.951l-83.783-141.34c-0.526-1.067-0.695-1.394-0.853-1.28zm-32.013 133.84 120.8 68.538c1.564 0.949 1.929 0.604 1.707-1.036l-2.561-48.05c-0.07-1.551-0.28-2.183-1.89-2.439zm249.76 0.121-122.62 16.952c-1.618 0.238-1.326 1.032-1.342 2.195l2.622 48.903c0.135 1.483 0.091 2.017 1.89 1.098z"/>
  </g>
</svg>
