<?xml version="1.0" encoding="utf-8"?>
<svg width="340" height="340" version="1.1" viewBox="0 0 340 340" xmlns="http://www.w3.org/2000/svg">
  <g style="fill: var(--icon-fill, #fff);">
    <path d="M22.893,121.419c.52,9.083,2.732,17.579,6.228,23.921,3.53,6.4,8.084,10.079,12.965,10.527A47.832,47.832,0,0,0,39.474,170v41.729c-3.036,3.119-10.37,12.412-10.37,29.417V257.3a30.2,30.2,0,0,0,3.519,14.368,23.9,23.9,0,0,0,7.147,8.271c-1.006.776-2.005,1.578-2.985,2.434a3.426,3.426,0,0,0,.735,5.653L70.791,304.47a5.5,5.5,0,0,1,3.08,4.958v2.1a18.563,18.563,0,0,0,18.542,18.542H204.685a3.426,3.426,0,0,0,3.348-2.706c2.217-10.311.741-24.591.565-26.184-.068-1.592-.826-14.548-7.7-24.55a10.654,10.654,0,0,0-6.188-4.3,192.285,192.285,0,0,1-2.351-27.913l2.368-1.306c3.547,7.4,10.778,21.188,20.512,33.144a31.878,31.878,0,0,0,17.6,11.024,68.666,68.666,0,0,0-.167,12.448,3.426,3.426,0,0,0,3.143,3.074c3.155.246,6.314.354,9.431.354a180.485,180.485,0,0,0,37.55-4.351,14.8,14.8,0,0,0,3.039,2.218,251.783,251.783,0,0,1-3.128,25.014,3.427,3.427,0,1,0,6.745,1.213c1.377-7.663,2.422-15.878,3.12-24.453.1,0,.2.016.3.016h9.672a14.726,14.726,0,0,0,2.113-.17c-.68,8.211-1.686,16.065-3,23.395a3.426,3.426,0,1,0,6.745,1.211,261.316,261.316,0,0,0,3.366-27.693,14.719,14.719,0,0,0,5.527-11.491V269.422a14.71,14.71,0,0,0-5.111-11.139c-.283-6.416-.716-12.908-1.3-19.316a254.148,254.148,0,0,0-4.447-29.09c-.9-4.345-1.679-9-2.3-13.828a15.419,15.419,0,0,1,3.352-11.967,13.562,13.562,0,0,1,6.848-4.52,3.429,3.429,0,0,0,2.778-3.73l-1.8-17a3.426,3.426,0,0,0-2.052-2.786,23.283,23.283,0,0,1-5.413-3.211,14.081,14.081,0,0,1-5.07-11.793A401.376,401.376,0,0,1,307.4,98.511c.012-.069.023-.139.031-.209,4.626-40.013-7.862-84.04-8.4-85.9a3.428,3.428,0,0,0-3.293-2.479H276.8A3.428,3.428,0,0,0,273.5,14.3c.127.441,12.616,44.513,8.186,83.11-.143.807-.718,4.139-1.441,9.342a34.07,34.07,0,0,0-3.135-4.521,27.739,27.739,0,0,1-6.153-14.518l-.48-4.216a3.427,3.427,0,0,0-6.81.776l.481,4.216a34.586,34.586,0,0,0,7.669,18.1,28,28,0,0,1,6.313,18.383c-2.178,23.067-3.5,56.758,2.624,86.214a247.965,247.965,0,0,1,4.3,27.864c.523,5.692.925,11.467,1.211,17.2a14.836,14.836,0,0,0-5.714,5.07c-16.327.565-35.106.64-47.012-11.987-3.559-3.774-8.559-13.965-12.088-26.914l8.846-6.6a9.656,9.656,0,0,0,1.446-14.157l-31.6-35.562c-.031-.035-.063-.069-.095-.1a32.68,32.68,0,0,0-9.865-6.984,19.428,19.428,0,0,0,6.957-5.305,26.309,26.309,0,0,0,3.883-5.818c8.221-16.8,7.034-30.989,4.59-39.93a20.609,20.609,0,0,0-13.758-14.113q.2-2.939.332-6a31.371,31.371,0,0,0,11.561-15.8,35.318,35.318,0,0,0-2.095-27.927,27.882,27.882,0,0,0-22.788-15.089,40,40,0,0,0-4.425-3.78A42.764,42.764,0,0,0,128.9,21.467a44.755,44.755,0,0,0-12.629,9.5c-8.868-.683-24.169.6-33.168,15.279a35.629,35.629,0,0,0-3.085,29.975c3.027,9.085,7.252,27.013,1.538,45.019a7.849,7.849,0,0,0,5.615,9.993c-.4,2.3-.888,4.5-1.436,6.6l-7.693-.6c-13.285-1.3-16.738-13.422-17.633-19.391q-.121-1.57-.309-3.112c0-.107,0-.176,0-.176l-.011.052a54.38,54.38,0,0,0-5.788-19.259A29.324,29.324,0,0,0,51,90.5a152.659,152.659,0,0,1,21.911-.028,3.427,3.427,0,1,0,.528-6.833,163.665,163.665,0,0,0-34.078,1.184c-5.364.461-9.973,4.744-13,12.12a51.7,51.7,0,0,0-3.425,16.176l0,.021a29.88,29.88,0,0,0-.1,6.232C22.844,120.054,22.854,120.732,22.893,121.419ZM284.8,128.005l.026-.255c.009-.083.011-.166.019-.248,1.518-17.051,3.559-28.722,3.607-28.991.012-.069.023-.139.031-.209,3.84-33.211-4.111-69.188-7.23-81.52h11.86c2.547,9.852,11.35,47.287,7.52,80.635a411.015,411.015,0,0,0-4.7,43.236s-1.634,31.4,1.4,56.268c.642,5.006,1.446,9.835,2.387,14.353a247.351,247.351,0,0,1,4.331,28.31c.46,5.086.827,10.225,1.1,15.335a14.727,14.727,0,0,0-2.615-.246H293.05c-.287-5.423-.674-10.874-1.169-16.252a254.773,254.773,0,0,0-4.415-28.631C281.785,182.447,282.817,150.606,284.8,128.005ZM45.949,275.628a16.034,16.034,0,0,1-7.3-7.231,23.321,23.321,0,0,1-2.691-11.1v-16.15c0-14.61,6.073-22.219,8.3-24.517H56.588c-5.969,12.938-3.42,29.352-.932,39.169a187.262,187.262,0,0,0-9.591,19.453A3.083,3.083,0,0,0,45.949,275.628Zm64.6-2.275c-.3.1-.6.211-.892.341a10.714,10.714,0,0,0-5.865,6.6c-.56,1.8-1.035,3.593-1.44,5.323a85.708,85.708,0,0,0-12.2-17.968L104.4,248.362a12.865,12.865,0,0,0,6.692,5.99C111.112,258.036,111.073,265.5,110.55,273.353ZM182.9,312.114c-2.39,3.9-6.622,7.29-14.114,6.726a8.936,8.936,0,0,1-.891-.116c-12.924-2.281-27.485-5.655-40.652-10.593a8.129,8.129,0,0,1-3.024-1.951,19.423,19.423,0,0,1-5.127-11.3,8.509,8.509,0,0,1,11.3-9.071c9.258,3.3,34.39,10.211,47.459,13.752A8.467,8.467,0,0,1,182.9,312.114Zm4.1-38.851a188.59,188.59,0,0,1-18.562,8.488,40.914,40.914,0,0,1-28.651.57c-9.092-3.2-16.268-6.231-21.371-8.577-.328-.15-.663-.28-1-.4.631-9.735.544-18.582.506-20.942,1.612-4.865,12.044-36.981,17.517-69.382a60.136,60.136,0,0,0,15.1,15.741c-4.313,9.258-14.5,17.613-14.5,17.613a3.427,3.427,0,0,0,1.208,6.634,3.39,3.39,0,0,0,1.207-.221c21.083-8.027,29.762-28.221,31.914-38.877a40.879,40.879,0,0,0,.722-5.789c19.019,27.866,14.5,63.416,14.446,63.8a3.307,3.307,0,0,0-.023.357c0,.024-.008.047-.008.071s0,.034,0,.051v0a194.943,194.943,0,0,0,2.349,30.452C187.568,272.983,187.283,273.115,187,273.263ZM163.376,164.74c.27,19.041-6.731,27.136-6.731,27.136-12.629-5.921-19.777-18.166-19.777-18.166.581-4.263.957-8.494,1.382-12.605.338-3.271.642-15.34.779-24.938l23.053,6.176C161.818,150.9,163.294,158.951,163.376,164.74Zm65.587,89.691a53.494,53.494,0,0,0,11.41,8.088,56.877,56.877,0,0,0-6.556,17.952,25.072,25.072,0,0,1-13.268-8.541A159.577,159.577,0,0,1,203.42,245.2l15.975-7.053C221.906,244.561,225.154,251.011,228.963,254.431Zm-2.34-48.214a2.8,2.8,0,0,1-.42,4.112l-20.175,15.043c4.092-19.321-3.516-46.29-3.516-46.29Zm-35.338-27.61a68.069,68.069,0,0,1,7.242,49.244c-.082.347-2.989,6.785-5.67,8.447.579-13.148-.553-43.333-19.9-67.137a13.779,13.779,0,0,1-2.986-6.761c-.222-1.579-.446-3.233-.549-4.172,0,0,7.721-.934,12.082,5.02A152.829,152.829,0,0,1,191.285,178.607ZM122.6,97.666a13.165,13.165,0,0,1,.991-3.476,5.3,5.3,0,0,1,4.118-3.07,4.64,4.64,0,0,1,4.266,1.614,5.026,5.026,0,0,1,.607.894v0A3.428,3.428,0,0,0,136.9,95.64c27.237-9.413,37.48-30.169,40.953-40.26a37.218,37.218,0,0,1,5.483,9.075,24.3,24.3,0,0,1,2.009,8.61c.8,16.682-1.511,34.072-2.956,42.953a22.537,22.537,0,0,1-3.775,9.412,35.791,35.791,0,0,1-6.307,6.771,5.653,5.653,0,0,1-4.9,1.105,66,66,0,0,1-20.515-8.726,15.635,15.635,0,0,1-5.9-7.151c-1.412-3.4-2.3-5.553-2.3-5.553-.936-2.04-2.282-1.882-4.584-1.943a10.06,10.06,0,0,1-8.533-3A10.808,10.808,0,0,1,122.6,97.666Zm-8.466,22.144a37.774,37.774,0,0,0,6.352-8.3c.066.069.127.142.194.21a16.883,16.883,0,0,0,11.488,5.117c.063,4.171.133,11.636.031,20.4a109.12,109.12,0,0,1-20.713-.112A119,119,0,0,0,114.135,119.81Zm-.937,41.925a5.512,5.512,0,0,1,3.646-4.881c2.709-.99,15.261-5.687,14.809.4,0,0-.154,2.3-.248,3.46-.185,1.992-.426,3.9-.683,5.866-.306,2.348-.62,4.777-.826,7.416-4.3,30.2-14.2,62.831-17.537,73.333a6,6,0,0,1-2.6-5.1C110.656,212.685,112.462,176.1,113.2,161.735Zm-26.425-7.559c3.509-6.466,6-14.416,7.442-23.617a45.888,45.888,0,0,0,12.419-4.992c-1.957,14.63-6.092,24.247-8.584,28.965a3.957,3.957,0,0,1-2.782,2.086,25.862,25.862,0,0,1-7.2.32C86.058,156.715,86.444,154.781,86.773,154.176Zm-8.209,57.336c8.89-12.455,17.891-24.195,25.653-34.1,0,0-.9,34.108-1.076,57.427L79.075,215.329A2.815,2.815,0,0,1,78.564,211.512Zm-2.1,24.306,19.351,12.626-11.883,16.1a85.529,85.529,0,0,0-28.391,6.324C60.65,260.122,67.3,248.976,76.467,235.818ZM59.937,172.74c0,.021,0,.043,0,.064L59.2,209.776H46.328V176.762ZM32.693,99.546c1.973-4.8,4.73-7.763,7.373-7.914.072,0,.145-.006.218-.006,2.593,0,5.57,2.6,8.009,7.028,3.012,5.463,4.925,12.923,5.387,21s-.588,15.711-2.958,21.482c-2,4.876-4.689,7.761-7.373,7.914-2.623.14-5.718-2.474-8.226-7.022a34.694,34.694,0,0,1-1.561-3.291,10.738,10.738,0,0,0,4.537,1.016,11.134,11.134,0,0,0,3.31-.509,10.849,10.849,0,0,0,7.447-8.127,34.869,34.869,0,0,0,.622-9.421,18.342,18.342,0,0,0-2.3-8.144c-2.12-3.694-5.132-5.845-8.71-6.221a3.427,3.427,0,1,0-.717,6.816c1.318.139,2.49,1.086,3.483,2.816a11.584,11.584,0,0,1,1.4,5.13,28.079,28.079,0,0,1-.475,7.559,4.108,4.108,0,0,1-6.821,2.127c-4.188-3.907-5.4-9.323-5.686-13.124C29.5,111.466,30.557,104.749,32.693,99.546Z"/>
    <path d="M164.587,94.873a3.733,3.733,0,1,0-3.732-3.733A3.733,3.733,0,0,0,164.587,94.873Z"/>
    <path d="M177.686,94.873a3.733,3.733,0,1,0-3.733-3.733A3.732,3.732,0,0,0,177.686,94.873Z"/>
  </g>
</svg>
