<svg xmlns="http://www.w3.org/2000/svg" viewBox="0 0 512 512" height="512" width="512"><path d="M0 0h512v512H0z" fill-opacity="0"></path><g class="" transform="translate(0,0)" style="touch-action: none;"><g transform="translate(512, 0) scale(-1, 1) rotate(0, 256, 256)"><path d="M346.12 -0.2L345.887 0.08L346.455 0.08C346.343 -0.013 346.233 -0.108 346.121 -0.2Z"></path><path d="M52.747 18.77C219.127 90.985 350.827 176.732 426.565 273.504C363.125 354.676 262.085 428.778 135.067 494.047L175.089 494.047C254.384 450.932 322.976 404.087 377.749 353.5C338.639 403.936 289.562 450.896 232.753 494.047L263.187 494.047C343.277 430.059 407.451 357.813 448.564 277.742L450.754 273.475L448.564 269.207C399.403 173.463 315.916 89.895 211.035 18.77L177.105 18.77C257.562 70.37 325.925 128.756 377.047 193.352C305.687 128.537 210.47 70.408 98.512 18.77L52.746 18.77Z"></path><path d="M339.627 18.77C419.487 87.022 464.532 168.49 472.171 250.814C479.928 334.409 449.435 419.404 375.399 494.047L401.189 494.047C421.955 471.277 439.102 447.5 452.687 423.062C445.129 447.55 435.564 471.335 423.923 494.047L444.798 494.047C517.108 345.287 506.453 157.534 427.034 18.77L405.36 18.77C425.416 51.9 441.264 88.325 452.693 126.592C432.09 88.498 403.598 52.142 367.707 18.77L339.625 18.77Z" fill-opacity="0"></path><path d="M19.287 100.352L19.287 119.052C118.2 119.622 211.417 152.947 295.103 212.362C211.405 169.292 118.117 145.032 19.288 144.615L19.288 163.3C145.616 163.848 262.358 204.585 361.222 274.455C261.996 345.35 146.23 388.97 19.288 389.56L19.288 408.238C116.364 407.802 207.162 383.008 289.112 340.638C207.037 399.155 116.315 433.208 19.289 433.808L19.289 452.5C157.752 451.68 283.375 385.553 388.929 280.305L395.589 273.665L388.902 267.047C283.584 162.795 156.815 101.115 19.287 100.35Z" fill-opacity="0"></path><path d="M200.82 236.287L200.82 316.567C248.982 316.567 292.768 300.965 329.797 275.77C292.893 250.84 248.707 236.285 200.82 236.287Z" ></path><path d="M36.63 236.827L36.63 316.029L58.96 316.029L58.96 236.827L36.63 236.827Z"></path><path d="M77.648 236.827L77.648 316.029L179.293 316.029L179.295 236.827L77.648 236.827Z"></path><path d="M138.7 512.735L138.89 513.103C139.128 512.981 139.364 512.857 139.604 512.735L138.701 512.735Z"></path></g></g></svg>