<svg xmlns="http://www.w3.org/2000/svg" viewBox="0 0 512 512" height="512" width="512"><g transform="translate(512, 0) scale(-1, 1) rotate(0, 256, 256)" style="fill: var(--icon-fill, #000); touch-action: none;"><path d="M52.747 18.77C219.127 90.985 350.827 176.732 426.565 273.504C363.125 354.676 262.085 428.778 135.067 494.047L175.089 494.047C254.384 450.932 322.976 404.087 377.749 353.5C338.639 403.936 289.562 450.896 232.753 494.047L263.187 494.047C343.277 430.059 407.451 357.813 448.564 277.742L450.754 273.475L448.564 269.207C399.403 173.463 315.916 89.895 211.035 18.77L177.105 18.77C257.562 70.37 325.925 128.756 377.047 193.352C305.687 128.537 210.47 70.408 98.512 18.77L52.746 18.77Z"></path><path d="M200.82 236.287L200.82 316.567C248.982 316.567 292.768 300.965 329.797 275.77C292.893 250.84 248.707 236.285 200.82 236.287Z" ></path><path d="M36.63 236.827L36.63 316.029L58.96 316.029L58.96 236.827L36.63 236.827Z"></path><path d="M77.648 236.827L77.648 316.029L179.293 316.029L179.295 236.827L77.648 236.827Z"></path></g></svg>
