<svg width="512" height="512" version="1.1" viewBox="0 0 1866.7 1866.7" xmlns="http://www.w3.org/2000/svg"><path d="m910.5 1.0398c39.854-4.6984 125.7 7.4622 165.83 17.743 117.18 29.959 224.25 93.636 309.54 178.93 21.668 21.668 40.959 40.296 57.763 66.33 32.447 50.024 53.451 128.57 52.788 187.94-0.6633 57.818-27.306 140.84-51.461 193.46-9.0652 19.789-42.452 68.652-44.994 84.405-4.7537 29.241 28.08 52.014 42.507 75.893 21.17 35.1 33.11 81.642 20.286 121.61-21.06 65.446-74.898 104.19-143.22 105.02-37.919 0.4422-72.908-7.0752-107.01 14.095-76.888 44.22-54.28 82.305-89.159 129.62-32.778 44.386-109.39 74.29-163.12 81.31-65.391 8.5124-164.61-21.834-209.33-70.476-27.195-29.572-26.09-61.134-45.436-88.717-64.838-80.923-89.38-65.004-159.8-65.833-106.63-1.3266-176.11-98.169-136.7-198.99 22.939-58.758 79.928-84.405 48.311-116.08 0 0-37.034-71.858-37.034-71.858-24.155-52.622-50.798-135.65-51.461-193.46-0.66331-59.366 20.341-137.91 52.788-187.94 69.592-107.51 228.01-205.85 350.72-240.83 58.702-16.748 82.747-14.261 138.19-22.165zm-322.59 579.56c-19.623 58.316 0.16582 96.677 22.939 124.65 42.507 52.235 133.21 73.019 195.12 46.708 61.798-18.075 6.9094-66.165-17.301-88.33-13.487-12.382-39.632-33.884-55.054-43.17-30.07-18.13-63.29-31.286-145.71-39.854zm483.38 87.888c-8.236 8.0149-16.362 17.246-22.939 26.698-64.009 67.325 71.305 70.31 110.88 65.335 48.311-6.0803 100.93-47.813 118.57-92.476 8.5677-36.703 10.558-55.275 1.5478-87.446-63.843 11.055-125.14 5.0301-208.06 87.888zm-39.19 286.49c-9.2863-37.974-33.607-61.687-60.803-88.441-9.1757-9.0099-38.693-35.155-38.693-35.155s-29.517 26.145-38.693 35.155c-27.195 26.753-51.517 50.466-60.803 88.441 25.261 13.377 69.757 42.728 98.003 42.728 28.19 0 75.727-29.351 100.99-42.728zm-892.97 158.31c-7.3516-17.412-19.567-34.768-22.773-53.285-10.392-59.2 13.266-134.26 81.089-142.33 11.055-1.7688 27.693-1.4924 38.693 0 72.798 13.156 100.49 72.466 116.69 136.81 5.9145 23.713 7.5727 65.833 25.648 82.913 12.658 11.995 555.52 210.05 555.52 210.05s540.7-197.55 553.36-209.55c18.075-17.08 19.125-59.697 25.04-83.41 16.196-64.34 43.889-123.65 116.69-136.81 11-1.4924 27.638-1.7688 38.693 0 67.823 8.0702 91.481 83.134 81.089 142.33-3.206 18.517-17.412 34.879-24.819 52.235 87.446 35.21 87.556 149.96 10.06 188.88-29.351 14.758-62.019 15.754-93.968 10.723-20.452-3.206-41.733-15.643-61.798-14.648l-380.9 157.26s315.57 124.31 332.65 125.64c16.085-16.583 93.471-27.914 93.471-27.914 80.481-3.2612 132.5 64.396 97.229 137.91-19.568 40.738-55.883 40.572-68.099 58.868l-9.6179 46.21c-15.367 39.743-41.457 68.21-85.843 71.305-43.723 3.0955-90.817-22.055-112.49-60.305-14.04-24.819-3.5929-24.819-10.502-47.592 0 0-486.53-205.96-501.62-205.96s-499.58 203.86-499.58 203.86c-10.336 18.683 1.4924 24.874-12.548 49.692-21.668 38.251-68.763 63.401-112.49 60.305-44.386-3.0954-70.476-31.562-85.843-71.305l-10.889-49.748c-17.246-17.246-47.26-14.593-66.828-55.331-35.266-73.516 16.748-141.17 97.229-137.91l100.88 26.035c17.08-1.3266 323.36-123.65 323.36-123.65l-379.35-155.49c-19.623-4.6431-41.014 9.5626-61.466 12.769-31.949 5.0301-64.617 4.0351-93.968-10.723-77.496-38.914-72.577-155.99 8.0149-187.83z" style="fill: var(--icon-fill, #000);"/></svg>
