<?xml version="1.0" encoding="UTF-8"?>
<svg width="26" height="26" version="1.1" viewBox="0 0 26 26" xml:space="preserve" xmlns="http://www.w3.org/2000/svg"><g transform="translate(-65.605 -95.934)"><g transform="translate(5.4581 .21705)"><path d="m80.689 97.136c-0.05987-0.05818-0.15782-0.18704-0.33115-0.34535-0.07742-0.07072-0.31859-0.29025-0.47044-0.41783-0.10651-0.08948-0.24034-0.19608-0.37998-0.27783-0.12161-0.0712-0.28134-0.14437-0.47208-0.16129-0.18208 0.0059-0.35906 0.03282-0.52653 0.08818-0.16567 0.05477-0.3192 0.13649-0.45537 0.24854-0.13391 0.11019-0.24245 0.24268-0.32776 0.39115-0.0834 0.14515-0.14265 0.30191-0.18394 0.46469-0.07996 0.31527-0.09581 0.66756-0.07593 1.0339 0.01962 0.36153 0.07516 0.75485 0.15089 1.1688 0.14883 0.81355 0.379 1.7253 0.58516 2.665 0.205 0.9344 0.38105 1.8736 0.4362 2.7609 0.01049 0.36754-0.05632 0.81531-0.2328 1.2813-0.17935 0.4736-0.46384 0.94492-0.86844 1.3633-0.4206 0.43498-0.97008 0.8123-1.6715 1.0856-0.75406 0.29379-1.6732 0.4632-2.7751 0.46298-0.01438 0-0.02864-3e-5 -0.04285-8e-5 -1.0771-4e-3 -1.9514-0.15811-2.6528-0.41849-0.6619-0.24572-1.1626-0.58328-1.5418-0.97168-0.36638-0.37525-0.62734-0.80632-0.80537-1.2604-0.17527-0.44709-0.26476-0.90331-0.2969-1.3181-0.0431-0.76393 0.05054-1.5929 0.20156-2.4489 0.15179-0.86041 0.35682-1.7221 0.51343-2.5204 0.07995-0.40755 0.14768-0.80068 0.18959-1.1719 0.04269-0.37822 0.05947-0.7411 0.03248-1.0777-0.0279-0.34792-0.10262-0.67739-0.25415-0.97122-0.07804-0.15132-0.17522-0.29012-0.29335-0.41302-0.12055-0.12542-0.25834-0.22952-0.41114-0.31297-0.11602-0.05261-0.23061-0.07026-0.3277-0.07317-0.1033-0.0031-0.20252 0.01005-0.29063 0.02883-0.19556 0.04169-0.38838 0.12258-0.544 0.2008-0.21606 0.10861-0.3997 0.23149-0.52764 0.32888-0.01332 0.01014-0.02614 0.02007-0.03842 0.02976-0.23732 0.18718-0.34229 0.3736-0.39551 0.444 0.0929-0.02369 0.28775-0.04107 0.56195-0.10209 0.01403-0.0031 0.02855-0.0063 0.0435-0.0096 0.14258-0.03102 0.33933-0.06985 0.53608-0.08343 0.14737-0.01017 0.29528-0.0058 0.39908 0.02576 0.0448 0.0136 0.07795 0.03171 0.09036 0.05033 0.01096 0.01644 0.0031 0.03412-0.03123 0.03169 0.05989 0.04433 0.10523 0.09248 0.14097 0.14358 0.03499 0.05003 0.06413 0.10774 0.0877 0.17497 0.04665 0.13307 0.07457 0.31257 0.07095 0.55576-0.0035 0.23721-0.03664 0.51641-0.0981 0.84509-0.06005 0.3211-0.14385 0.67252-0.24432 1.0599-0.1953 0.75296-0.44846 1.6138-0.65491 2.5237-0.20195 0.89011-0.3626 1.8489-0.3517 2.7914-0.0013 0.55854 0.07857 1.1933 0.29058 1.8366 0.21708 0.65865 0.57054 1.3192 1.1055 1.9083 0.55824 0.61477 1.2849 1.1195 2.1887 1.471 0.94713 0.36841 2.0508 0.55433 3.301 0.55807 0.01655 5e-5 0.03315 6e-5 0.04979 5e-5 1.2954-1e-3 2.4538-0.21069 3.4556-0.62198 0.93707-0.38473 1.6994-0.93097 2.2852-1.5847 0.55988-0.62478 0.93802-1.3251 1.1566-2.023 0.21275-0.67935 0.27412-1.3566 0.20279-1.9517-0.1063-1.0053-0.3484-2.0274-0.60239-2.9679-0.25879-0.95828-0.53334-1.8504-0.71879-2.5943-0.09544-0.38282-0.16572-0.71757-0.20552-1.0086-0.041-0.29979-0.04565-0.52546-0.0246-0.6947 0.01041-0.08371 0.02645-0.14782 0.04402-0.19676 0.01732-0.04822 0.03772-0.08637 0.0614-0.11667 0.02457-0.03144 0.05943-0.06325 0.11474-0.09183 0.05726-0.02959 0.13656-0.05563 0.24428-0.07093 0.01078-0.03494 0.07026-0.05877 0.16088-0.06127 0.10314-0.0028 0.23159 0.02079 0.36076 0.05286 0.17383 0.04317 0.48561 0.14212 0.58898 0.17268 0.23749 0.07021 0.38459 0.07492 0.47411 0.09125z"/><path d="m73.125 98.149c-0.06146 0.35555-0.2592 1.1615-0.36879 2.1333-0.23154 2.0531-0.50642 6.4829-0.516 9.6499-0.0093 3.0698 0.19294 6.9935 0.43 9.0694 0.12538 1.0979 0.37899 2.0823 0.45479 2.4988 0.0758-0.41646 0.32941-1.4009 0.45479-2.4988 0.23706-2.0759 0.43928-5.9996 0.43-9.0694-0.0096-3.167-0.28446-7.5968-0.516-9.6499-0.10959-0.97176-0.30732-1.7777-0.36879-2.1333z"/><path d="m67.596 113.78c0.23936 0.0435 0.83223 0.18916 1.4362 0.26129 1.0117 0.12083 2.8018 0.22467 4.0893 0.2365 1.1512 0.0106 2.2858-0.0292 3.2723-0.129 0.82373-0.0833 1.8777-0.30732 2.2532-0.36879-0.37553-0.0615-1.4295-0.28546-2.2532-0.36879-0.98653-0.0998-2.1211-0.13957-3.2723-0.129-1.2875 0.0118-3.0776 0.11567-4.0893 0.2365-0.60396 0.0721-1.1968 0.21774-1.4362 0.26129z"/><path transform="translate(.15757 3.9875)" d="m67.596 113.78c0.23936 0.0435 0.83223 0.18916 1.4362 0.26129 1.0117 0.12083 2.8018 0.22467 4.0893 0.2365 1.1512 0.0106 2.2858-0.0292 3.2723-0.129 0.82373-0.0833 1.8777-0.30732 2.2532-0.36879-0.37553-0.0615-1.4295-0.28546-2.2532-0.36879-0.98653-0.0998-2.1211-0.13957-3.2723-0.129-1.2875 0.0118-3.0776 0.11567-4.0893 0.2365-0.60396 0.0721-1.1968 0.21774-1.4362 0.26129z"/></g></g></svg>
