<?xml version="1.0" encoding="UTF-8"?>
<svg width="94" height="94" version="1.1" viewBox="0 0 94 94" xml:space="preserve" xmlns="http://www.w3.org/2000/svg"><g transform="translate(-326.94 -293.96)"><g transform="translate(7.1758 .26902)"><path d="m356.06 347.88c-4.873-9.5337-10.161-18.816-15.029-26.917-4.5282-7.5346-8.2005-13.316-11.436-18.156-3.1596-4.0781 0.33368-8.7295 0.33368-8.7295s-4.7575 3.3052-2.2629 9.752c1.818 4.4859 5.1 12.588 8.2134 19.781 3.7406 8.6447 8.1975 18.402 13.058 27.91 7.9815 15.615 1.1874 2.2795 14.776 28.952a5.4262e8 5.4262e8 0 0 1 3.5416 6.9515 2.591e7 2.591e7 0 0 0 3.5773-6.9332c14.193-27.509 7.1058-13.772 15.333-30.036 4.5472-8.9886 8.6194-18.078 12.06-26.403 3.6512-8.834 6.0814-15.356 7.9933-21.292 0.73874-2.2344 0.25155-4.2728-0.37593-5.5722-1.203-2.4868-2.5965-3.2262-2.5965-3.2262s1.1268 1.1066 1.6728 3.5544c0.27355 1.2418 0.25391 2.9666-0.62716 4.3931-3.3957 5.9169-8.0189 13.595-11.415 19.512-4.4277 7.6868-9.3589 16.543-13.851 25.422-8.2113 16.232-1.1223 2.4927-15.304 29.979l7.1188 0.0183c-13.591-26.676-6.7968-13.341-14.781-28.962z"/><path d="m344.46 334.14c4.2255-2.519 19.421 8.8573 44.205 2.6816" fill="none" style="stroke: var(--icon-fill, #000);" stroke-width="7"/><path d="m355.9 354.25c-3.1974 0.64326-5.661 1.4155-8.0033 0.97811-2.3551-0.17055-4.6117-1.918-6.0619-3.2452-1.5138-1.3855-2.3309-2.4054-2.3309-2.4054s0.0242 1.2991 0.72613 3.4171c0.67025 2.0225 2.1882 5.1581 5.8356 7.2065 3.603 1.7502 7.7892 1.8576 11.464 0.85639 5.8407-1.3985 11.787-4.0604 17.596-4.8642 3.2215-0.40531 6.1504-0.59678 8.8924 0.0181 3.0077 0.57998 5.7591 2.1824 7.6366 3.4545 1.9158 1.2981 3.0238 2.2629 3.0238 2.2629s-0.38086-1.4109-1.5883-3.5613c-1.2071-2.1497-3.3272-5.081-7.0876-7.1799-3.4967-1.8496-7.7018-2.5411-11.836-1.9283-6.5018 0.89975-12.907 3.7074-18.267 4.9906z"/></g></g></svg>
