<?xml version="1.0" encoding="UTF-8"?>
<svg width="120" height="120" version="1.1" viewBox="0 0 120 120" xml:space="preserve" xmlns="http://www.w3.org/2000/svg"><g transform="translate(-337.74 -513.23)"><g transform="translate(.070225 11.651)"><path d="m401.6 554.03c0-20.396-3.75-40.792-3.75-40.792s-3.75 20.396-3.75 40.792v19.502c0 18.202 3.75 36.404 3.75 36.404s3.75-18.202 3.75-36.404z"/><path d="m375.51 561.88c-18.881 0-37.762 3.75-37.762 3.75s18.881 3.75 37.762 3.75h42.841c19.628 0 39.256-3.75 39.256-3.75s-19.628-3.75-39.256-3.75z"/><ellipse cx="397.73" cy="565.11" rx="37.463" ry="22.696" fill="none" stroke-dashoffset="34.18" stroke-linecap="round" stroke-miterlimit="5" stroke-width="7.5" style="paint-order: fill markers stroke; stroke: var(--icon-fill, #000);"/><g><path d="m412.21 544.48c0.42602 0.0502 1.9005 0.66554 2.5561 0.30107 0.76633-0.42601 1.0069-1.7403 1.4939-3.1832 0.91993-2.7252 2.2076-8.6264 2.6431-12.262 0.3418-2.8533 0.16828-6.4373 0.20194-7.7248-0.68362 1.0915-2.8093 3.9822-4.1017 6.549-1.6466 3.2702-3.8355 8.8997-4.5753 11.679-0.39169 1.4717-0.91775 2.6999-0.51463 3.4785 0.34488 0.66613 1.9138 0.96835 2.2965 1.162z"/><path transform="rotate(-35.4 396.49 588.19)" d="m412.21 544.48c0.42602 0.0502 1.9005 0.66554 2.5561 0.30107 0.76633-0.42601 1.0069-1.7403 1.4939-3.1832 0.91993-2.7252 2.2076-8.6264 2.6431-12.262 0.3418-2.8533 0.16828-6.4373 0.20194-7.7248-0.68362 1.0915-2.8093 3.9822-4.1017 6.549-1.6466 3.2702-3.8355 8.8997-4.5753 11.679-0.39169 1.4717-0.91775 2.6999-0.51463 3.4785 0.34488 0.66613 1.9138 0.96835 2.2965 1.162z"/><path transform="rotate(119.11 410.48 565.45)" d="m412.21 544.48c0.42602 0.0502 1.9005 0.66554 2.5561 0.30107 0.76633-0.42601 1.0069-1.7403 1.4939-3.1832 0.91993-2.7252 2.2076-8.6264 2.6431-12.262 0.3418-2.8533 0.16828-6.4373 0.20194-7.7248-0.68362 1.0915-2.8093 3.9822-4.1017 6.549-1.6466 3.2702-3.8355 8.8997-4.5753 11.679-0.39169 1.4717-0.91775 2.6999-0.51463 3.4785 0.34488 0.66613 1.9138 0.96835 2.2965 1.162z"/><path transform="rotate(208.48 393.84 567.24)" d="m412.21 544.48c0.42602 0.0502 1.9005 0.66554 2.5561 0.30107 0.76633-0.42601 1.0069-1.7403 1.4939-3.1832 0.91993-2.7252 2.2076-8.6264 2.6431-12.262 0.3418-2.8533 0.16828-6.4373 0.20194-7.7248-0.68362 1.0915-2.8093 3.9822-4.1017 6.549-1.6466 3.2702-3.8355 8.8997-4.5753 11.679-0.39169 1.4717-0.91775 2.6999-0.51463 3.4785 0.34488 0.66613 1.9138 0.96835 2.2965 1.162z"/><path d="m380.61 585.05c-0.78076 0.13389-3.8168 0.0867-4.6846 0.80334-0.60151 0.49679-0.56498 1.3041-0.80442 2.1375-0.31912 1.1107-0.5828 2.5114-0.80443 3.9762-0.26917 1.779-0.50138 4.9615-0.60166 5.9538 0.77055-0.63323 3.2914-2.5897 4.6233-3.7994 1.0966-0.996 2.1167-1.9915 2.8645-2.8725 0.56113-0.66104 1.2535-1.0779 1.3338-1.8539 0.1159-1.1194-1.6054-3.6208-1.9265-4.345z"/><path transform="rotate(-53.187 398.84 549.4)" d="m380.61 585.05c-0.78076 0.13389-3.8168 0.0867-4.6846 0.80334-0.60151 0.49679-0.56498 1.3041-0.80442 2.1375-0.31912 1.1107-0.5828 2.5114-0.80443 3.9762-0.26917 1.779-0.50138 4.9615-0.60166 5.9538 0.77055-0.63323 3.2914-2.5897 4.6233-3.7994 1.0966-0.996 2.1167-1.9915 2.8645-2.8725 0.56113-0.66104 1.2535-1.0779 1.3338-1.8539 0.1159-1.1194-1.6054-3.6208-1.9265-4.345z"/><path transform="rotate(181.54 402.24 566.46)" d="m380.61 585.05c-0.78076 0.13389-3.8168 0.0867-4.6846 0.80334-0.60151 0.49679-0.56498 1.3041-0.80442 2.1375-0.31912 1.1107-0.5828 2.5114-0.80443 3.9762-0.26917 1.779-0.50138 4.9615-0.60166 5.9538 0.77055-0.63323 3.2914-2.5897 4.6233-3.7994 1.0966-0.996 2.1167-1.9915 2.8645-2.8725 0.56113-0.66104 1.2535-1.0779 1.3338-1.8539 0.1159-1.1194-1.6054-3.6208-1.9265-4.345z"/><path transform="rotate(116.82 387.37 564.16)" d="m380.61 585.05c-0.78076 0.13389-3.8168 0.0867-4.6846 0.80334-0.60151 0.49679-0.56498 1.3041-0.80442 2.1375-0.31912 1.1107-0.5828 2.5114-0.80443 3.9762-0.26917 1.779-0.50138 4.9615-0.60166 5.9538 0.77055-0.63323 3.2914-2.5897 4.6233-3.7994 1.0966-0.996 2.1167-1.9915 2.8645-2.8725 0.56113-0.66104 1.2535-1.0779 1.3338-1.8539 0.1159-1.1194-1.6054-3.6208-1.9265-4.345z"/></g></g></g></svg>
