<?xml version="1.0" encoding="UTF-8"?>
<svg width="115" height="115" version="1.1" viewBox="0 0 115 115" xml:space="preserve" xmlns="http://www.w3.org/2000/svg"><g transform="translate(-340.31 -536.24)"><g transform="translate(.11268 31.728)"><path d="m377.2 540.55c-11.882 4.8097-21.019 12.886-27.33 19.709-6.2324 6.7379-9.5524 11.806-9.5524 11.806s4.7302-3.7955 12.042-8.9785c7.5285-5.3369 16.884-11.331 27.627-15.573 24.456-9.785 40.719 1.4778 53.055 8.9696 1.9225 1.1746 3.9799 2.338 6.2513 3.2966 1.7213 0.7807 3.8214 1.3988 6.2018 1.4395 2.3006-0.0182 4.4035-0.9208 5.9749-2.4185 1.9991-2.1207 2.857-4.4685 3.2875-6.4064 0.73766-2.8994 0.14599-5.4987-0.69328-7.3843h-1e-5c-2.5426-5.8827-6.8088-6.4235-6.8088-6.4235s3.4374 2.2629 3.9209 7.2368c0.15634 1.6481 0.0504 3.6008-0.79063 4.9423-0.85158 1.504-1.7372 3.012-2.8075 3.575-0.50152 0.31177-1.2297 0.40612-1.8125 0.27002-0.94613-0.0956-2.0382-0.68766-3.436-1.358-1.7454-0.91037-3.4747-2.0213-5.3946-3.1801-11.848-7.195-31.548-20.8-59.734-9.5224z"/><path d="m388.44 544.77c-0.48961-1.7407-4.5693-3.0977-4.5693-3.0977s-3.3044 2.7957-2.6516 5.1249c7.0334 25.053 28.504 19.893 34.98 0.38509 0.73521-2.2166-2.5876-4.8599-2.5876-4.8599s-4.0636 1.0922-4.5305 2.497c-3.9911 12.023-15.587 17.955-20.641-0.0494z"/><path d="m382.5 570.61c-7.0049-1.8108-12.971-4.134-18.343-6.6372-5.0353-2.3464-8.4004-4.2556-8.4004-4.2556s2.0452 3.281 6.26 7.3446c4.2955 4.1414 10.597 8.6752 18.577 10.802 10.648 2.7982 21.529 2.2188 32.012-1.9397 7.3755-2.9546 12.907-7.9891 16.577-12.411 3.6021-4.3409 5.233-7.6964 5.233-7.6964s-3.0746 2.1188-7.6847 4.8488c-4.9443 2.928-10.373 5.7314-16.89 8.2869-8.964 3.5558-18.244 4.0482-27.341 1.6575z"/><path d="m427.42 562.31c-0.44002 0.25599-2.4466 0.85838-2.6401 1.5359-0.17867 0.62546 0.71687 1.5922 1.2189 2.2996 0.51048 0.71933 1.0525 1.2488 1.8283 1.9746 1.134 1.0608 3.7237 3.0132 4.4684 3.6159-0.0615-0.95606-0.15843-4.1979-0.36893-5.7363-0.14403-1.0527-0.26293-1.8009-0.55502-2.6332-0.28726-0.81851-0.55877-2.108-1.1725-2.3236-0.66483-0.23357-2.316 1.0559-2.7792 1.2671z"/><path transform="rotate(4.1032 309.91 414.45)" d="m427.42 562.31c-0.44002 0.25599-2.4466 0.85838-2.6401 1.5359-0.17867 0.62546 0.71687 1.5922 1.2189 2.2996 0.51048 0.71933 1.0525 1.2488 1.8283 1.9746 1.134 1.0608 3.7237 3.0132 4.4684 3.6159-0.0615-0.95606-0.15843-4.1979-0.36893-5.7363-0.14403-1.0527-0.26293-1.8009-0.55502-2.6332-0.28726-0.81851-0.55877-2.108-1.1725-2.3236-0.66483-0.23357-2.316 1.0559-2.7792 1.2671z"/><path transform="rotate(14.822 366.97 495.7)" d="m427.42 562.31c-0.44002 0.25599-2.4466 0.85838-2.6401 1.5359-0.17867 0.62546 0.71687 1.5922 1.2189 2.2996 0.51048 0.71933 1.0525 1.2488 1.8283 1.9746 1.134 1.0608 3.7237 3.0132 4.4684 3.6159-0.0615-0.95606-0.15843-4.1979-0.36893-5.7363-0.14403-1.0527-0.26293-1.8009-0.55502-2.6332-0.28726-0.81851-0.55877-2.108-1.1725-2.3236-0.66483-0.23357-2.316 1.0559-2.7792 1.2671z"/><path transform="rotate(26.721 381.31 507.28)" d="m427.42 562.31c-0.44002 0.25599-2.4466 0.85838-2.6401 1.5359-0.17867 0.62546 0.71687 1.5922 1.2189 2.2996 0.51048 0.71933 1.0525 1.2488 1.8283 1.9746 1.134 1.0608 3.7237 3.0132 4.4684 3.6159-0.0615-0.95606-0.15843-4.1979-0.36893-5.7363-0.14403-1.0527-0.26293-1.8009-0.55502-2.6332-0.28726-0.81851-0.55877-2.108-1.1725-2.3236-0.66483-0.23357-2.316 1.0559-2.7792 1.2671z"/><path transform="rotate(41.64 389.82 517.47)" d="m427.42 562.31c-0.44002 0.25599-2.4466 0.85838-2.6401 1.5359-0.17867 0.62546 0.71687 1.5922 1.2189 2.2996 0.51048 0.71933 1.0525 1.2488 1.8283 1.9746 1.134 1.0608 3.7237 3.0132 4.4684 3.6159-0.0615-0.95606-0.15843-4.1979-0.36893-5.7363-0.14403-1.0527-0.26293-1.8009-0.55502-2.6332-0.28726-0.81851-0.55877-2.108-1.1725-2.3236-0.66483-0.23357-2.316 1.0559-2.7792 1.2671z"/><path transform="rotate(40.85 388.07 498.47)" d="m427.42 562.31c-0.44002 0.25599-2.4466 0.85838-2.6401 1.5359-0.17867 0.62546 0.71687 1.5922 1.2189 2.2996 0.51048 0.71933 1.0525 1.2488 1.8283 1.9746 1.134 1.0608 3.7237 3.0132 4.4684 3.6159-0.0615-0.95606-0.15843-4.1979-0.36893-5.7363-0.14403-1.0527-0.26293-1.8009-0.55502-2.6332-0.28726-0.81851-0.55877-2.108-1.1725-2.3236-0.66483-0.23357-2.316 1.0559-2.7792 1.2671z"/><path transform="rotate(60.773 391.98 511.82)" d="m427.42 562.31c-0.44002 0.25599-2.4466 0.85838-2.6401 1.5359-0.17867 0.62546 0.71687 1.5922 1.2189 2.2996 0.51048 0.71933 1.0525 1.2488 1.8283 1.9746 1.134 1.0608 3.7237 3.0132 4.4684 3.6159-0.0615-0.95606-0.15843-4.1979-0.36893-5.7363-0.14403-1.0527-0.26293-1.8009-0.55502-2.6332-0.28726-0.81851-0.55877-2.108-1.1725-2.3236-0.66483-0.23357-2.316 1.0559-2.7792 1.2671z"/></g></g></svg>
