<?xml version="1.0" encoding="UTF-8"?>
<svg width="164" height="164" version="1.1" viewBox="0 0 164 164" xml:space="preserve" xmlns="http://www.w3.org/2000/svg"><defs><marker id="marker5" overflow="visible" markerHeight="1.1780384" markerWidth="1.5306215" orient="68.28622437" preserveAspectRatio="none" refX="0.063732564" refY="0.0076491456" viewBox="0 0 0.525 1"><path transform="scale(.5)" d="m0-1 1 1-1 1-0.05-1z" fill="context-stroke"/></marker><marker id="SerifCap" overflow="visible" markerHeight="2" markerWidth="1.05" orient="auto-start-reverse" preserveAspectRatio="xMidYMid" viewBox="0 0 1.05 2"><path transform="scale(.5)" d="m0-1h0.585c0.745 0 1.115-0.6 1.415-1v4c-0.3-0.4-0.67-1-1.415-1h-0.585l-0.1-1z" fill="context-stroke"/></marker><marker id="CapTriangle" overflow="visible" markerHeight="0.94582707" markerWidth="1.1209018" orient="-24.6860981" preserveAspectRatio="none" refX="0.54410428" refY="0.01870735" viewBox="0 0 0.525 1"><path d="m0.475-0.5-0.5 0.5 0.5 0.5 0.025-0.5z" fill="context-stroke" stroke-width=".5"/></marker></defs><g transform="translate(-348.71 -467.95)"><g transform="translate(5.592 9.4136)" fill="none" style="stroke: var(--icon-fill, #000);"><path d="m362.05 475.46c43.122 0.2856 112.73-5.6269 118.16 4.1486 8.3007 14.935-18.803 18.486-8.5828 32.003 10.383 13.733 23.903-2.5282 23.903-2.5282" marker-start="url(#CapTriangle)" stroke-linecap="round" stroke-width="12"/><g><path d="m440.26 473.42 0.16252 119.13" marker-end="url(#SerifCap)" stroke-width="13"/><path d="m381.3 474.38 0.68951 123.42" marker-end="url(#marker5)" stroke-width="13"/><path d="m381.76 565.86c-19.076 28.04 2.0685 29.879 2.0685 29.879" stroke-width="12"/></g></g></g></svg>
