<?xml version="1.0" encoding="UTF-8"?>
<svg width="457.22" height="446" version="1.1" viewBox="0 0 457.22 446" xmlns="http://www.w3.org/2000/svg"><g style="fill: var(--icon-fill, #fff);" transform="translate(-29.778 -41.003)"><path d="m172.42 41.021c-39.47 0.351-78.748 5.972-114.73 14.827 10.094 15.264 27.17 26.95 46.898 34.865 23.65 9.488 50.72 13.333 70.959 12.299 20.826-1.065 47.765-9.524 68.764-21.008 10.5-5.742 19.542-12.245 25.652-18.5 3.24-3.317 5.517-6.486 6.99-9.316-30.874-8.778-63.696-12.865-96.635-13.167a438.03 438.03 0 0 0-7.896 0zm111.54 33.877c-0.372 0.396-0.743 0.793-1.125 1.184-7.888 8.075-18.231 15.34-29.889 21.715-23.314 12.75-51.772 21.928-76.484 23.191-23.227 1.188-52.158-2.967-78.58-13.568-18.094-7.26-35.189-17.651-47.762-31.873-16.315 131.31-30.792 277.62-10.125 397.46 19.598 6.163 40.992 10.825 63.008 13.95v-63.962h64v-64h109.96c-0.024-3.013 0.152-6.295 0.486-9.97 0.96-10.546 3.217-24.018 6.338-39.007 5.408-25.967 13.412-56.318 21.948-82.152-4.95-49.133-12.133-100.88-21.772-152.97zm152.68 0.59c-0.909 2e-3 -1.93 0.107-2.87 0.137l-56.949 71.28c7.692 2.471 14.598 7.387 19.639 14.052l55.268-66.045c0.901-2.06 0.935-7.813-2.174-12.293-2.433-3.505-5.967-6.446-12.051-7.092-0.27-0.028-0.56-0.04-0.863-0.039zm-69.506 87.742a31.857 31.857 0 0 0-4.278 6.745c-3.85 8.26-4.52 17.07-3.816 24.61l0.022 0.224 3.507 24.408a201.33 201.33 0 0 0-5.46 0.586c-11.149 1.362-23.392 3.885-31.805 6.601-9.124 26.31-18.124 59.552-23.9 87.29-3.034 14.562-5.182 27.607-6.034 36.966-0.268 2.945-0.188 4.657-0.203 6.729 2.338-1.204 5.048-2.731 8.326-4.871 9.674-6.317 22.502-16.22 36.13-27.565 25.535-21.259 53.706-47.399 71.997-65.816-2.982-7.624-8.213-16.243-13.951-23.516-6.682-8.469-14.49-15.144-16.53-16.408-0.057 8e-3 -0.262-0.026-0.392-0.04l-3.783-26.323c-0.448-4.91 0.237-11.044 2.207-15.27 0.975-2.092 2.012-3.727 3.46-4.951-3.847-5.382-9.725-8.894-15.497-9.399zm9.867 149.77v46h110v-46zm-192 64v46h110v-46zm128 0v46h110v-46zm128 0v46h46v-46zm-320 64v46h110v-46zm128 0v46h110v-46zm128 0v46h110v-46z"/></g></svg>
