<?xml version="1.0" encoding="UTF-8"?>
<svg width="473.41" height="473.42" version="1.1" viewBox="0 0 473.41 473.42" xmlns="http://www.w3.org/2000/svg"><g style="fill: var(--icon-fill, #fff);" transform="translate(-16.671 -19.952)"><path d="m252.31 19.957c-72.036 0.363-142.99 33.534-189.18 95.97-69.83 94.39-59.125 223.32 19.85 304.99l-37.238 50.332 151.22-22.613-22.616-151.22-43.137 58.308c-44.08-54.382-47.723-133.65-4.16-192.53 30.676-41.466 77.863-63.504 125.76-63.753 16.344-0.085 32.766 2.382 48.645 7.467l-6.963-46.55c-23.858-4.86-47.908-5.026-71.017-0.997-59.232 7.322-113.99 39.918-148.16 91.215 35.65-65.89 103.77-105.92 176.04-107.74 1.673-0.042 3.347-0.063 5.023-0.065 14.8-0.01 29.748 1.596 44.597 4.905l48.608-7.268c-31.14-13.906-64.32-20.62-97.274-20.453zm212.93 22.055-151.22 22.61 22.614 151.22 41.126-55.588c42.204 54.29 45.092 132.05 2.187 190.04-40.22 54.367-108.82 75.32-170.19 57.566l6.522 43.598c28.726 5.533 58.236 4.414 86.203-3.07 37.448-5.957 73.34-22.05 103.16-47.728-49.196 54.65-122.62 77.514-191.74 64.34l-55.8 8.344c99.03 43.7 218.4 14.77 285.51-75.938 69.13-93.445 59.34-220.74-17.483-302.53l39.114-52.866z"/></g></svg>
