<?xml version="1.0" encoding="UTF-8"?>
<svg width="460" height="437.77" version="1.1" viewBox="0 0 460 437.77" xmlns="http://www.w3.org/2000/svg"><g style="fill: var(--icon-fill, #fff);" transform="translate(-26,-37.113)"><path d="m486 203.65h-175.89l-54.111-166.54-54.111 166.54h-175.89l142.22 103.62-54.462 167.61 142.24-103.65 142.24 103.65-54.473-167.61zm-85.995 28.008-65.335 47.596-15.46-47.596zm-144-103.95 24.658 75.91h-49.328zm-144 103.95h80.795l-15.45 47.596zm55.097 169.71 24.932-76.743 40.194 29.29zm34.041-104.76 21.1-64.951h67.524l21.099 64.95-54.867 39.977zm143.73 104.76-65.082-47.454 40.194-29.29zm-37.983-264.36-10.424-32.092a183.27 183.27 0 0 1 114.32 81.21h-34.349a155.29 155.29 0 0 0-69.55-49.118zm-177.88 234.31-10.413 32.049a182.42 182.42 0 0 1-43.918-142.58l26.684 19.435v2.847a153.8 153.8 0 0 0 27.647 88.206zm177.1 58.108 26.64 19.413a182.45 182.45 0 0 1-153.51 0l26.64-19.413a154.79 154.79 0 0 0 100.23 0zm-170.54-243.3h-34.348a183.27 183.27 0 0 1 114.32-81.21l-10.424 32.091a155.29 155.29 0 0 0-69.55 49.119zm303.12 96.955a181.92 181.92 0 0 1-45.276 120.24l-10.413-32.048a153.8 153.8 0 0 0 27.68-88.197v-2.846l26.683-19.446a183.68 183.68 0 0 1 1.325 22.292z"/></g></svg>
