<?xml version="1.0" encoding="UTF-8"?>
<svg width="460.92" height="469.12" version="1.1" viewBox="0 0 460.92 469.12" xmlns="http://www.w3.org/2000/svg"><g style="fill: var(--icon-fill, #fff);" transform="translate(-25.787 -25.156)"><path d="m257.56 25.156c353.16 276.87 16.918 408.9-87.875 293.25l-40.75 37.125 50.812 50.345c217.56 181.36 524.73-252.06 77.813-380.72zm-146.81 339.12c-5.525 1.065-8.975 2.957-11.313 5.25-1.956 1.922-3.248 4.556-4.25 7.564l55.188 52.844c5.468-1.008 9.264-2.796 11.28-4.688 1.997-1.872 3.095-3.864 3.095-7.53zm-24.72 30.314-55.623 50.686c-16.737 27 14.693 61.198 51.093 44.66l51.53-50.282-47-45.062z"/></g></svg>
