<?xml version="1.0" encoding="UTF-8"?>
<svg width="446.44" height="434.56" version="1.1" viewBox="0 0 446.44 434.56" xmlns="http://www.w3.org/2000/svg"><g style="fill: var(--icon-fill, #fff);" transform="translate(-21.5,-27.625)"><path d="m132.81 27.625 29.593 134.12c4.547 3.588 9.68 4.188 18.063 1.97l5.186-1.376 3.813 3.812 84.218 84.188 3.78 3.78-1.343 5.19c-2.42 9.36-1.483 15.047 3.375 19.905l13.53 13.53 97.533-97.563-13.532-13.53c-3.538-3.54-9.39-4.415-19.655-1.438l-5.313 1.53-3.906-3.906-86.187-86.188-1.626-3.28-1.094-3.314v-20.684c-0.013-0.02-0.018-0.044-0.03-0.063l-126.41-36.687zm177.78 57.875-14.156 14.188 43.782 43.78 14.186-14.155-43.81-43.813zm120.25 95.844-159.97 159.97 37.063 37.123 160-160-37.094-37.093zm-234.34 18.25-175 175v87.594l218.81-218.78z"/></g></svg>
