<?xml version="1.0" encoding="UTF-8"?>
<svg width="384" height="464" version="1.1" viewBox="0 0 384 464" xmlns="http://www.w3.org/2000/svg"><g style="fill: var(--icon-fill, #fff);" transform="translate(-64,-16)"><path d="m256 16c-36.446 0-73.264 13.433-139.97 40h279.94c-66.707-26.567-103.52-40-139.97-40zm-160.66 56-31.344 376c56 28 112 31.5 168 31.938v-239.94h-120v-48h288v48h-120v239.94c56-0.438 112-3.938 168-31.938l-31.344-376zm64.875 88a8 8 0 0 1 7.78 8 8 8 0 0 1-16 0 8 8 0 0 1 8.22-8zm48 0a8 8 0 0 1 7.78 8 8 8 0 0 1-16 0 8 8 0 0 1 8.22-8zm48 0a8 8 0 0 1 7.78 8 8 8 0 0 1-16 0 8 8 0 0 1 8.22-8zm48 0a8 8 0 0 1 7.78 8 8 8 0 0 1-16 0 8 8 0 0 1 8.22-8zm48 0a8 8 0 0 1 7.78 8 8 8 0 0 1-16 0 8 8 0 0 1 8.22-8zm-104.22 80v240c2.667 2e-3 5.333 0 8 0s5.333 2e-3 8 0v-240zm-120 48h16v16h-16zm32 0h16v16h-16zm32 0h16v16h-16zm112 0h16v16h-16zm32 0h16v16h-16zm32 0h16v16h-16zm-240 32h16v16h-16zm32 0h16v16h-16zm32 0h16v16h-16zm112 0h16v16h-16zm32 0h16v16h-16zm32 0h16v16h-16zm-240 32h16v16h-16zm32 0h16v16h-16zm32 0h16v16h-16zm112 0h16v16h-16zm32 0h16v16h-16zm32 0h16v16h-16z"/></g></svg>
