<?xml version="1.0" encoding="UTF-8"?>
<svg width="476" height="475.96" version="1.1" viewBox="0 0 476 475.96" xmlns="http://www.w3.org/2000/svg"><g style="fill: var(--icon-fill, #fff);" transform="translate(-18,-18.02)"><path d="m494 18.02-101 0.103v100.88h101zm-119 0.12-56.29 12.065-31.01 64.361-101.53-35.952-49.166 60.386h238zm-357 118.86v61.63l12.416 31.981 32.159 16.389h184.42v-110zm247 0v110h229v-110zm-188.71 185.59-58.294 9.612v42.797h101v-110h-53.683zm60.706-57.591v110h238c-48.428-109.93-0.057-1.24-48.222-110zm-119 128v100.98l199-0.236 30-100.74zm247 0v55.79c66.067 45.222-0.134-0.028 65.798 44.869l163.2-0.169v-100.49z"/></g></svg>
