<?xml version="1.0" encoding="UTF-8"?>
<svg width="470.34" height="409.24" version="1.1" viewBox="0 0 470.34 409.24" xmlns="http://www.w3.org/2000/svg"><g style="fill: var(--icon-fill, #fff);" transform="translate(-21.81,-15.982)"><path d="m251.83 15.982-29.2 136.08-56.74-75.652 7.78 90.4-49.154-24.68 22.19 49.643-67.16-13.433 57.817 70.668-55.48-10.514 35.634 26.608c29.894 0.77 62.017-2.565 90.597 4.35 18.697 4.522 36.167 14.302 48.255 32.74 0.414 0.632 0.82 1.274 1.22 1.923 0.402-0.65 0.806-1.29 1.22-1.922 12.088-18.44 29.558-28.22 48.254-32.742 27.64-6.685 58.596-3.782 87.643-4.28l35.25-26.676-42.05 8.178 41.468-80.596-59.507 19.852 19.092-77.352-57.234 59.867 6.055-109.61-46.232 97.31-39.715-140.16zm-159.59 265.8-41.966 29.233 207.34 72.68 207.34-73.03-40.99-28.88c-42.595 7.18-92.04-5.54-126.02 10.345l-0.116 0.05-0.013 8e-3c-5.226 2.37-9.962 5.418-14.255 9.382-7.564 6.774-13.817 16.048-18.36 28.694l-7.777 13.763-7.158-12.67c-5.434-15.833-13.453-26.5-23.324-33.637-0.157-0.114-0.316-0.22-0.473-0.332-0.63-0.446-1.267-0.883-1.912-1.302-33.565-21.772-86.63-6.6-132.31-14.3zm-64.26 41.3-6.166 17.643 190.67 66.674v17.817h91.55v-18.687h-0.055l188.18-65.804-6.168-17.642-205.66 71.918 4.03 11.527h-54.75l4.03-11.527-205.66-71.918z"/></g></svg>
