<?xml version="1.0" encoding="UTF-8"?>
<svg width="338.22" height="304.45" version="1.1" viewBox="0 0 338.22 304.45" xmlns="http://www.w3.org/2000/svg" xmlns:xlink="http://www.w3.org/1999/xlink"><defs><clipPath id="clipPath2"><path transform="translate(-230.64 -125.67)" d="M 0,228.334 H 253.667 V 0 H 0 Z"/></clipPath></defs><path transform="matrix(1.3333 0 0 -1.3333 307.53 136.88)" d="m0 0c-9.209 2.624-26.697-1.679-31.775-6.272-7.879 6.003-22.907 5.07-31.52-4.803-10.74-12.33-17.246-26.437-19.266-31.19-3.533 2.92-6.871 5.654-9.099 7.443-1.795 1.444-3.639 2.314-5.428 2.844 9.76 13.837 30.317 35.089 54.354 36.256-13.62 1.997-34.582-7.481-45.393-20.701 2.055 8.793 11.881 23.236 23.629 30.049 0 0-5.787-7.298-3.471-8.415 3.875-1.87 13.221 13.219 26.047 13.755 0 0-9.351-4.542-7.348-7.613 1.559-2.399 7.702 2.935 18.565 2.935 13.174 0 25.107-8.176 30.705-14.288m-94.744-68.956c0.351-0.314 0.68-0.634 0.992-0.958-8.883-18.299-25.373-41.24-57.478-41.24-11.578 0-21.756 4.216-29.242 9.457-2.486 1.926-4.762 4.14-6.832 6.479l-5e-3 -2e-3s-3e-3 2e-3 -9e-3 0.02c-1.203 1.357-2.336 2.745-3.399 4.159-1.455 1.862-2.509 1.772-3.312 0.741-1.656-2.131 1.087-9.14 1.087-9.14-25.036 23.846-12.303 58.308-11.763 59.98 1.395 4.299 0.121 5.021-1.351 4.458-2.217-0.845-4.771-4.462-4.771-4.462 1.894 21.048 21.327 33.865 21.327 33.865 0.141-0.146 0.283-0.3 0.403-0.472 2.334-3.295-1.165-7.571-1.578-20.631 3.663 5.049 18.072 15.154 26.144 18.002-2.507-3.353-4.715-8.237-4.984-15.161 0 0 5.823 6.617 13.473 6.617 1.839 0 3.568-0.326 5.042-0.97-28.203-27.231-16.436-61.55 7.33-61.55 13.402 0 26.705 14.701 32.049 24.888 5.187-4.132 12.213-9.989 16.877-14.08m87.662-5.393c0-15.268-15.211-27.185-32.387-24.752 4.381-4.115 15.004-6.862 20.67-4.313-3.246-5.841-18.808-14.131-33.451-10.24-13.756 3.665-19.795 16.774-20.139 25.143-6.488-6.495-4.736-17.077-0.115-21.272-5.359 1.396-13.426 6.949-14.787 16.953-1.168 8.581 3.615 18.413-5.35 26.28-5.341 4.69-13.498 11.452-18.771 15.585-11.035 8.645-6.856 15.004-9.338 19.571-1.906 3.54-6.539 5.513-9.324 8.736-2.793 3.248-2.697 8.062-1.133 10.829-0.471-3.875 2.283-6.744 5.977-7.96 4.066-1.351 7.505-0.23 10.998-2.247 4.162-2.431 2.211-8.964 5.267-11.285 2.705-2.033 9.5 0.676 15.303-3.991 5.805-4.666 18.836-15.521 24.461-20.137 10.119-8.317 20.529 1.167 17.07 10.694 10.246-6.086 11.377-23.09 2.84-29.014 8.047-1.807 22.568 1.78 22.568 13.415 0 7.142-6.591 12.143-11.291 12.932 16.485 1.548 30.932-10.001 30.932-24.927m-113.34 71.713c-6.211 0-8.178 4.714-9.642 9.856 7.462-2.75 9.642-9.856 9.642-9.856m-83.429 1.014c10.939 2.256 16.421 0.355 18.194-4.164 1.264-3.211-0.227-7.726-1.209-13.058 3.717 4.045 16.26 12.626 25.485 14.297-2.144 0.686-7.688 1.734-9.829 1.735 6.732 7.946 21.42 10.513 29.433 8.451-5.26 0.29-15.571-2.459-19.683-5.822 3.613-0.65 6.957-1.496 9.825-2.504-4.899-1.893-11.157-7.679-13.243-13.873 6.457 4.462 19.298 3.286 21.295-5.926 1.355-6.32-3.023-11.937-5.196-12.817 1.779-0.33 6.383 0.179 8.154 1.059-0.607-2.575-4.569-6.858-6.984-7.626 6.738 0 16.382 4.313 18.851 10.586 0 0-3.969-1.316-5.826 0.536-1.85 1.851 0.74 9.847 0.74 9.847s-2.648-3.495-4.656-1.486c-2.19 2.193 0.854 9.505 2.008 11.228-2.074 0.866-8.061 1.543-10.588 1.274 7.415 2.683 24.008 4.123 25.736 0.849 1.395-2.636-2.119-7.842-2.119-7.842 2.863 0.204 11.344 0.159 14.33-3.467 3.031-3.686 1.244-8.498 1.244-8.498 6.643 3.183 12.567 13.856 11.114 23.937-0.715-2.077-3.721-5.46-6.672-6.145 0.468 3.323-2.317 5.293-4.338 5.829 1.265 6.455-1.363 14.367-10.592 23.299-7.84 7.593-22.494 18.184-21.817 31.767-2.288-2.905-3.915-11.403-1.806-16.41 6.406-7.572 19.891-15.554 23.41-28.176-6.006 14.73-34.933 26.331-33.677 46.605-3.607-3.879-5.815-17.994-2.863-25.634 5.524-3.305 10.271-8.952 11.011-13.979-5.187 11.656-26.126 13.916-31.986 27.963-1.6-5.01-0.692-11.338 2.122-15.469 0 0-5.359 2.021-16.1 1.591 2.909-1.267 10.741-8.007 9.746-11.97-1.018-4.023-16.13-8.603-23.514-15.987m24.918 29.332c-2.223 7.532-0.578 15.645 2.434 21.718 2.364-7.045 5.965-14.862 17.435-20.881-1.083 5.581-0.611 12.862 1.005 18.475-3.187 12.729 4.9 22.981 14.817 22.981 15.758 0 19.445-20.251 10.752-33.16 4.57-6.356 11.592-11.898 16.322-16.48 0.453-0.44 0.91-0.902 1.371-1.369 7.147 8.795 12.418 22.171 12.418 31.989 0 19.134-12.418 36.888-38.285 38.269-16.395 0.876-27.479-4.19-35.717-12.59-3.749-3.819-12.043-13.457-10.456-30.887 1.108-12.197 7.904-18.065 7.904-18.065" clip-path="url(#clipPath2)" fill="#e50711"/></svg>
