<?xml version="1.0" encoding="UTF-8"?>
<svg width="100" height="100" version="1.1" viewBox="0 0 100 100" xml:space="preserve" xmlns="http://www.w3.org/2000/svg"><g transform="matrix(-1 0 0 1 100 0)" clip-rule="evenodd" fill-rule="evenodd" style="fill: var(--icon-fill, #000);"><path d="m86.768 25.684c-1.447 1.773-2.845 3.484-4.199 5.145 0.365 0.124 0.925 0.313 1.512 0.512-2.438 0.735-4.766 1.437-7.092 2.138 11.065 0.096 19.242 8.859 16.246 20.293 8.757-9.704 4.769-24.167-6.467-28.088z"/><path d="m81.633 27.096c-1.111 0.294-1.844 1.973-1.436 3.104 0.971-0.09 2.281-0.803 2.615-1.585 0.156-0.365 0.146-0.957-0.059-1.269-0.154-0.237-0.774-0.342-1.12-0.25z"/><path d="m76.578 35.276c-1.436 0.134-2.863 0.34-4.295 0.513 6.736 0.893 13.216 2.98 15.543 5.271-8.979-4.331-18.49-4.521-27.971-4.925 0.238-0.146 0.469-0.252 0.709-0.284 2.762-0.373 5.529-0.701 8.285-1.111 1.974-0.294 3.945-0.63 5.891-1.069 1.103-0.249 1.939-0.987 2.043-2.205 0.102-1.201 0.563-2.2 1.391-3.039 0.652-0.662 0.813-1.257 0.811-2.223-4e-3 -1.243 1.088-2.774 2.517-2.907 1.322-0.124 1.932 0.229 2.729 0.8 0.206 0.147 0.945 0.551 1.191 0.648 0.066-0.293-0.656-2.75-1.674-4.201-1.435-2.047-3.459-3.427-5.677-4.447-6.998-3.224-14.032-6.368-21.064-9.516-1.448-0.648-2.949-1.175-4.427-1.758-4e-3 0.025 9.047 5.813 9.047 5.813-11.861-5.477-26.49-6.283-31.945-3.618 5.961 0.069 11.221 1.084 13.164 2.493-1.903-0.099-3.893-0.246-5.885-0.291-1.967-0.044-3.938-0.037-5.903 0.048-1.999 0.087-3.998 0.251-5.987 0.465-1.939 0.209-3.866 0.522-5.799 0.79 3.998 0.377 7.935 0.834 11.768 2.098-6.189 0.945-12.331 2.045-18.285 3.981 5.002-0.345 8.453-0.145 10.859 0.729-5.438 1.019-10.508 2.83-15.569 5.058 2.79-0.268 8.134-0.517 8.134-0.517-4.668 2.43-8.988 5.318-12.508 9.27 5.63-3.593 11.705-5.077 15.633-5.697-7.43 3.176-13 8.451-17.303 15.156 6.578-5.464 14.629-8.945 19.729-8.354-0.382 0.105-0.608 0.173-0.837 0.229-6.436 1.587-10.852 5.53-13.408 11.584-2.178 5.157-2.504 10.527-1.571 15.99 0.344 2.014 0.879 3.994 1.327 5.988-0.311-4.83 0.291-9.452 2.236-13.874 1.979-4.498 4.982-7.991 9.654-9.843 0 0-4.836 3.834-5.939 8.219-1.247 4.962-0.354 9.746 1.545 14.353 2.544 6.171 6.004 11.547 10.43 16.06 6.234 6.357 12.591 9.754 12.682 9.771-1.265-1.203-2.562-2.334-3.739-3.576-3.933-4.146-7.128-8.755-8.671-14.346-0.567-2.057-0.754-4.152-0.346-6.295 0.373 2.192 1.34 4.105 2.557 5.91 3.826 5.677 8.854 10.09 14.599 13.703 8.84 5.557 18.464 8.689 28.944 9.057-0.32-0.141-0.654-0.246-0.989-0.342-4.876-1.387-9.486-3.365-13.636-6.307-4.268-3.025-7.825-6.684-9.85-11.619-0.277-0.677-0.454-1.396-0.678-2.096 0.077-0.045 3.326 4.98 7.177 7.145 8.482 5.479 17.853 7.361 27.822 6.627 1.374-0.1 2.734-0.396 4.101-0.604-15.016-0.025-25.064-9.607-30.566-17.578 3.551 3.266 7.34 5.65 11.43 7.545 4.48 2.076 10.145 3.652 13.018 3.676-5.295-1.731-9.76-4.529-13.5-8.457-3.777-3.967-7.316-10.997-7.02-13.89 2.998 6.132 8.764 9.287 12.304 10.003 0 0-3.546-2.298-6.973-7.004-3.427-4.707-3.325-10.766 0.103-15.102 3.773-4.773 8.865-5.928 14.614-5.004 2.323 0.372 4.617 0.948 6.949 1.226 2.08 0.248 4.146-0.104 6.315-0.835-0.842-1.09-1.511-2.11-2.328-2.993-3.507-3.784-7.98-4.754-12.908-4.292zm-56.317-13.409c4.559-3.37 16.771-3.98 22.673-1.136-3.757-0.834-7.557-1.119-11.393-1.004-3.873 0.117-7.607 0.949-11.28 2.14zm1.285 4.471c6.124-4.209 13.008-4.677 20.101-4.121-6.968 0.059-13.736 1.098-20.101 4.121zm1.361 28.452c-2.89 7.538-1.355 14.762 1.476 21.907-4.668-7.189-5.432-15.662-1.476-21.907zm10.947 1.445c0.33 8.484 3.606 16.033 7.398 23.45-5.002-7.003-8.176-14.611-7.398-23.45zm-14.372-2.464c-0.173-8.315 13.964-21.036 24.23-21.544-11.118 3.914-20.187 10.036-24.23 21.544zm26.097-8.628c-1.216 10.122-0.98 14.062 0.171 25.391-2.416-8.985-2.323-17.864-0.171-25.391zm27.966-25.078c-7.523-0.813-14.441-3.188-20.393-7.998 6.367 3.799 13.377 5.905 20.393 7.998zm-3.707 4.005c-0.729 2.273-2.514 3.395-4.619 2.908-2.088-0.482-3.432-2.673-3.037-4.97l1.361 0.366c0.029 0.548 0.146 1.452 0.571 2.122 0.835 1.314 3.302 1.582 4.192-0.128 0.095-0.19 0.179-0.416 0.258-0.642zm-10.267 46.211c-3.976-5.979-5.803-12.42-4.294-19.577-0.234 6.884 1.321 13.383 4.294 19.577zm-2.589-42.536c-1.35-1.413-2.586-2.962-3.688-4.577-1.629-2.394-3.102-4.894-5.365-6.837 3.784 2.168 7.588 4.228 12.089 4.487h-4.149c1.512 1.845 2.992 3.761 4.594 5.568 1.355 1.531 3.206 2.073 5.207 2.104 1.533 0.023 3.066 4e-3 4.6 4e-3 0.011 0.022-4.613 1.134-6.963 1.488-2.45 0.372-4.634-0.469-6.325-2.237z"/></g><text y="115" fill="#000000" font-family="'Helvetica Neue', Helvetica, Arial-Unicode, Arial, Sans-serif" font-size="5px" font-weight="bold">Created by Minh Do</text><text y="120" fill="#000000" font-family="'Helvetica Neue', Helvetica, Arial-Unicode, Arial, Sans-serif" font-size="5px" font-weight="bold">from the Noun Project</text></svg>
