<?xml version="1.0" encoding="UTF-8"?>
<svg width="93" height="93" version="1.1" viewBox="4 4 93 93" xml:space="preserve" xmlns="http://www.w3.org/2000/svg"><path style="fill: var(--icon-fill, #000);" d="m22.8 70.5c-0.9 2.7-1.1 5.4-0.9 8.4-0.4-0.4-0.8-0.8-1.1-1.2-2.8-3.8-4.9-8-6.4-12.5-1.5-4.7-2.4-9.6-2.4-14.5v-2.3c-1.8 1.8-2.5 4-3.5 6.1-1.2-4.2 0.2-16.5 6.7-24.8-0.2-0.3-0.5-0.8-0.8-1.1-2.2-2.4-3.5-5.2-4-8.4-0.9-6 1.3-11.8 7.3-14.2 4.9-1.9 9.6-1.2 13.5 2.6 0.5 0.4 0.8 1 1.1 1.3 2.2-0.4 4.2-1 6.1-1.2 3.7-0.3 7.2-0.4 10.6 1.3 0.6 0.3 1.2 0.4 1.9 0.1 5.5-2.5 11.1-1.8 16.8-0.3 0.2-0.2 0.6-0.5 0.9-0.8 2.7-3 6.2-4.2 10.2-3.9 4.1 0.2 7.2 2.1 9.3 5.6 1.8 2.9 2.3 6.1 1.8 9.5-0.4 2.9-1.7 5.3-3.4 7.6-0.5 0.6-1 1.3-1.6 2 5.5 7.3 7.6 15.6 7 25-1.2-2.3-2.2-4.3-3.3-6.3-0.1 0-0.2 0.1-0.3 0.1 0.2 5.4-0.6 10.7-2.2 15.9s-3.8 10.1-7.8 14.4c0.1-3 0.1-5.7-0.9-8.2-1.5 5-4 9.3-7.7 12.9 0.3-2.1 0.4-4.2 0.1-6.3-0.8-0.1-0.8 0.5-1.1 0.9-1.8 2.8-3.8 5.5-6.2 7.9-1 1-2.1 1.8-3.3 2.9 0.3-1.7 0.6-3.2 0.9-5-1.6 1.3-2.3 2.8-3.3 4s-2 2.4-3.1 3.6-2.2 2.3-3.4 3.6c-1.8-1.7-3.4-3.6-4.9-5.4s-3.1-3.6-4.7-5.6c-0.5 1.6 0.3 2.9 0.5 4.5-4.3-3.2-7.2-7.2-10.2-11.6-0.4 2.3-0.4 4.4 0.1 6.7-2-2-3.6-4-4.8-6.3-1.5-2.3-2.4-4.6-3.5-7zm8.6-54.3c-0.6-0.9-1-1.7-1.5-2.4-1.3-1.9-2.9-3.3-5.1-4-3.6-1.2-7.3 0.3-9.1 3.7-2.1 4-0.8 9.4 2.8 12.5 0.1 0.1 0.2 0.1 0.3 0.1l-0.3-0.3c0.5-0.4 1.1-0.7 1.7-1.2-0.3-0.6-0.7-1.3-1-1.9-1.1-2.1-1.6-4.2-1.2-6.6 0.5-3.9 4.9-4.4 6.8-2.5 1.1 1.1 2 2.2 2.9 3.4 0.8 1 0.7 1.1-0.3 2-0.9 0.8-2 1.4-2.6 3 1.6-1.2 3.1-2.1 4.7-2.5 1.7-0.5 3.3-1 5.5-0.7-5.8 2.4-9.5 6.6-12.1 11.8v-1.9c-3.7 2.1-8.3 9.1-8.5 13.1 1.6-2.2 3.5-3.9 5.6-5.5-3.7 5.2-4.9 11-4.4 17.5 0.7-1.9 1.3-3.6 2-5.2 0.9-2 2.1-3.4 3.4-4.2-1.1 3-1.7 6.1-1.5 9.2s0.9 6 2.8 8.9c0.7-3 1.1-5.7 3.2-7.8-0.6 3 0.1 5.8 1.3 8.5 1.3 2.8 3.3 4.8 6 6.2-0.6-1-1.3-1.8-1.9-2.8-2.3-3.7-2.6-7.8-2.2-11.9 0.1-1.8 0.1-2.8-0.7-4.8-1.6-4.2-0.6-7.9 1.9-11.6 0.2 0.6 0.3 1 0.4 1.3 0.7 1.8 1.8 3.2 3.7 3.8 1 0.3 1.9 0.1 2.6-0.7 0.6-0.8 1.1-1.7 1.5-2.7-0.3-0.1-0.5-0.1-0.6-0.1-0.2 0-0.4 0-0.6-0.1-2.4-0.3-4.2-1.6-4.7-4-0.4-1.6-1.2-2.6-2.6-3.2-0.2-0.1-0.3-0.2-0.5-0.3 2.8-2.6 4.3-2.7 6.8-2.2 2.4 0.5 4.5 1.5 6.5 2.9 0.7 0.5 1.2 0.9 1.7-0.1 0.1-0.2 0.6-0.2 0.9-0.3 0.4 0.3 0.7 0.7 1.2 1.1 0.3-1.4-0.1-2.4-0.6-3.5-1.5-2.9-3.8-4.7-6.7-6.1 5.3 0.2 9 2.9 11.5 7.3 1.4-1.6 2.6-3.2 4-4.5 1.4-1.4 3.1-2.3 5-3 1.9-0.8 3.8-1.2 5.8-1.3s3.8 0.6 6 1.3c-2-2.4-4.2-3.9-6.7-5.2 4.2-0.3 7.8 0.7 11 3-0.6-1.4-1.9-2.2-2.7-3.4 0.4-1.7 1.4-3.2 2.6-4.4 2.1-2.3 6.3-2.6 7.5 1.7 0.2 0.7 0.3 1.4 0.3 2.1-0.2 1.3-0.5 2.6-0.9 3.8-0.3 1-0.9 1.9-1.2 2.8l1.6 1.6c2.3-1.8 4-6.4 3.4-9.8-0.7-4-4.2-7.4-8.9-6.7-3 0.4-5.1 2.2-6.6 4.8-0.4 0.7-0.8 1.4-1.2 2.2-3.1-1.2-6.3-0.9-9.5-1.3 1.6-0.3 3.2-0.5 4.8-0.8-1.7-0.8-3.5-1.2-5.3-1.2-3.2 0-6.2 0.7-8.8 2.7-4.4-3.1-9.1-3.2-13.9-1.6 1.8 0.3 3.7 0.3 5.8 1.1-4.4-0.1-7.7-0.1-11.1 0.9zm20.9 48.8c0.3 0.3 0.5 0.6 0.8 0.9 2.6 2.2 6.6 1.7 8.7-1 1.2-1.5 1.6-3.3 1.7-5.1 0.1-2.6-0.2-5.1-0.9-7.5-1.2-4.3-2.6-8.3-4.7-12.1-0.6-1.2-1.5-2.2-2.7-3 0.1 1.4 0.1 2.6 0.2 3.8-0.4-0.3-0.6-0.7-0.9-1-1.1-1.5-2.2-3.1-3.4-4.5-0.9-1-1.5-1-2.5 0-1.1 1.2-2.2 2.6-3.2 3.9-0.2 0.2-0.3 0.4-0.8 0.9v-3.3c-1.2 1.1-2.1 2.1-2.7 3.3-2.4 5-4.5 10.2-5 15.8-0.2 1.7-0.1 3.5 0.1 5.2 0.3 2.1 1.3 4 3.2 5.2 2.4 1.5 6.1 0.9 7.7-1.4-0.5-1.1-1.5-1.5-2.5-2-2.3-1.2-3.6-3-3.8-5.6-0.3-2.5 0.9-4.7 1.6-7.3 0.2 1 0.3 1.6 0.4 2.3 0.3-0.1 0.6-0.1 0.8-0.2 1.6-0.7 3.3-0.6 4.9 0.1 0.6 0.3 1.1 0.2 1.7 0 1.9-0.7 3.8-0.9 5.6 0.2h0.2c-0.1-0.8-0.2-1.6-0.3-2.3 0.4 0.4 0.5 0.9 0.7 1.4 0.2 0.7 0.4 1.5 0.8 2.1 2.1 3.4 0.3 8.3-3.7 9.5-0.8 0.2-1.5 0.6-2 1.7zm14.8-39c-2.6-1.3-7.1-0.7-9.7 1.2-2 1.6-3.3 3.6-3.5 6.6 0.6-0.5 0.9-0.8 1.3-1 0.5 0.4 1 0.7 1.5 1.1 2.6-1.8 4.9-3.9 8-4.8-0.8-0.3-1.6-0.5-2.4-0.6-0.8 0-1.6 0.2-2.4 0.2 2.2-1.7 4.5-2.5 7.2-2.7zm-5.4 13.9c0.7 1 1.2 1.8 1.7 2.6 0.7 1.1 1.2 1.3 2.4 1 3.4-0.9 5-4.6 3.4-8.2-1.5 3.1-3.8 4.8-7.5 4.6zm16.5 22.4c3.2-4.2 2.4-14.7-1.7-17.1 0.1 0.3 0.2 0.6 0.3 0.8 1.5 2.9 1.5 6 1.2 9.2 0 0.3-0.3 0.7-0.6 0.8-0.1 0.1-0.5-0.3-0.7-0.4-0.1-0.1-0.3-0.2-0.5-0.3 0.8 2.4 1.9 4.5 2 7zm-9.8 6.6c1.7-0.8 2.7-2.2 3.7-3.6 2-2.9 2.8-6 2.1-9.5-0.4-1.7-1.2-2.9-2.6-3.8 2 6.2 0.6 11.7-3.2 16.9zm-23.5-10.1c-0.1-0.2-0.2-0.5-0.3-0.7-0.5-1.5 0.2-2.7 1.8-2.6 0.7 0 1.4 0.3 2 0.7 0.9 0.5 1.8 0.6 2.8 0.2 0.4-0.2 0.9-0.5 1.3-0.5 0.6-0.1 1.3-0.2 1.9-0.2 0.9 0.1 1.5 0.9 1.5 1.8 0 0.3 0 0.5-0.1 1 1.3-1.8 1-3.3-0.7-4.2-1.1-0.6-2.3-0.5-3.4 0-0.5 0.3-1 0.6-1.5 0.8-1.1-0.5-2-0.9-2.9-1.3-1.7-0.6-3.6 0.7-3.6 2.5 0 1 0.3 1.9 1.2 2.5zm12.1 12.9c-1.8 0.5-3.2 1.2-4.7 1.4-1.6 0.2-3.3 0.3-4.8 0-1.5-0.2-2.8-1-4.5-1.6 1.9 3.1 4.7 3.7 7.7 3.6 2.6-0.1 4.8-0.8 6.3-3.4zm22.9-32.8c2.6 4.6 3.6 9.7 4.6 14.9 1.5-4.8-0.9-11.6-4.6-14.9zm-1-8.1c2.4 3.6 4.8 7.1 7.2 10.7-1.2-4.4-3.7-7.9-7.2-10.7zm-25.5 38c-1.2-0.6-2.2-1.1-3.2-1.7-1.1 0.6-2.2 1.3-3.4 1.9 2.3 1.4 4.4 0.9 6.6-0.2zm11.6-35.8c-1.5 0.5-1.5 0.5-2.1 1.7-0.3 0.6-0.8 1-1.4 1.2-0.4 0.1-0.8 0.2-1.2 0.4 0.9 1 2 1.3 3 0.8 1.6-0.9 1.7-2.5 1.7-4.1zm-25.1 3.2c-2.4-0.4-2.5-0.5-2.9-2.5-0.5-0.2-1.1-0.4-1.8-0.7-0.1 1.6 0.1 3 1.5 3.8 1.1 0.5 2.2 0.6 3.2-0.6z"/><text y="115" fill="#000000" font-family="'Helvetica Neue', Helvetica, Arial-Unicode, Arial, Sans-serif" font-size="5px" font-weight="bold">Created by CC0hort</text><text y="120" fill="#000000" font-family="'Helvetica Neue', Helvetica, Arial-Unicode, Arial, Sans-serif" font-size="5px" font-weight="bold">from the Noun Project</text></svg>
