<?xml version="1.0" encoding="UTF-8"?>
<svg width="712" height="712" preserveAspectRatio="xMidYMid" version="1.0" viewBox="159 133 712 712" xmlns="http://www.w3.org/2000/svg"><g transform="matrix(.1 0 0 -.1 0 1024)" style="fill: var(--icon-fill, #000);"><path d="m2133 8771c-67-31-77-60-70-216 10-221 98-804 173-1150 19-88 48-229 65-313 62-316 123-464 252-612l39-45-44-7c-23-5-95-15-158-23-126-16-212-50-262-102l-27-28h112c119 0 227-11 227-24 0-5-29-16-65-26-93-25-177-67-229-116-45-40-92-106-84-114 2-3 21 7 41 20 49 34 126 52 227 55 126 4 131 3 87-21-53-28-135-115-180-190-34-57-97-231-97-267 0-8 25 9 55 37 62 56 178 118 240 128l40 6-43-47c-58-63-152-209-207-323-81-163-142-384-158-566l-5-47 45 91c54 110 136 198 232 247 35 18 66 30 68 28s-21-37-52-76c-68-89-150-220-204-328-131-260-179-481-187-857l-5-220 24 65c55 151 130 263 244 370 86 81 216 165 308 200l24 9-25-57c-15-31-33-73-41-92-41-96-189-380-257-494-129-216-252-382-511-691-161-193-160-201 5-31 85 87 200 197 255 243 110 93 398 290 402 276 2-5-8-40-22-78-52-138-114-424-135-625-14-137-12-144 18-60 60 165 161 285 342 406 365 243 832 386 1311 401 134 4 188 3 193-6 5-7-4-11-28-11-113 0-544-69-751-121-134-33-378-113-412-135-31-19-89-128-129-240l-34-96 42 35c24 19 90 65 146 102 351 226 832 397 1281 455 261 33 412 37 385 10-5-5-99-20-209-35-494-64-874-174-1190-345-92-50-147-87-113-76 42 13 348 51 348 43 0-2-31-25-69-50-114-76-261-199-357-300-85-88-229-269-255-319-16-32-3-17 76 87 86 113 275 302 380 382 169 127 346 231 507 297 178 74 435 135 628 150 104 8 69-5-130-49-272-61-488-139-687-251l-63-35 20-39c11-22 25-40 31-40 5 0 31 11 57 24 78 39 309 122 447 160 125 35 364 81 372 72 3-2-4-7-14-10-306-91-515-158-623-201-181-72-422-187-550-265-223-134-463-338-575-490-43-59-36-53 74 58 191 191 367 331 572 453 108 64 236 129 254 129 5 0 20-22 32-48 171-366 352-712 371-712 4 0 17 39 30 87 22 86 65 189 94 227 15 19 18 16 75-44l60-64 30 94 29 95 23-45c57-110 223-338 257-353 7-3 19 28 33 81 23 95 69 198 101 227 18 17 22 17 36 4 8-9 26-47 39-85 43-121 29-271-35-381-16-28-17-33-4-33 63 0 233 71 319 134 28 20 93 79 146 132l96 95 21-58c12-32 28-67 37-78 14-19 18-17 89 56 40 42 99 113 131 159 54 77 59 81 73 64 46-62 111-238 112-304 1-23 5-20 56 33 30 32 90 113 134 180 43 67 85 131 93 142 14 19 17 14 43-69l27-89 60 63c46 49 61 60 69 49 28-40 80-165 99-240 12-46 23-85 24-87 9-10 137 222 262 473 79 160 148 292 154 293 13 5 225-111 347-190 147-95 323-241 465-386 70-72 127-127 127-124 0 4-38 52-84 107-181 216-474 431-798 584-239 112-370 160-826 302-57 17-101 33-99 36 8 7 189-27 322-62 164-43 336-102 466-161 56-25 102-44 103-42s10 20 19 42c22 48 28 43-158 136-168 83-325 137-580 196-104 25-194 47-200 49-5 3 28 3 74 0 112-8 317-48 457-90 408-124 794-398 1060-752 68-92 80-106 65-76-6 12-45 68-87 124-136 182-351 388-524 502l-75 49 65-7c122-13 289-35 307-41 51-17-48 43-182 110-322 160-622 244-1093 307-125 16-231 34-235 38-28 28 197 18 450-19 486-71 1040-292 1336-533 31-26 57-46 57-44 0 1-12 38-26 82-28 86-80 193-117 238-40 50-378 153-662 202-165 29-450 65-513 65-26 0-41 4-37 10 10 16 294 12 435-5 466-58 894-223 1182-456 114-92 191-201 245-349l24-65-6 90c-14 186-66 437-135 640-16 50-30 94-30 98 0 18 211-120 340-223 116-93 210-180 364-335l108-110-64 80c-36 44-122 150-193 235-256 308-397 516-542 801-84 164-186 389-179 396 7 8 150-68 216-115 165-117 269-250 341-438l30-79-5 210c-10 385-59 610-189 867-64 126-175 302-229 364-17 19-29 37-26 39 7 7 96-41 143-77 59-46 111-113 156-203l40-80-6 82c-8 104-44 263-85 376-59 161-169 357-260 462-52 60-41 68 48 32 69-29 140-74 196-126l38-36-7 35c-16 79-59 189-100 256-47 75-137 168-179 184-14 5-26 14-26 20 0 10 14 10 199-6 44-4 82-16 127-39 35-19 64-30 64-26 0 15-56 86-94 119-47 41-112 74-206 103-41 12-79 26-84 30-13 11 117 24 242 24 61 0 112 1 112 2s-24 20-53 42c-70 53-112 67-280 91-77 12-145 24-150 27s7 22 26 42c117 123 183 285 247 601 21 107 50 248 64 314 80 368 181 1087 174 1239-3 76-5 80-40 112-52 48-91 53-193 21-95-30-307-136-435-217-365-232-608-435-1025-853-301-302-339-331-435-330-44 0-73 9-151 47-115 56-192 77-279 77-65 0-91-5-295-54-157-37-348-52-483-37-59 7-109 15-112 17-14 15 90 49 195 65 39 6 84 14 100 18 28 7 26 9-40 30-52 17-94 23-165 23-143 1-266-33-480-133-96-45-124-54-170-54-98 1-131 27-484 380-322 322-480 461-711 630-237 173-513 328-681 384-107 36-125 37-181 12zm257-786c65-202 215-329 441-372l94-18-113-3c-63-1-139 2-170 8-124 23-235 101-284 199-20 40-23 61-23 156 0 61 7 137 15 170l14 60 7-80c3-44 12-98 19-120zm5525 109c46-258-19-398-220-474-50-19-84-23-210-26l-150-4 90 20c50 11 110 27 135 36 188 69 330 275 330 478 0 33 3 57 6 54s12-41 19-84zm-5207-1248c71-36 218-86 297-101 39-7 140-17 225-20 223-10 333-40 420-114l35-30-49-1c-59 0-176-19-176-29 0-3 34-23 75-44 41-22 75-42 75-46 0-3-19-13-42-22-24-9-110-44-193-77-269-108-415-118-570-40l-44 23 122 1c108 0 275 19 264 30-2 2-57 17-123 34-65 17-141 41-169 55-49 24-150 103-142 112 2 2 38-5 78-16 97-27 253-40 359-32 95 8 92 11-29 34-82 16-196 63-264 109-56 37-220 198-204 198 4 0 29-11 55-24zm4885-2c-28-43-181-172-247-209-68-37-170-71-246-81-94-12-62-24 68-24 131 0 263 17 340 44 23 8 42 11 42 6 0-16-92-90-145-115-28-14-101-37-161-52-60-14-116-28-124-30-45-16 222-48 318-39l67 6-49-26c-102-54-248-66-386-29-65 17-429 158-430 166 0 6 132 73 160 81 31 10-68 32-142 33-47 0-77 4-75 10s30 28 64 51c87 59 182 82 368 89 83 4 182 11 220 17 77 12 244 66 315 103 58 31 64 31 43-1zm-3348-851c114-37 212-201 238-398 5-34 4-37-6-21-119 191-209 303-302 376-32 25-69 55-84 67l-26 22 65-15c36-8 87-22 115-31zm1923 24c-14-12-58-48-97-80-93-77-174-178-280-347l-22-35 7 50c21 167 110 322 212 372 42 20 168 59 202 62 3 0-7-10-22-22zm-2374-530c132-63 260-213 292-343 6-25-4-18-78 53-47 45-100 88-116 97-29 15-32 15-61-10-17-14-44-53-61-88-78-158-10-380 140-459 92-48 186-28 270 56 79 80 129 233 114 348-4 31-3 49 4 49 6 0 38-30 72-67 103-113 190-328 190-470 0-63-1-63-105-28l-74 26-51-26c-84-42-190-65-304-65-119 1-168 10-253 51-219 104-405 453-342 640 7 19 25 54 41 78s25 48 21 52c-5 5-41 13-80 19-73 10-179 2-256-20-94-27-29 19 103 73 47 19 119 43 160 52s80 19 85 21c6 2 55 2 110 1 92-2 106-5 179-40zm3017 24c128-29 353-121 336-138-3-2-33 3-68 13-80 20-219 23-281 5l-47-13 30-41c66-91 74-214 23-344-88-224-236-370-421-418-72-19-227-19-316 0-38 8-96 28-129 45-72 35-73 35-129 11-24-10-59-22-76-26-33-7-33-6-33 33 0 65 30 201 61 283 35 89 111 203 166 247l39 31-4-87c-3-70 0-99 18-151 41-123 118-212 207-242 42-14 120-6 162 16 113 58 196 241 171 374-18 95-84 191-131 191-22 0-97-56-172-129l-58-56 21 54c29 75 64 132 116 190 139 154 295 200 515 152zm-1472-1572c53-10 72-18 100-46s33-38 27-66c-9-48-39-67-103-67-47 0-59-4-84-29-29-29-29-30-27-133 3-96 1-107-22-140-28-42-68-68-104-68-33 0-88 49-111 100-16 35-17 49-7 103 20 113-6 154-107 166-70 8-101 31-101 73 0 60 28 84 120 104 71 16 334 17 419 3zm-1363-249c190-18 186-28-11-29-258-1-558-22-760-52-229-34-515-98-658-148-77-27-61-6 27 34 313 144 968 235 1402 195zm2774 0c378-28 744-105 934-195 86-41 102-63 25-34-78 30-347 95-509 123-291 51-678 82-937 74-139-4-175 3-90 17 141 24 371 30 577 15z"/><path d="m7485 2868c129-105 288-282 354-390 12-21 25-38 27-38 10 0-30 81-72 141-55 82-197 220-284 278-51 33-57 35-25 9z"/><path d="m2720 2832c-156-112-293-273-325-382-4-14 20 16 54 66 62 94 166 207 281 307 36 31 63 56 60 56s-34-22-70-47z"/></g><text y="1039" fill="#000000" font-family="'Helvetica Neue', Helvetica, Arial-Unicode, Arial, Sans-serif" font-size="5px" font-weight="bold">Created by styleaaa</text><text y="1044" fill="#000000" font-family="'Helvetica Neue', Helvetica, Arial-Unicode, Arial, Sans-serif" font-size="5px" font-weight="bold">from the Noun Project</text></svg>
