<?xml version="1.0" encoding="UTF-8"?>
<svg width="91" height="91" version="1.1" viewBox="5 5 91 91" xml:space="preserve" xmlns="http://www.w3.org/2000/svg"><g style="fill: var(--icon-fill, #000);"><path d="m86.227 71.812c-2.994-4.908-9.186-5.615-13.376-4.063 2.952 0.846 5.148 2.641 7.092 4.942-1.018 0.06-1.969 0.066-2.906 0.179-5.33 0.644-9.804 3.001-13.528 6.834-0.03 0.031-0.059 0.065-0.092 0.094-0.796 0.723-1.24 1.521-1.296 2.693-0.175 3.707-2.136 6.483-5.108 8.501-2.125 1.443-4.42 2.635-6.647 3.925-0.144 0.083-0.397 0.116-0.536 0.046-3.263-1.644-6.513-3.324-9.081-6.004-1.923-2.007-2.926-4.419-2.934-7.228-1e-3 -0.294-0.125-0.652-0.317-0.871-4.471-5.098-9.99-8.029-16.877-8.106-0.131-1e-3 -0.262-7e-3 -0.393-0.014-0.015-1e-3 -0.029-0.026-0.088-0.084 0.876-1.138 1.875-2.173 3.074-2.957 1.173-0.767 2.445-1.383 3.601-2.024-3.988-2.038-10.099-0.189-13.151 4.222-0.317-1.386-0.661-2.632-0.883-3.9-1.102-6.275 0.032-12.26 2.433-18.064 1.268-3.065 2.915-5.917 4.949-8.538 0.251-0.324 0.148-0.534 0.011-0.812-1.429-2.906-2.638-5.898-3.471-9.032-1.634-6.151-1.761-12.36-0.564-18.586 0.465-2.417 1.177-4.786 1.783-7.175 0.058-0.233 0.163-0.451 0.289-0.79 1.407 0.968 2.785 1.88 4.125 2.844 6.705 4.823 12.523 10.572 17.625 17.051 0.466 0.591 0.878 0.754 1.625 0.613 5.799-1.093 11.6-1.142 17.383 0.135 0.413 0.091 0.588-0.104 0.802-0.374 3.327-4.214 6.921-8.182 10.924-11.768 3.459-3.098 7.142-5.902 11.135-8.437 0.114 0.279 0.237 0.523 0.316 0.779 1.737 5.615 2.708 11.336 2.431 17.239-0.25 5.333-1.604 10.385-3.77 15.239-0.338 0.758-0.718 1.498-1.025 2.268-0.082 0.205-0.053 0.555 0.076 0.727 3.677 4.934 6.176 10.39 7.271 16.455 0.812 4.497 0.708 8.964-0.664 13.36-0.065 0.208-0.143 0.412-0.238 0.681zm-47.377-18.859c-0.309-0.15-0.445-0.218-0.583-0.282-4.848-2.267-9.624-2.106-14.226 0.611-3.231 1.907-5.221 4.903-6.677 8.282-0.334 0.775-0.602 1.578-0.9 2.368 3.41-3.841 7.99-4.695 10.258-4.171-1.976 1.168-3.813 2.492-5.407 4.26 2.762 5e-3 5.348 0.479 7.861 1.368 2.497 0.883 4.866 2.012 7.035 3.553-2.964 0.026-5.853 0.23-8.561 1.839 0.626 0.192 1.151 0.33 1.66 0.514 4.514 1.639 8.188 4.45 11.222 8.129 0.222 0.269 0.367 0.694 0.359 1.043-0.053 2.322 0.321 4.485 2.014 6.244 1.974 2.051 4.417 3.406 6.906 4.693 0.144 0.074 0.398 0.061 0.545-0.017 2.124-1.13 4.22-2.305 6.038-3.909 1.731-1.528 2.774-3.439 2.674-5.747-0.065-1.501 0.481-2.536 1.456-3.568 3.216-3.403 6.911-6.012 11.484-7.251 0.066-0.018 0.118-0.089 0.212-0.163-2.675-1.541-5.566-1.787-8.523-1.83 4.523-2.984 9.406-4.855 14.898-4.924 0.024-0.074 0.049-0.148 0.073-0.222-1.786-1.375-3.572-2.75-5.294-4.077 2.879-0.648 6.196 0.721 10.123 4.282-0.064-0.239-0.088-0.433-0.166-0.601-0.772-1.659-1.412-3.399-2.356-4.954-3.705-6.106-9.885-8.221-16.073-6.888-1.279 0.276-2.495 0.848-3.839 1.318 0.411-0.836 0.767-1.672 1.216-2.455 1.832-3.194 4.633-5.412 7.703-7.488-6.788 1.834-15.097 6.961-20.05 19.908-1.771-4.65-4.115-8.882-7.521-12.469-3.432-3.614-7.601-5.987-12.353-7.406 3.71 2.585 7.154 5.393 8.792 10.01zm-18.119-42.881c3.191 7.184 7.189 13.873 12.075 20.117-1.756-0.54-3.512-1.081-5.443-1.675 0.908 2.794 1.779 5.473 2.65 8.152-6.122-4.911-8.803-11.747-10.619-19.173-0.793 7.002 1.567 18.746 4.55 22.823 4.017-2.691 6.996-3.26 12.449-2.351-1.401-1.977-3.11-3.578-5.093-5.063 2.123-0.133 4.059 0.113 5.902 0.762 1.825 0.643 3.585 1.47 5.351 2.207-5.674-9.888-13.097-18.386-21.822-25.799zm49.313 26.621c0.86-2.739 1.698-5.407 2.561-8.155-1.901 0.581-3.64 1.113-5.38 1.644 2.419-3.17 4.61-6.405 6.631-9.756 2.018-3.346 3.901-6.764 5.418-10.377-8.721 7.478-16.226 15.957-21.855 26.004 4.137-2.641 9.209-3.477 11.229-3.086-0.605 0.494-1.23 0.965-1.809 1.487-0.6 0.541-1.176 1.113-1.726 1.705-0.516 0.556-0.985 1.155-1.587 1.868 4.685-1.201 8.791-0.314 12.575 2.261 3.497-7.191 5.2-14.691 4.469-22.717-0.055 0.088-0.1 0.135-0.116 0.19-0.037 0.125-0.061 0.254-0.089 0.382-1.212 5.433-3.218 10.515-6.666 14.95-1.045 1.342-2.207 2.576-3.655 3.6z"/><path d="m71.444 53.591c-1.144 0.922-2.317 1.851-3.466 2.81-0.18 0.15-0.322 0.421-0.361 0.656-0.642 3.927-2.999 6.238-6.781 7.176-0.636 0.158-0.91 0.388-1.014 1.08-0.465 3.087-1.013 6.161-1.534 9.24-0.017 0.099-0.063 0.193-0.204 0.284-0.174-1.434-0.375-2.866-0.518-4.304-0.436-4.391-0.199-8.727 1.114-12.972 0.144-0.466 0.356-0.8 0.785-1.054 3.439-2.037 7.106-3.216 11.147-3.02 0.316 0.016 0.627 0.078 0.832 0.104zm-8.777 7.379c1.06 6e-3 1.922-0.878 1.922-1.972 0-1.012-0.852-1.896-1.848-1.917-1.088-0.023-1.971 0.829-1.976 1.908-6e-3 1.111 0.824 1.975 1.902 1.981z"/><path d="m28.536 53.581c1.436-0.219 2.935-0.186 4.425 0.071 2.697 0.466 5.22 1.412 7.541 2.864 0.3 0.188 0.583 0.544 0.689 0.88 1.196 3.795 1.625 7.684 1.279 11.648-0.156 1.784-0.379 3.561-0.574 5.342-0.013 0.123-0.045 0.243-0.195 0.375-0.191-1.138-0.383-2.277-0.573-3.415-0.352-2.111-0.712-4.221-1.045-6.335-0.063-0.401-0.209-0.584-0.618-0.7-0.858-0.243-1.721-0.51-2.526-0.888-2.539-1.193-4.013-3.225-4.482-5.978-0.092-0.543-0.263-0.995-0.703-1.337-1.077-0.841-2.15-1.688-3.218-2.527zm10.658 5.464c8e-3 -1.097-0.847-1.984-1.915-1.988-1.008-4e-3 -1.919 0.912-1.924 1.936-5e-3 1.049 0.852 1.949 1.877 1.971 1.112 0.022 1.954-0.801 1.962-1.919z"/><path d="m50.397 77.059c1.363 0.013 2.827 0.537 4.019 1.726 1.616 1.612 1.865 3.883 0.649 5.818-2.197 3.498-7.761 3.548-10.02 0.09-1.46-2.235-0.919-4.982 1.286-6.524 1.059-0.741 2.45-1.154 4.066-1.11zm3.347 4.224c-0.696-1.583-2.046-2.301-4.065-2.225-1.644 0.062-2.949 0.89-3.415 2.189 2.473 1.295 4.944 1.273 7.48 0.036z"/></g><text y="115" fill="#000000" font-family="'Helvetica Neue', Helvetica, Arial-Unicode, Arial, Sans-serif" font-size="5px" font-weight="bold">Created by Maxim Kulikov</text><text y="120" fill="#000000" font-family="'Helvetica Neue', Helvetica, Arial-Unicode, Arial, Sans-serif" font-size="5px" font-weight="bold">from the Noun Project</text></svg>
