<?xml version="1.0" encoding="UTF-8"?>
<svg width="92" height="92" enable-background="new 0 0 100 100" version="1.1" viewBox="4 4 92 92" xml:space="preserve" xmlns="http://www.w3.org/2000/svg"><g style="fill: var(--icon-fill, #000);"><path d="m31.034 47.261c-0.737 0.937-1.414 1.965-2.255 2.835-2.219 2.295-4.884 3.028-7.985 2.087-1.92-0.582-2.426-0.595-3.841-0.33-0.021-0.054-0.042-0.107-0.063-0.161 0.981-0.383 1.961-0.766 2.999-1.172-2.424-1.393-4.895-2.78-7.049-4.883 1.361 0.245 2.319-0.354 3.268-0.971 0.859-0.558 1.69-1.163 2.57-1.684 2.196-1.3 4.333-1.239 6.407 0.325 0.91 0.686 1.828 1.386 3 1.604 1.439 0.268 2.322-0.246 2.763-1.646 0.114-0.361 0.189-0.733 0.303-1.184-0.93-0.072-1.823-0.142-2.716-0.21-3.293-0.253-6.548-0.741-9.679-1.819-4.553-1.567-8.079-4.337-9.991-8.884-1.377-3.276-1.517-6.678-0.841-10.12 1.221-6.217 4.739-10.933 9.728-14.659 0.659-0.492 1.351-0.94 2.099-1.355-0.071 0.123-0.136 0.25-0.214 0.367-2.171 3.256-3.847 6.726-4.511 10.619-0.627 3.68-0.131 7.137 2.208 10.171 1.964 2.548 4.616 3.786 7.795 3.97 0.1 6e-3 0.202-5e-3 0.301 9e-3 1.188 0.167 2.2-0.076 2.956-1.111 0.485-0.663 1.151-0.782 1.978-0.597 4.817 1.075 9.34 2.796 13.28 5.85 0.149 0.116 0.305 0.223 0.572 0.418-0.258-1.285-1.143-1.951-1.885-2.711 1.881-1.716 5.276 0.127 6.263 3.454 0.613-2.021 0.198-3.785-0.815-5.372 0.919 0.094 1.848 0.176 2.773 0.287 3.098 0.37 5.308 2.356 6.036 5.41 0.046 0.193 0.094 0.385 0.181 0.736 1.389-4.155-0.336-6.996-3.473-9.373 1.731 0.393 3.363 0.798 5.01 1.129 3.621 0.729 7.263 0.807 10.917 0.262 0.358-0.053 0.719-0.172 1.071-0.146 0.375 0.027 0.742 0.184 1.109 0.296 0.071 0.022 0.143 0.087 0.185 0.151 0.973 1.507 2.462 1.424 3.965 1.288 5.868-0.532 8.904-5.2 9.527-9.392 0.472-3.181-0.261-6.186-1.388-9.127-0.888-2.314-2.076-4.472-3.37-6.622 0.298 0.193 0.598 0.383 0.892 0.581 4.85 3.262 8.443 7.523 10.297 13.124 1.257 3.797 1.492 7.644 0.175 11.483-1.606 4.678-4.878 7.738-9.419 9.531-2.596 1.026-5.31 1.563-8.064 1.907-1.634 0.204-3.281 0.306-4.923 0.456-0.116 0.011-0.23 0.036-0.381 0.061 0.115 0.437 0.201 0.849 0.333 1.245 0.423 1.267 1.424 1.89 2.718 1.553 0.741-0.193 1.444-0.577 2.123-0.95 0.667-0.366 1.261-0.862 1.923-1.238 1.653-0.941 3.347-0.934 4.998-0.019 0.963 0.534 1.863 1.184 2.793 1.778 0.389 0.248 0.759 0.553 1.182 0.715 0.655 0.251 1.348 0.402 2.028 0.596-1.933 1.91-4.398 3.306-6.853 4.699 1.005 0.393 1.991 0.779 2.977 1.165-0.019 0.063-0.038 0.127-0.057 0.19-1.238-0.404-2.427-0.127-3.615 0.206-1.442 0.404-2.896 0.705-4.395 0.337-2.119-0.52-3.66-1.863-4.944-3.543-0.406-0.531-0.735-1.121-1.128-1.727-0.328 1.546-0.22 3.043 0.248 4.479 0.696 2.135 1.485 4.241 2.274 6.344 1.813 4.828 1.319 9.541-0.648 14.191-0.021 0.05-0.063 0.091-0.137 0.133 0.698-2.722 0.636-5.4-0.42-8.047 0.27 4.976-1.824 9.211-4.111 13.39 0.546-2.731 0.735-5.448-0.13-8.219-0.069 0.134-0.124 0.213-0.154 0.3-0.655 1.893-1.32 3.784-1.956 5.683-0.464 1.386-0.866 2.793-1.333 4.178-1.208 3.576-3.504 6.376-6.33 8.791-0.037 0.032-0.095 0.041-0.085 0.037 0.408-1.489 0.822-3.002 1.236-4.514-4.226 2.525-6.112 6.533-7.394 11.104-0.681-2.297-1.435-4.391-2.584-6.327-1.16-1.955-2.765-3.466-4.649-4.872 0.079 1.694 0.635 3.16 1.146 4.684-0.375-0.315-0.764-0.615-1.121-0.949-2.974-2.787-5.108-6.06-5.955-10.111-0.174-0.833-0.598-1.613-0.894-2.422-0.665-1.82-1.321-3.643-1.975-5.448-0.792 2.667-0.614 5.39 0.01 8.122-2.444-4.141-4.485-8.399-4.147-13.392-0.048-0.014-0.097-0.028-0.145-0.043-0.215 0.84-0.507 1.67-0.625 2.524-0.125 0.91-0.152 1.847-0.099 2.764 0.052 0.894 0.261 1.779 0.339 2.705-0.174-0.416-0.362-0.827-0.519-1.249-1.791-4.809-1.718-9.559 0.28-14.32 0.835-1.988 1.446-4.077 2.051-6.152 0.315-1.082 0.264-2.23-0.021-3.253zm10.021 15.065c1.18-0.523 2.307-0.978 3.567-0.921 1.34 0.061 2.31 0.71 3.105 1.784-0.98-0.17-1.875-0.405-2.782-0.468-2.955-0.204-5.542 1.512-6.47 4.219-0.955 2.787 0.02 5.944 2.459 7.511 1.76 1.13 3.749 1.561 5.856 1.505 2.027-0.054 4.057 6e-3 6.085-0.038 1.037-0.023 2.099-0.047 3.104-0.274 3.85-0.868 5.914-3.514 5.717-7.194-0.158-2.94-2.569-5.418-5.498-5.707-1.407-0.139-2.75 0.04-4.056 0.561 1.844-2.59 4.183-2.168 6.655-1.056-0.261-0.404-0.504-0.78-0.818-1.081-1.666-1.593-3.35-3.167-4.927-4.653 0.326 1.383 1.515 2.271 2.684 3.203-1.157-0.365-2.339-0.67-3.378-1.238-1.621-0.886-3.117-0.888-4.743-0.03-1.052 0.555-2.222 0.887-3.34 1.318 2.259-2.217 2.558-2.595 2.606-3.48-1.552 2.381-4.297 3.557-5.826 6.039zm13.667-9.544c0.32-0.892 0.577-1.781 0.952-2.618 0.82-1.83 2.12-3.236 4.138-3.635 2.049-0.405 3.454-1.525 4.404-3.305 0.992-1.86 2.537-2.959 4.569-3.424 1.104-0.253 2.205-0.52 3.397-0.802-0.193-0.315-0.332-0.602-0.525-0.846-1.1-1.392-2.566-2.11-4.318-2.188-2.296-0.102-4.14 0.982-5.817 2.394-2.234 1.881-3.743 4.324-5.238 6.79-1.442 2.377-1.828 4.932-1.562 7.634zm-9.583 0.023c0.13-2.348 0.087-4.587-1.078-6.598-1.035-1.786-2.111-3.561-3.321-5.231-1.357-1.872-3.075-3.401-5.209-4.378-2.743-1.256-5.56-0.643-7.219 1.543-0.186 0.245-0.326 0.524-0.523 0.845 0.965 0.216 1.817 0.423 2.676 0.597 2.378 0.483 4.247 1.653 5.331 3.901 0.061 0.126 0.144 0.242 0.219 0.36 0.86 1.35 2.044 2.246 3.624 2.587 2.177 0.47 3.622 1.833 4.531 3.798 0.368 0.795 0.622 1.642 0.969 2.576zm-32.91-35.559c-0.048 0.086-0.101 0.169-0.142 0.257-1.518 3.284-2.17 6.722-1.682 10.32 0.525 3.868 2.294 6.981 5.735 9.017 2.416 1.429 5.038 2.263 7.786 2.745 0.536 0.094 1.076 0.166 1.655 0.254-0.048-0.411-0.083-0.706-0.113-0.959-1.064-0.236-2.095-0.408-3.092-0.696-6.269-1.815-10.638-7.544-10.904-14.23-0.092-2.269 0.209-4.483 0.757-6.708zm75.479 0.027c1.349 4.875 1.226 9.607-1.371 14.06-2.62 4.493-6.627 6.921-11.775 7.521-0.025 0.35-0.046 0.641-0.069 0.972 0.249-0.012 0.452 5e-3 0.642-0.035 1.255-0.264 2.526-0.478 3.758-0.827 2.471-0.699 4.819-1.694 6.774-3.412 2.361-2.075 3.555-4.773 3.938-7.844 0.459-3.675-0.272-7.147-1.897-10.435zm-50.332 48.851c0.096-1.262 0.183-2.524 0.29-3.785 0.153-1.801 0.254-3.609 0.503-5.397 0.19-1.368 0.83-2.556 2.017-3.367 0.935-0.639 1.735-0.382 2.144 0.678 0.08 0.209 0.145 0.424 0.218 0.636 0.062-0.019 0.123-0.039 0.185-0.058-0.186-0.622-0.301-1.278-0.572-1.86-0.559-1.2-1.548-1.662-2.86-1.468-0.475 0.07-0.958 0.15-1.435 0.136-1.261-0.037-1.988-0.905-1.795-2.082-0.471-0.147-0.942-0.294-1.461-0.457-0.627 1.554-1.027 3.117 0.129 4.555 0.496 0.617 1.238 1.055 1.922 1.491 0.306 0.195 0.471 0.346 0.48 0.718 0.015 0.601 0.092 1.201 0.137 1.802 0.06 0.797 0.113 1.594 0.169 2.391-1.391-2.807-3.025-5.434-3.901-6.043 2.146 3.801 3.379 7.833 3.83 12.11zm25.222-0.096c0.432-4.303 1.698-8.325 3.756-12.106-1.625 1.898-3.007 3.93-3.851 6.291-0.01-0.747 0.011-1.47 0.061-2.19 0.05-0.721 0.164-1.439 0.18-2.16 9e-3 -0.404 0.141-0.574 0.511-0.734 1.782-0.768 2.715-2.24 2.522-4.021-0.072-0.666-0.308-1.314-0.476-1.994-0.292 0.1-0.496 0.178-0.706 0.24-0.227 0.067-0.459 0.119-0.689 0.177 0.197 0.795-0.05 1.476-0.834 1.77-0.593 0.222-1.275 0.242-1.922 0.276-0.513 0.027-1.05-0.164-1.545-0.078-1.501 0.263-2.509 1.912-2.304 3.694 0.066-0.248 0.117-0.461 0.179-0.671 0.406-1.369 1.32-1.681 2.445-0.812 1.296 1.001 1.848 2.402 1.99 3.974 0.25 2.779 0.457 5.563 0.683 8.344zm15.965-18.867c-1.429-0.433-2.684-0.509-3.981 0.168 1.29 0.332 1.644 0.559 1.972 1.163-0.703 0.102-1.443 0.201-2.18 0.319-0.733 0.118-1.464 0.256-2.213 0.388 2.016 1.724 3.829 1.901 5.821 0.54 0.464-0.317 0.902-0.675 1.385-0.96 1.371-0.81 2.759-1.593 4.121-2.375-0.958-1.199-3.74-2.17-5.418-1.803 1.58 0.404 2.292 0.789 2.711 1.467-2.38-0.66-4.166-0.746-4.94-0.199 1.13-0.145 1.95 0.301 2.722 1.292zm-56.428-2.572c-2.19-0.134-4.151 0.388-5.881 1.994 1.998 0.538 3.56 1.626 5.092 2.775 0.4 0.3 0.846 0.539 1.279 0.793 1.653 0.969 3.833 0.336 5.129-0.981-1.452-0.22-2.918-0.442-4.382-0.663 0.375-0.761 1.148-0.944 2.018-1.134-1.32-0.684-2.583-0.626-3.967-0.246 0.721-1.028 1.599-1.385 2.689-1.312-1.654-0.574-3.262-0.252-4.956 0.283 0.837-0.996 1.894-1.276 2.979-1.509zm36.465 32.094c-2.765 1.161-5.616 1.869-8.629 1.89-3.026 0.021-5.872-0.73-8.673-1.84 1.775 1.114 3.568 2.175 5.442 3.07 1.383 0.66 2.916 0.691 4.434 0.504 2.889-0.355 5.075-2.153 7.426-3.624zm-16.734-25.499c-0.206-1.467-1.774-3.01-3.153-3.158-1.153-0.124-2.324-0.149-3.378-0.733-1.061-0.589-1.851-1.435-2.437-2.517 0.033 0.623 0.066 1.241 0.248 1.812 0.439 1.373 1.325 1.959 2.764 1.92 0.26-7e-3 0.519-0.046 0.779-0.072 2.151-0.219 3.873 0.442 4.957 2.415 0.052 0.096 0.12 0.184 0.22 0.333zm16.197-0.048c0.019-7e-3 0.046-8e-3 0.054-0.021 0.061-0.103 0.117-0.209 0.177-0.312 0.779-1.348 1.865-2.266 3.481-2.346 0.819-0.04 1.648 0.088 2.464 0.025 0.513-0.039 1.086-0.183 1.499-0.47 0.883-0.614 1.37-2.106 1.183-3.196-0.017 7e-3 -0.041 0.01-0.049 0.023-0.05 0.086-0.1 0.172-0.145 0.261-0.753 1.479-1.972 2.348-3.575 2.678-0.627 0.129-1.272 0.167-1.908 0.251-1.474 0.191-2.943 1.628-3.181 3.107zm-20.676-1.987c-0.18 0.238-0.377 0.386-0.361 0.506 0.019 0.15 0.213 0.277 0.332 0.414 0.13-0.127 0.338-0.239 0.365-0.385 0.023-0.121-0.167-0.282-0.336-0.535zm25.699 0.506c-0.259-0.161-0.4-0.316-0.538-0.314-0.127 2e-3 -0.25 0.174-0.375 0.272 0.128 0.147 0.232 0.349 0.393 0.418 0.079 0.033 0.264-0.183 0.52-0.376z"/><path d="m41.329 28.745c-1.612-0.371-3.191-0.732-4.769-1.101-0.272-0.064-0.542-0.148-0.803-0.247-0.77-0.293-0.859-0.401-1.159-1.307-3.328 1.509-5.442 1.066-6.718-1.464 0.149 0.05 0.254 0.074 0.349 0.118 2.013 0.921 4.01 0.79 6.001-0.076 0.572-0.249 0.988-0.631 1.311-1.179 1.559-2.638 3.616-4.759 6.448-6.041 1.743-0.789 3.575-1.168 5.512-1.099-0.184 0.054-0.367 0.11-0.552 0.16-0.193 0.052-0.391 0.089-0.582 0.148-2.153 0.669-4.077 1.695-5.449 3.556-0.786 1.065-1.236 2.24-1.084 3.773 2.96-3.658 6.844-5.002 11.314-5.171-0.803 0.887-1.555 1.718-2.308 2.549 0.039 0.04 0.079 0.08 0.118 0.119 0.883-0.162 1.761-0.363 2.65-0.478 3.151-0.409 6.15 0.201 9.058 1.402 1.964 0.811 3.92 1.649 5.917 2.371 1.907 0.689 3.838 0.83 5.683-0.343-0.498 1.07-1.342 1.775-2.324 2.329-1.561 0.88-3.245 0.791-4.935 0.566-2.792-0.372-5.396-1.373-7.975-2.437-2.819-1.163-5.646-1.277-8.504-0.165-0.037 0.015-0.077 0.023-0.114 0.039-1.541 0.646-1.793 1.118-1.423 2.852-0.792-1.114-1.532-2.103-1.644-3.49-1.633 0.207-3.113 0.658-4.15 2.011-0.438 0.572-0.398 1.243-0.163 1.9 0.088 0.242 0.199 0.477 0.295 0.705z"/><path d="m40.977 69.84c-0.632-1.373 0.2-3.723 1.531-4.309 0.168-0.074 0.485 0.029 0.659 0.153 1.223 0.875 2.392 1.829 3.644 2.659 2.094 1.388 4.25 1.344 6.329-0.033 1.236-0.819 2.406-1.74 3.578-2.651 0.308-0.239 0.535-0.274 0.854-0.079 1.139 0.692 1.89 2.851 1.401 4.074-0.028 0.069-0.093 0.124-0.137 0.181-1.919-0.664-3.79 0.512-3.923 2.448-0.069 1.004 0.646 1.631 1.638 1.385 0.413-0.102 0.795-0.33 1.168-0.491-0.259 0.92-1.068 1.594-2.208 1.636-0.897 0.033-1.824 0.021-2.696-0.167-1.885-0.406-3.739-0.385-5.621-8e-3 -1.12 0.224-2.265 0.39-3.402 0.05-0.784-0.235-1.27-0.771-1.621-1.685 0.644 0.488 1.163 0.83 1.865 0.647 0.732-0.19 1.05-0.601 0.955-1.354-0.253-2.028-1.987-3.101-4.014-2.456z"/></g><text y="115" fill="#000000" font-family="'Helvetica Neue', Helvetica, Arial-Unicode, Arial, Sans-serif" font-size="5px" font-weight="bold">Created by Maxim Kulikov</text><text y="120" fill="#000000" font-family="'Helvetica Neue', Helvetica, Arial-Unicode, Arial, Sans-serif" font-size="5px" font-weight="bold">from the Noun Project</text></svg>
