<?xml version="1.0" encoding="UTF-8"?>
<svg width="1e3" height="1e3" version="1.1" viewBox="0 2 1e3 1e3" xml:space="preserve" xmlns="http://www.w3.org/2000/svg"><g style="fill: var(--icon-fill, #000);"><path d="m812.25 245.41c-33.708 21.642-68.135 40.772-105.76 52.328-55.555 17.062-100.7 51.009-145.69 85.538-21.217 16.286-41.207 34.082-61.39 52.641-9.0264-8.0327-17.953-16.047-26.955-23.976-44.651-39.323-92.583-73.94-145.49-101.43-5.366-2.7875-10.818-5.2211-16.662-6.9208-43.617-12.685-83.432-33.428-121.9-57.877-3.8422 2.9073-6.5103 7.0058-9.011 11.06-42.352 68.653-54.324 141.38-25.987 218.05 29.141 78.845 107.73 127.36 191.5 119.62 30.119-2.7803 57.984-12.515 82.359-31.434-1.9304 5.4637-5.4118 9.9016-9.0284 14.15-24.423 28.691-55.997 44.139-92.983 48.126-66.295 7.1476-120.08-18.626-164.29-66.017-89.29-95.713-76.894-240.72 3.8072-325.72 0.62709-0.66052 1.1691-1.4019 2.1054-2.5346-61.466-52.259-89.71-116.39-70.282-197.58 13.246 85.427 60.462 147 133.74 190.81-1.2294-1.4465-2.2016-2.7177-3.308-3.8587-1.2939-1.3344-2.7152-2.5444-4.0635-3.8271-24.88-23.669-48.022-48.771-63.329-79.96-19.743-40.229-23.956-82.081-12.073-125.41 0.2979-1.0862 0.81558-2.112 1.6416-4.209 15.085 85.829 68.698 140.94 139.68 181.58 139.88-23.893 279.65-24.23 422.22 0.0174 3.307-2.2094 9.1561-5.9299 14.81-9.9272 22.384-15.826 45.654-30.512 64.329-51.052 30.895-33.98 51.304-73.19 59.952-118.6 2.419 1.8754 2.1903 4.9843 3.0264 7.5418 0.9328 2.8531 1.4909 5.8479 1.9996 8.8175 9.2121 53.776-4.3326 101.73-36.986 144.84-14.364 18.967-31.152 35.687-48.447 52.536 14.761-2.923 71.281-52.507 89.479-78.816 23.192-33.528 37.458-70.62 43.52-110.84 18.859 80.291-8.3525 144.74-69.468 197.89 11.669 12.731 21.866 26.185 30.721 40.673 53.559 87.635 47.559 198.56-15.856 276.78-33.036 40.75-74.832 68.173-127.46 76.147-46.495 7.0441-89.227-2.1251-125.85-33.346-9.6407-8.2188-17.634-17.8-24.057-28.746 0.45844-0.19263 0.94867-0.53669 1.077-0.43299 34.154 27.585 73.836 37.083 116.43 32.215 75.248-8.5998 128.92-48.116 157.22-118.64 24.263-60.465 18.61-121.11-5.2238-180.69-7.0174-17.541-16.26-33.867-28.07-49.527zm-128.62-27.613c-34.121 6.6657-62.838 20.451-91.474 39.758-31.163 21.011-62.038 42.446-93.195 63.466-30.314-20.506-60.358-41.339-90.45-62.158-28.406-19.652-58.657-34.84-92.88-41.067 64.495 55.399 120.6 117.45 183.93 172.03 63.95-54.078 118.4-117.56 184.07-172.03z"/><path d="m443.31 547.46c12.311-25.104 24.463-49.884 36.878-75.199-12.945-10.128-25.452-20.712-39.607-30.44-1.584 4.1867-2.8569 7.8255-4.323 11.385-19.271 46.782-67.875 74.785-119.2 68.704-46.34-5.4894-88.445-47.462-95.763-95.229-4.1811-27.291-0.1736-53.208 12.193-77.865 0.92675-1.8477 1.7637-3.7405 2.8288-6.0093-22.963-21.196-35.803-47.11-37.018-78.573 1.7972 0.48676 1.9061 2.075 2.4053 3.2039 18.648 42.171 49.973 70.332 94.539 81.924 72.949 18.975 134.7 56.969 189.33 107.8 4.4034 4.0977 8.9192 8.0745 13.743 12.433 9.3184-8.299 18.387-16.546 27.636-24.584 41.194-35.798 85.971-65.728 137.87-83.967 18.395-6.4644 37.577-10.507 55.671-17.845 35.45-14.377 61.003-39.191 77.013-73.891 0.75818-1.6431 1.5172-3.2858 2.4561-5.319 2.0626 25.18-11.623 56.692-36.926 79.141 5.4881 11.504 10.608 23.346 13.464 36.079 13.948 62.194-23.994 125.28-84.615 140.41-55.269 13.792-114.32-18.847-132.32-73.129-0.42144-1.2709-0.1961-2.8482-2.4919-4.0678-12.656 9.7836-25.602 19.792-38.988 30.14 12.384 25.302 24.611 50.282 37.015 75.626-18.283 43.046-36.656 86.306-55.779 131.33-19.106-45.044-37.453-88.3-56.014-132.06zm-174.87-182.72c-26.588 40.153-5.8129 98.282 38.666 114.86 42.845 15.97 98.686-15.312 100.27-63.26-5.1978-3.4924-10.513-7.0637-16.086-10.808-3.6007 31.416-27.033 59.947-60.619 59.102-34.574-0.87015-63.644-39.575-52.028-72.862 9.9442 2.4005 19.944 4.8145 30.212 7.2929 1.22-7.2568 4.62-13.241 4.6312-20.224-15.194-4.4718-30.244-8.2823-45.044-14.101zm462.12-0.46906c-14.706 6.6802-30.219 9.751-45.354 14.545 1.6841 6.9173 3.2607 13.393 4.9421 20.299 10.372-2.609 20.386-5.1278 30.368-7.6388 10.242 31.059-13.482 65.797-44.383 72.152-37.01 7.6117-65.775-23.465-68.195-58.149-6.3745 4.0789-11.774 7.5339-17.117 10.953 5.1826 47.161 53.354 79.5 98.808 63.72 44.958-15.609 67.897-75.22 40.932-115.88z"/><path d="m440.16 982.5c-38.332-16.318-67.904-43.66-95.949-73.996 2.7671 9.2893 5.3452 18.64 8.3538 27.851 3.0965 9.4796 6.364 18.92 10.016 28.197 3.6155 9.1847 7.8041 18.144 12.135 28.108-10.314-4.5675-19.137-9.9801-27.727-15.726-90.054-60.245-163.38-136.14-214.82-232.01-39.879-74.322-52.699-154.05-44.502-237.55 0.38527-3.9246 1.145-7.8145 1.7983-11.709 0.19038-1.1349 0.61646-2.2304 1.0613-3.7878 2.8863 2.2001 3.7202 5.3882 5.2175 8.0544 29.493 52.519 66.252 98.819 115.55 134.24 32.119 23.077 67.474 38.892 106.57 45.915 2.0279 0.3642 3.9997 1.04 6.0713 1.5902-10.649 119.47 32.545 217.87 116.23 300.82zm-127.03-63.445c-18.856-33.678-36.008-68.468-48.245-105.14-12.297-36.856-19.75-75.169-23.973-113.75-7.5754-4.5195-15.144-9.0347-23.572-14.063 0.45737 38.359 5.4355 74.62 14.89 110.4-34.656-44.818-56.112-95.233-65.224-150.27-9.9766-8.1544-19.836-16.413-29.625-24.791 13.004 127.7 83.37 219.13 175.75 297.62z"/><path d="m674.74 681.83c113.17-20.862 181.27-95.844 234.35-190.2 3.7551 9.249 3.841 21.129 4.4868 30.983 0.72589 11.074 1.1462 22.162 1.0955 33.26-0.0882 19.294-1.4821 38.584-4.2493 57.679-5.5568 38.344-16.729 75.76-32.769 111.02-32.945 72.413-86.035 136.98-144.48 190.41-32.823 30.002-68.849 56.435-107.74 78.037 13.121-27.736 22.499-55.155 28.629-83.764-25.867 29.046-56.862 58.921-93.704 73.27 37.235-41.178 70.018-83.313 91.14-135.16 21.406-52.541 28.606-109.21 23.235-165.53zm10.375 236.65c2.8216 0.10455 3.691-1.4729 4.8841-2.4424 16.629-13.512 32.439-27.932 47.263-43.4 48.977-51.102 88.912-107.9 110.33-176.25 7.4849-23.892 12.077-48.349 14.451-74.552-8.5397 7.2316-15.919 13.889-23.763 19.946-3.7722 2.9125-5.7688 6.1646-6.6183 10.773-8.1905 44.431-25.065 85.43-49.372 123.41-4.7246 7.3828-9.6539 14.672-16.091 21.021 5.339-17.832 9.1214-35.915 11.522-54.266 2.3968-18.32 3.9894-36.698 3.4709-56.321-4.7278 2.9627-8.3949 5.2967-12.098 7.5714-3.7248 2.2878-7.486 4.5167-11.126 6.7078-7.274 78.362-31.648 150.56-72.851 217.8z"/><path d="m572.59 735.95c32.925 37.675 44.528 88.868 27.765 136.55-15.048 42.808-52.041 73.313-94.137 87.841 29.268-26.361 57.544-58.605 70.744-96.289 14.597-41.672 10.292-87.146-4.3721-128.11z"/><path d="m491.55 959.65c-48.297-19.038-85.271-49.006-96.647-101.61-9.7795-45.223 0.78461-86.36 31.414-122.08-32.34 90.437-5.2889 163.27 65.233 223.7z"/><path d="m487.91 912.94c-49.767-33.208-66.797-124.27-17.947-175.87-20.608 61.418-13.192 119.35 17.947 175.87z"/><path d="m510.45 913.49c28.484-45.281 42.157-113.88 19.882-174.56 45.514 32.331 33.808 141.12-19.882 174.56z"/></g><text y="1015" fill="#000000" font-family="'Helvetica Neue', Helvetica, Arial-Unicode, Arial, Sans-serif" font-size="5px" font-weight="bold">Created by Brad</text><text y="1020" fill="#000000" font-family="'Helvetica Neue', Helvetica, Arial-Unicode, Arial, Sans-serif" font-size="5px" font-weight="bold">from the Noun Project</text></svg>
