<?xml version="1.0" encoding="UTF-8"?>
<svg width="385.05" height="374.08" version="1.1" viewBox="0 0 385.05 374.08" xmlns="http://www.w3.org/2000/svg"><g style="fill: var(--icon-fill, #fff);" transform="translate(-65.6,-72.96)"><path transform="matrix(.8 0 0 .8 51.2 51.2)" d="m149.9 27.2-115.65 29.54v76.76l123.55-39.65 46.7-44.67zm132.8 57c-7.4 0.18-10.1 1.88 0.9 7.13 63.3 30.27 158.1 115.47 107.7 125.57-159.1 32.1-260.9 75.4-342.79 173.9-23.09 27.8-30.51 104-30.51 104h432.6s-139-21.1-147.8-75.7c-14.9-92.2 194.5-102.7 196.5-199.9 0.9-43.2-88.3-124.99-184.4-132.52-5.6-0.44-22.7-2.71-32.2-2.48zm-163.5 40.9-32.69 10.5v122.2l35.99-10z"/></g></svg>
