<?xml version="1.0" encoding="UTF-8"?>
<svg width="373.35" height="355.11" version="1.1" viewBox="0 0 373.35 355.11" xmlns="http://www.w3.org/2000/svg"><g style="fill: var(--icon-fill, #fff);" transform="translate(-69.312 -83.286)"><path transform="matrix(.8 0 0 .8 51.2 51.2)" d="m267.9 330.5h-23.8l-12.1-40.9-63.8-19.8 1 39.4 41.9 47.3 16.1-14.3 12.2 141.8-109.2-122.2 19.4-58.2-10.4-125.2 23.1-9.8c18.4 71.3 73.1 96.4 73.1 96.4l20.6-28.9 20.6 28.9s54.7-25.1 73.1-96.4l23.1 9.8-10.4 125.2 19.4 58.2-109.2 122.2 12.2-141.8 16.1 14.3 41.9-47.3 1-39.4-63.8 19.8zm125.8 64.8-74.8 76.7 56.8-28 6.1 24 51.6-36zm-275.4 0 74.8 76.7-56.8-28-6.1 24-51.6-36zm266.5-117.7 101.2-58.3c20-188.3-53.6-200.6-125.5-160.6 0 0 114.1-27.7 66.1 109.4l-35.8 14.7zm-257.6 0-101.24-58.3c-19.96-188.3 53.65-200.6 125.54-160.6 0 0-114.14-27.7-66.12 109.4l35.82 14.7zm128.8-151.7 67.5 41.8s-3.2 35-42.4 64.7l-25.1-51.7-25.1 51.7c-39.2-29.7-42.4-64.7-42.4-64.7z"/></g></svg>
