<?xml version="1.0" encoding="UTF-8"?>
<svg width="389.12" height="468.44" version="1.1" viewBox="0 0 389.12 468.44" xmlns="http://www.w3.org/2000/svg"><g transform="translate(-64.125,-22.406)" style="fill: var(--icon-fill, #fff);"><path d="m71 22.406v102.53h202.25v18.69h-73.22v36.968h-18.686v-36.97h-102.19l43.375 53.782h180.44v18.688h-122.07v36.97h-18.685v-36.97h-39.407v163.56h58.53v-44.75h-23.873v-18.686h74.155v-33.66h-37.905v-18.687h97.218v18.688h-40.625v33.656h73.28v18.686h-32.437v44.75h26.313v18.688h-63.69l-2.686 74.03-18.688-0.687 2.656-73.343h-142.03v-0.341h-0.22l-28.687 92.844h79.844l9.81-70.688 18.5 2.563-9.468 68.124h290.44l-28.688-92.843h-30.03v-200.22l51.812-64.25v-111.12h-64.406v52.438h-39.22v-52.439h-65.124v52.438h-38.53v-52.438h-65.126v52.438h-38.5v-52.438zm129.03 312.5v44.75h72.44v-44.75z"/></g></svg>
