<?xml version="1.0" encoding="UTF-8"?>
<svg width="365.81" height="348.78" version="1.1" viewBox="0 0 365.81 348.78" xmlns="http://www.w3.org/2000/svg"><g fill="#fff" transform="translate(-73.096 -81.609)"><path transform="matrix(.8 0 0 .8 51.2 51.2)" d="m256 38.013c-22.458 0-66.472 110.3-84.64 123.5-18.17 13.2-136.67 20.975-143.61 42.334-6.94 21.358 84.362 97.303 91.302 118.66 6.94 21.36-22.286 136.46-4.116 149.66s118.61-50.164 141.07-50.164 122.9 63.365 141.07 50.164c18.17-13.2-11.056-128.31-4.116-149.66 6.94-21.36 98.242-97.304 91.302-118.66-6.94-21.36-125.44-29.134-143.61-42.335-18.168-13.2-62.182-123.5-84.64-123.5z"/></g></svg>
