<?xml version="1.0" encoding="UTF-8"?>
<svg width="372.88" height="346.45" version="1.1" viewBox="0 0 372.88 346.45" xmlns="http://www.w3.org/2000/svg"><g transform="translate(-69.549 -82.776)" fill="#fff"><path transform="matrix(.8 0 0 .8 51.2 51.2)" d="m352.75 39.47-33.094 83.374 111.16 111.28 58.22-58.28zm-160.34 5.218c-98.25 66.974-166.87 161.25-169.47 288.91 62.25-119.82 162.46-225.09 255.22-269.75l-85.75-19.157zm-94.656 15.468-29.563 29.564c7.276 6.96 14.53 13.893 21.813 20.843 8.887-10.39 18.37-20.35 28.313-29.907zm353.81 0-25.875 25.844 28.718 28.75c8.91-8.36 17.822-16.728 26.72-25.094zm-263.94 89.75c-9.44 8.552-18.824 17.596-28.063 27.063 25.263 24.13 50.526 48.323 75.688 72.75l26.188-26.126-73.813-73.688zm153.31 20.72-272.94 272.53 29.313 29.22c83.48-96.13 175.76-186.5 269.81-275.53l-26.188-26.22zm-28.25 104.16c-8.692 8.42-17.35 16.853-25.97 25.314 55.896 55.38 111.17 112.35 165.16 172.44l29.438-29.374-168.62-168.38z"/></g></svg>
