<?xml version="1.0" encoding="UTF-8"?>
<svg width="378.67" height="382.87" version="1.1" viewBox="0 0 378.67 382.87" xmlns="http://www.w3.org/2000/svg"><g transform="translate(-66.752 -65.798)" style="fill: var(--icon-fill, #fff);"><path transform="matrix(.8 0 0 .8 51.2 51.2)" d="m27.084 18.248c-44.987 128.23 116.07 259.67 287.41 362.83-4.645 13.767-5.585 27.628-3.394 40.635 4.44 26.355 20.974 48.997 42.86 62.425 21.884 13.428 49.776 17.57 75.645 5.765 25.87-11.804 48.69-38.923 62.737-84.654l-17.865-5.488c-13 42.318-32.806 64.094-52.63 73.14-19.825 9.047-40.69 5.998-58.116-4.693-17.425-10.69-30.75-29.095-34.205-49.6-3.455-20.507 2.232-43.318 24.677-65.218 20.743-20.24 32.068-41.615 30.434-61.24l-18.622 1.552c0.74 8.89-4.35 22.76-16.684 37.486-127.28-100.38-275.5-202.56-322.25-312.94zm458.05 0c-33.794 79.782-120.61 155.28-214.2 228.92 19.492 15.878 39.56 31.622 59.195 45.012 110.76-84.836 187.88-180.24 155.01-273.93zm-357.55 273.9c-1.634 19.626 9.69 41 30.434 61.24 22.445 21.9 28.132 44.712 24.677 65.218s-16.78 38.91-34.206 49.6c-17.425 10.692-38.29 13.74-58.115 4.694s-39.632-30.822-52.63-73.14l-17.865 5.488c14.046 45.73 36.867 72.85 62.736 84.654 25.87 11.805 53.763 7.663 75.648-5.765s38.42-36.07 42.86-62.426c2.19-13.005 1.25-26.863-3.393-40.628 13.986-8.42 27.905-17.022 41.648-25.803l-56.967-39.387c-6.55 5.103-13.063 10.2-19.52 15.293-12.337-14.724-17.427-28.594-16.687-37.484l-18.622-1.554zm18.1 73.614c-26.1 8.6-62.087 36.255-77.104 60.324 4.948 8.63 10.393 15.223 16.05 20.14 25.846-8.953 59.85-37.406 74.733-60.257-3.007-6.6-7.454-13.386-13.68-20.207zm220.86 0c-6.225 6.822-10.67 13.61-13.68 20.21 14.886 22.85 48.89 51.3 74.736 60.255 5.656-4.918 11.1-11.51 16.05-20.14-15.018-24.07-51.004-51.724-77.105-60.325z"/></g></svg>
