<?xml version="1.0" encoding="UTF-8"?>
<svg width="333.5" height="377.2" version="1.1" viewBox="0 0 333.5 377.2" xmlns="http://www.w3.org/2000/svg"><g transform="translate(-90.324 -66.925)"><path transform="matrix(.8 0 0 .8 51.2 51.2)" d="m48.906 19.656v10.782c0 103.17 10.53 206.07 41.313 289.53 30.78 83.463 82.763 148.09 164.53 170.56l2.188 0.626 2.25-0.5c89.686-19.12 142.32-84.028 171.19-168.34 28.865-84.315 35.406-188.66 35.406-291.88v-10.78l-10.655 1.53c-131.86 18.766-263.67 18.812-395.53 0l-10.69-1.53zm18.844 21.374c63.242 8.536 126.5 12.792 189.75 12.782v184.53h174.78c-4.905 27.572-11.31 53.747-19.592 77.937-27.348 79.884-73.757 137.33-155.16 155.56-8e-3 -3e-3 -0.02 3e-3 -0.03 0v-233.5h-170.97c-12.87-60.99-18.277-128.81-18.78-197.31z"/></g></svg>
