<svg xmlns="http://www.w3.org/2000/svg" viewBox="0 0 512 512" style="height: 512px; width: 512px;">
  <path fill="#fff" fill-opacity="1" d="M 81.874 153.02 C 86.513 102 137.532 26.463 230.296 27.126 C 323.06 27.789 384.681 94.711 386.669 177.536 C 387.859 214.434 388.991 217.245 395.022 232.207 C 399.444 237.262 405.832 246.426 410.478 256.013 C 414.778 264.876 417.628 274.395 418.768 281.251 L 382.565 281.837 L 384.31 292.164 C 386.217 303.437 387.362 313.429 387.73 322.244 L 348.54 321.444 L 348.174 339.44 L 387.214 340.237 C 386.058 349.932 383.366 357.484 379.044 363.084 C 369.199 375.84 348.224 382.77 307.434 381.59 L 304.497 381.506 L 302.075 383.169 C 255.742 415.026 249.108 445.971 241.592 472.879 C 161.627 464.969 122.593 422.863 90.815 370.243 C 113.915 350.286 128.345 284.785 128.345 284.785 C 96.775 250.536 77.386 202.382 81.874 153.02 Z M 147.444 82.169 L 152.024 142.65 L 212.506 138.07 L 210.987 118.003 L 184.036 120.044 C 187.992 116.094 192.351 112.569 197.042 109.527 C 233.909 85.585 282.903 95.999 306.844 132.865 C 330.785 169.731 320.371 218.725 283.504 242.667 C 246.638 266.609 197.643 256.194 173.703 219.328 C 168.691 211.611 165.191 203.362 163.117 194.923 L 143.046 197.187 C 145.518 208.662 150.066 219.879 156.826 230.288 C 186.69 276.274 248.478 289.408 294.464 259.544 C 340.452 229.679 353.585 167.891 323.722 121.905 C 293.857 75.918 232.069 62.784 186.081 92.649 C 179.939 96.638 174.39 101.201 169.445 106.218 L 167.508 80.647 L 147.443 82.168 L 147.444 82.169 Z"></path>
</svg>