<?xml version="1.0" encoding="UTF-8"?>
<svg width="512" height="512" version="1.1" viewBox="0 0 1866.7 1866.7" xmlns="http://www.w3.org/2000/svg"><path id="Selection" d="m179 379.54c-143.3 375.07 19.587 650.16 201.63 822.12 9.7272 77.967-156.88 290.86-173.5 300.3 0 0 138.15 240.33 588.59 364.75 49.237-155.14 204.94-315.27 360.53-329.83 0 0 99.346 7.5329 127.43 16.883 89.826 17.711 220.33 48.558 266.84-58.077 21.821-50.114 4.069-65.056-0.164-110.94-3.4195-37.187 30.62-44.907 25.762-82.37-2.9921-23.326-19.074-33.527-38.468-42.815-23.545-11.213-31.154-14.448-69.384-5.9291-43.068-1.2174-77.312 19.825-83.732 9.6988 16.167-28.104 62.094-51.319 139.94-71.335 26.904-8.3837 69.052-12.784 87.436-35.11 9.8855-11.918 15.093-27.476 12.524-43.162-2.4947-15.212-36.244-40.853-8.2118-94.646 8.8304-9.9596 30.602-17.835 42.697-22.901 13.154-5.5553 25.411-7.8036 38.963-14.007 34.842-20.325 64.751-78.587 27.209-107.56l-40.445-17.435c-23.128-11.901-28.085-16.208-48.045-29.872-74.524-51.016-156.39-129.38-184.57-218.26-17.944-39.026 0.1961-64.942-6.6991-112.16-8.0626-55.159-35.762-117.07-65.532-164.08-256.03-452.58-1022.6-449.8-1200.8 46.748zm207.52-131.56 21.22 280.22 280.22-21.22-7.0378-92.973-124.87 9.4562c18.329-18.301 38.524-34.633 60.258-48.726 170.81-110.93 397.8-62.677 508.73 108.13 110.92 170.8 62.672 397.8-108.14 508.73-170.8 110.93-397.8 62.672-508.72-108.13-23.221-35.754-39.437-73.972-49.046-113.07l-92.991 10.489c11.453 53.165 32.525 105.13 63.844 153.36 138.36 213.06 424.63 273.91 637.69 135.55 213.07-138.37 273.91-424.64 135.56-637.7-138.37-213.06-424.64-273.91-637.71-135.55-28.457 18.481-54.166 39.622-77.077 62.867l-8.9743-118.47-92.963 7.047z" fill="#fff" fill-rule="evenodd"/></svg>
