<?xml version="1.0" encoding="UTF-8"?>
<svg width="512" height="512" version="1.1" viewBox="0 0 1866.7 1866.7" xmlns="http://www.w3.org/2000/svg"><path id="Selection" d="m751.15 512.77c12.563 44.245 3.1682 102.8-5.4624 147.48-9.9415 51.237-17.589 96.138-55.607 136.07-63.527 66.641-162.83 51.455-183.32-21.358 2.7312-45.338 4.4791-92.642 3.6052-125.63v-103.78l-10.488-92.86c-0.2185-20.866-1.5295-51.619 4.5884-71.011 14.202-45.283 100.07-127.87 137.43-159.88 58.393-50.035 162.51-140 245.81-122.03 21.412 4.5884 52.985 23.597 71.011 36.325 21.303 15.021 35.505 29.114 52.22 48.943 20.976 24.854 36.652 46.212 49.107 76.473 28.24 68.553 36.598 197.3 42.169 234.88-2.1303 25.018-19.228 49.707-32.064 71.011-48.997 81.28-94.553 123.34-193.37 125.58-25.892 0.54624-55.989 0-73.196-22.942-9.3406-12.454-13.437-104.44-14.858-123.83 0.65548-14.967 19.774-5.4624 23.871-13.656 71.721-69.59 101.87-133.72 99.688-177.53-26.602 54.35-102.31 140.44-161.14 157.75zm518.92 251.27c0 84.776 12.454 177.58-38.51 251.27-33.32 48.178-83.574 79.587-141.75 54.897-20.102-8.5759-35.669-19.938-47.195-38.728-31.682-51.838-29.005-105.86-29.278-163.65l-14.311-152.95c9.0129-46.922 52.056-87.234 76.855-125.63l107.28-180.26c15.513-21.795 27.039-45.665 48.888-62.107 28.022-21.085 63.746-28.295 98.104-30.261 49.052-2.7312 95.154 29.824 125.63 65.985 70.028 84.994 71.994 106.84 66.04 315.89-6.0086 85.923-17.534 152.02-86.906 214.51-27.803 34.304-90.347 38.728-126.62 35.287-7.9204-66.04-5.4623-155.46-5.4623-155.46 19.883-7.4288 32.009-17.917 41.732-27.312 28.131-27.093 112.69-121.65 75.981-194.62-7.4834 88.381-97.339 182.33-150.49 193.15zm-478.45-53.804c49.653 30.589 87.234 37.417 163.11 24.362 27.913 125.69 9.4499 288.25 64.073 333.26 27.803 28.131 95.7 58.12 136.56 46.812 26.219-7.2649 66.914-34.959 86.742-53.586 22.286-21.03 32.064-44.409 53.913-63.527 18.408 1.3656 34.795-2.7312 47.14 2.7312-21.849 88.108-36.926 165.24-36.926 165.24-2.7858 20.593-11.58 79.86-21.139 129.02-8.849 2.6765-56.808 0.6008-69.645-0.9286-52.493-6.2271-131.53-38.947-174.8-69.208-65.221-43.535-56.699-84.503-147.48-78.002h-54.624c-78.603-0.9286-184.85-72.649-219.53-142.02-11.58-23.16-22.232-77.183-14.858-102.8 12.4-14.366 20.047-9.2314 35.778-18.845 19.774-12.126 50.964-38.182 68.006-53.149 79.969-81.935 60.195-97.558 83.683-119.35zm838.96 56.699c101.93-16.824 166.93 66.969 175.12 160.98 0.8194 13.929 3.332 30.098 0 43.699-9.7776 23.816-13.71 20.375-42.552 71.011-45.665 54.132-41.077 41.077-84.885 81.935l-101.82 98.814c-39.22 52.657-25.345 86.906-64.292 136.01-25.837 32.72-67.679 59.867-111 55.825-22.833-2.1303-38.346-11.635-53.422-28.677-46.321-52.329-20.538-120.61-8.1936-180.04 10.433-50.527 18.572-150.76 39.657-191.18 29.06-55.498 97.012-107.77 142.13-152.95 34.358-34.413 61.342-80.187 109.25-95.427zm-1045.3 243.4c56.863 85.322 136.67 179.11 241.82 201.62 78.931 11.908 119.19-0.9832 158.9 7.8112 22.505 10.597 33.976 36.816 52.166 53.75 19.064 17.807 54.842 39.329 77.456 53.64 37.581 23.816 67.515 41.951 108.76 58.611l56.59 16.278 96.356 80.024c50.636 29.333 18.845 55.661 38.236 118.21 30.753 62.599 76.746 76.528 82.045 97.831 4.1514 16.442-18.19 29.879-29.934 38.728-26.602 20.102-87.616 31.846-121.16 32.282-83.683 0.9832-141.91 0.3824-213.03-52.493-54.187-40.258-104.77-119.24-180.26-109.79-84.011 10.542-154.53 41.951-245.81 42.115-73.141 0.1093-109.68-4.7522-181.95-17.753 3.332-72.158 21.522-83.738 7.5927-167.97-1.8572-11.089-0.54624-33.211-4.9161-43.207-11.799-27.039-48.506-54.132-73.96-68.006-59.212-32.282-139.78-54.241-205.6-69.044 4.6976-7.5381 4.1514-9.3407 12.509-14.912 19.282 2.0211 52.548-14.366 52.548-14.366 225.92-114.71 263.67-225.98 271.64-243.35zm1203.5 98.486c29.934-0.1639 44.136 29.06 54.733 53.968 26.056 60.905 24.854 120.61 21.358 185.72-3.1681 58.447-42.442 97.612-81.334 136.56-53.258 53.367-122.9 131.53-196.64 154.2-66.149 20.32-131.04-17.097-136.01-88.654-1.2563-17.589 3.4413-55.607 11.307-71.011l112.63-131.1c28.022-34.741 21.522-63.636 43.808-98.322 26.602-41.241 124.05-122.68 170.15-141.37zm-1676.7 188.12c38.455-6.7187 66.422 1.0925 103.78 9.0129 69.809 14.858 121.54 31.245 185.72 63.036 33.375 16.551 66.477 27.093 86.196 61.452 29.442 51.401 22.232 149.12-13.219 196.43-13.219 17.698-30.808 29.606-51.128 37.963-15.24 6.2271-32.61 11.526-49.161 9.3953-26.492-3.3321-37.253-32.228-113.23-41.186l-70.519-2.9497c-52.439 0-87.671 18.736-138.31-19.064-52.876-39.384-56.372-88.053-49.653-147.81 7.9751-70.847 36.489-140.76 109.52-166.27z" fill="#fff"/></svg>
