<?xml version="1.0" encoding="UTF-8"?>
<svg width="48" height="53" enable-background="new 0 0 48 48" version="1.1" viewBox="2 0 44 48.583" xml:space="preserve" xmlns="http://www.w3.org/2000/svg"><path d="m32.7 47h-17.4c-3.8 0-7-2.1-7.9-5l-4.7-16.4c-0.5-1.6-0.1-3.3 1-4.8l2.8-3.7c1.5-1.9 4.1-3.1 6.9-3.1h21.2c2.8 0 5.4 1.2 6.9 3.1l2.8 3.7c1.1 1.4 1.4 3.1 1 4.8l-4.7 16.4c-0.9 2.9-4.1 5-7.9 5z"/><rect x="16" y="6.9" width="16" height="9.1"/><path d="m35.4 11.5h-22.8v-8c0-1.4 1.1-2.5 2.5-2.5h17.7c1.4 0 2.5 1.1 2.5 2.5v8z"/><text y="63" fill="#000000" font-family="'Helvetica Neue', Helvetica, Arial-Unicode, Arial, Sans-serif" font-size="5px" font-weight="bold">Created by Creative Stall</text><text y="68" fill="#000000" font-family="'Helvetica Neue', Helvetica, Arial-Unicode, Arial, Sans-serif" font-size="5px" font-weight="bold">from the Noun Project</text></svg>
