<?xml version="1.0" encoding="UTF-8"?>
<svg width="42" height="42" version="1.1" viewBox="11 3 42 42" xml:space="preserve" xmlns="http://www.w3.org/2000/svg"><g fill="#666"><path d="m36 3h-3v7.45c1.57 0.09 2.81 1.4 2.81 2.99v8.99c0 1.59-1.24 2.9-2.81 2.99v5.58h17v-14c0-7.72-6.28-14-14-14z"/><path d="m14 47c0 7.72 6.28 14 14 14h8c7.72 0 14-6.28 14-14v-14h-36z"/><path d="m31 25.42c-1.57-0.09-2.81-1.4-2.81-2.99v-8.99c0-1.59 1.24-2.9 2.81-2.99v-7.45h-3c-7.72 0-14 6.28-14 14v14h17z"/><path d="m28.19 10.09v14.377c0 2.8007 1.1468 4.0223 3.2091 4.0223h1.6732c1.5158 0 2.722-1.1667 2.722-3.845v-14.959c0-2.265-0.94528-3.6931-2.8228-3.6931h-1.9587c-1.9615 0-2.8228 1.5987-2.8228 4.0982z" fill="#ed1c24" stroke-width="2.0737"/></g><text y="79" fill="#000000" font-family="'Helvetica Neue', Helvetica, Arial-Unicode, Arial, Sans-serif" font-size="5px" font-weight="bold">Created by difatama</text><text y="84" fill="#000000" font-family="'Helvetica Neue', Helvetica, Arial-Unicode, Arial, Sans-serif" font-size="5px" font-weight="bold">from the Noun Project</text></svg>
