<?xml version="1.0" encoding="UTF-8"?>
<svg width="58" height="58" version="1.1" viewBox="3 3 58 58" xml:space="preserve" xmlns="http://www.w3.org/2000/svg"><path d="m36 3h-3v7.45c1.57 0.09 2.81 1.4 2.81 2.99v8.99c0 1.59-1.24 2.9-2.81 2.99v5.58h17v-14c0-7.72-6.28-14-14-14z"/><path d="m14 47c0 7.72 6.28 14 14 14h8c7.72 0 14-6.28 14-14v-14h-36z"/><path d="m31 25.42c-1.57-0.09-2.81-1.4-2.81-2.99v-8.99c0-1.59 1.24-2.9 2.81-2.99v-7.45h-3c-7.72 0-14 6.28-14 14v14h17z"/><path d="m30.19 13.44v8.99c0 0.55 0.45 1 1 1h1.62c0.55 0 1-0.45 1-1v-8.99c0-0.55-0.45-1-1-1h-1.62c-0.55 0-1 0.45-1 1z"/><text y="79" fill="#000000" font-family="'Helvetica Neue', Helvetica, Arial-Unicode, Arial, Sans-serif" font-size="5px" font-weight="bold">Created by difatama</text><text y="84" fill="#000000" font-family="'Helvetica Neue', Helvetica, Arial-Unicode, Arial, Sans-serif" font-size="5px" font-weight="bold">from the Noun Project</text></svg>
