<?xml version="1.0" encoding="UTF-8"?>
<svg width="495.01" height="458.64" version="1.1" viewBox="0 0 495.01 458.64" xmlns="http://www.w3.org/2000/svg"><g transform="translate(-79.03,-17.75)" style="fill: var(--icon-fill, #000); touch-action: none;"><path d="m255.41 17.75c-66.093 21.67-130.87 67.374-176.38 132.59 21.238 57.44 32.72 94.314 32.72 131.38 0 36.493-11.52 73.723-32.125 129.66 40.208 33.455 142.74 55.793 200.08 58.051-43.883-18.087-87.44-50.13-87.44-50.13s33.551-93.92 39.263-124.11c-30.644-3.28-61.384-13.286-92.03-30.72v-71.312c28.664 9.9436 51.141 15.519 70.785 18.336 2.4862-12.102-23.421-72.484-23.421-72.484 18.753-22.244 52.36-65.502 101.88-99.525-22.981-17.547-23.042-14.855-33.335-21.732zm-75.125 212c-11.16-0.13-19.646 3.174-21.25 9.156-2.33 8.7 10.778 19.76 29.282 24.72 18.505 4.957 35.388 1.92 37.72-6.782 2.33-8.7-10.775-19.76-29.282-24.72-5.783-1.55-11.396-2.315-16.47-2.374z"/></g><g transform="translate(62.036 -17.667)"><path d="m255.41 17.75c-66.093 21.67-130.87 67.374-176.38 132.59 21.238 57.44 32.72 94.314 32.72 131.38 0 36.493-11.52 73.723-32.125 129.66 49.72 36.73 100.08 58.95 150.31 64.938-5.052-60.378-9.83-120.75 1.593-181.12-30.644-3.28-61.384-13.286-92.03-30.72v-71.312c80.67 42.255 158.91 41.547 242.06 0v71.313c-30.06 14.376-60.192 24.722-90.25 29.28 8.684 60.46 7.723 120.92 2.03 181.38 46.386-7.335 92.89-28.824 139.03-64.312-33.966-112.95-34.03-145.93 0.594-260.47-41.808-65.497-115.05-110.45-177.56-132.59zm-75.125 212c-11.16-0.13-19.646 3.174-21.25 9.156-2.33 8.7 10.778 19.76 29.282 24.72 18.505 4.957 35.388 1.92 37.72-6.782 2.33-8.7-10.775-19.76-29.282-24.72-5.783-1.55-11.396-2.315-16.47-2.374zm160.69 0c-5.074 0.06-10.687 0.825-16.47 2.375-18.507 4.96-31.613 16.018-29.28 24.72 2.33 8.7 19.213 11.738 37.717 6.78 18.505-4.958 31.613-16.018 29.282-24.72-1.604-5.98-10.09-9.286-21.25-9.155z"/></g></svg>
