<?xml version="1.0" encoding="UTF-8"?>
<svg width="318.36" height="374.68" version="1.1" viewBox="0 0 318.36 374.68" xmlns="http://www.w3.org/2000/svg"><g transform="translate(-98.532 -67.87)"><path transform="matrix(.8 0 0 .8 51.2 51.2)" d="m253.88 20.844c-61.545 0.405-123.65 9.54-187.47 27.812l-6.467 1.844-0.28 6.72c-6.405 147.46 49.12 346.62 192.28 429.28l4.688 2.688 4.656-2.688c139.03-80.27 201.88-281.76 195.38-429.28l-0.125-5.907-6.624-2.657c-63.63-18.215-126.57-27.65-190.06-27.812-1.984-5e-3 -3.984-0.013-5.97 0zm152.76 63.147c-6.4006 139.8-35.948 250.12-150.02 342.78-133.46-122.52-128.08-192.06-146.99-335.08 124.86-33.627 171.81-32.219 297-7.7016zm-148.64 0.80748-28.438 97.952-45.312-25.313 26.97 48.25-67.951 26.157 67.106 25.937-26.688 47.72 45.625-25.5 28.657 113.11 28.655-113.04 45.875 25.656-26.72-47.814 66.529-26-67.434-26.25 27.063-48.406-45.5 25.438z"/></g></svg>
