<?xml version="1.0" encoding="UTF-8"?>
<svg width="318.36" height="374.68" version="1.1" viewBox="0 0 318.36 374.68" xmlns="http://www.w3.org/2000/svg"><g transform="translate(-98.532 -67.87)"><path transform="matrix(.8 0 0 .8 51.2 51.2)" d="m253.88 20.844c-61.545 0.405-123.65 9.54-187.47 27.812l-6.467 1.844-0.28 6.72c-6.405 147.46 49.12 346.62 192.28 429.28l4.688 2.688 4.656-2.688c139.03-80.27 201.88-281.76 195.38-429.28l-0.125-5.907-6.624-2.657c-63.63-18.215-126.57-27.65-190.06-27.812-1.984-5e-3 -3.984-0.013-5.97 0zm0.344 18.625c1.86-0.013 3.73-6e-3 5.593 0 59.47 0.15 118.43 8.782 178.28 25.343 3.956 139.03-57.428 327.22-181.47 402.62-128.09-77.646-182.55-263.02-178.44-402.59 60.047-16.615 118.31-25.005 176.03-25.373zm3.781 16.561-28.438 126.72-45.312-25.313 26.97 48.25-92.5 26.157 91.655 25.937-26.688 47.72 45.625-25.5 28.657 127.69 28.655-127.62 45.875 25.656-26.72-47.814 91.845-26-92.75-26.25 27.063-48.406-45.5 25.438z"/></g></svg>
