<?xml version="1.0" encoding="UTF-8"?>
<svg width="464.79" height="465.9" version="1.1" viewBox="0 0 464.79 465.9" xmlns="http://www.w3.org/2000/svg"><g class="" transform="translate(-18.799 -23.799)"><path d="m181.99 23.803c-16.323-0.428-17.824 35.266 6.703 47.611 17.074-41.51 91.76 3.27 81.506 21.332-8.48 14.94-46.323-9.947-49.625-5.96-8.974 10.835 25.097 31.978 55.448 45.96l30.187-30.187c10.459-10.46 21.69-17.505 33.002-21.653-33.48-19.082-97.109-51.439-156.43-57.054-0.266-0.026-0.53-0.042-0.789-0.05zm-132.49 23.535c-9.199 16.433-19.965 32.102-8.08 82.387l47.209 193.82c3.722-5.93 8.336-11.744 13.93-17.338l39.203-39.203-48.826-148.86c-10.063-28.768-26.214-54.035-43.436-70.807zm315.53 46.16c-14.54-0.044-30.539 6.23-46.095 21.787l-203.65 203.65c-31.113 31.112-25.102 63.994-5.656 83.44 19.445 19.445 52.327 25.456 83.44-5.657l203.65-203.65c31.113-31.112 25.102-63.994 5.656-83.44-9.723-9.722-22.804-16.086-37.344-16.13zm-295.01 22.16 14.953 53.432-17.334 4.851-14.953-53.433zm271.54 9.528 16.263 16.263 16.262-16.263 12.728 12.728-16.263 16.262 16.263 16.263-12.728 12.729-16.262-16.262-16.263 16.262-12.729-12.729 16.262-16.263-16.262-16.262zm81.863 63.189c-3.731 5.958-8.363 11.8-13.983 17.42l-25.896 25.896 18.338 12.38-12.592 19.144 21.979 12.144-12.823 19.666 21.576 13.9-16.746 22.415 22.862 9.894-11.028 20.198 20.233 14.687-7.893 35.412 56.138-29.733zm-135.61 139.04-12.726 12.726 14.084 13.881a9 9 0 0 0 8.662 2.28l13.002-3.51-12.313 27.574c-3.442 7.713 4.676 15.492 12.235 11.725l17.691-8.825-10.545 19.094c-4.299 7.788 4.1 16.427 12.006 12.35l16.725-8.63-7.172 12.997c-3.747 6.794 2.283 14.829 9.853 13.129l22.948-5.156c7.598 0.705 8.552 0.699 13.595-0.634l-4.306-15.571a9 9 0 0 0-8.371-2.452l-8.293 1.864 11.81-21.4c4.291-7.787-4.103-16.419-12.006-12.346l-16.709 8.619 10.203-18.473c4.271-7.732-3.991-16.349-11.896-12.406l-21.092 10.521 9.795-21.933c3.088-6.924-3.242-14.33-10.562-12.358l-26.303 7.098zm-185.09 92.86-83.924 69.415 112.77-55.672c-10.678-2.366-20.539-7.118-28.85-13.744z"/></g></svg>
