<?xml version="1.0" encoding="utf-8"?>
<svg width="512" height="512" viewBox="0 0 512 512" xmlns="http://www.w3.org/2000/svg">
  <g style="fill: var(--icon-fill, #fff); touch-action: none;">
    <path d="M 247.79 18.734 C 137.967 17.596 19.874 96.94 19.73 244.53 L 41.133 193.135 C 31.648 265.415 33.383 340.371 79.923 395.637 L 38.2 377.355 C 77.44 447.129 164.533 468.331 239.055 469.865 C 124.11 429.9 67.87 342.277 63.912 246.492 C 57.19 34.712 324.57 28.798 404.692 170.722 C 401.275 151.23 396.069 132.296 389.074 114.612 C 466.48 203.767 448.367 329.487 367.784 367.648 C 343.534 371.598 318.854 379.708 306.83 386.648 C 248.282 420.45 300.56 513.184 360.055 478.836 C 369.495 473.386 383.459 461.533 396.549 447.484 C 460.909 387.964 494.649 329.244 489.657 258.544 C 483.137 287.644 470.482 316.448 454.034 343.227 C 517.192 196.405 461.99 79.337 309.196 41.873 C 321.293 47.708 332.699 55.503 343.069 65.233 C 285.654 41.481 211.946 42.613 156.185 68.738 C 184.251 42.538 220.961 25.008 258.385 19.096 C 254.865 18.891 251.331 18.771 247.788 18.734 L 247.79 18.734 Z" style=""/>
    <path style="stroke-width: 1;" d="M 199.037 136.539 L 173.738 264.755 C 169.967 269.612 166.547 273.491 162.221 277.427 L 129.471 214.833 L 100.523 230.042 L 140.518 307.744 C 146.23 322.373 153.293 334.109 159.848 344.11 C 195.627 398.682 242.142 389.055 281.355 356.293 L 392.631 294.519 L 376.426 265.836 L 292.107 312.932 C 290.173 308.911 287.943 304.579 285.661 300.808 L 372.125 217.987 L 349.762 194.152 L 265.017 275.445 C 262.013 272.49 259.614 269.673 256.392 267.106 L 313.871 167.553 L 284.889 150.816 L 226.414 250.64 C 221.583 248.971 216.572 247.836 211.632 247.141 L 231.592 142.729 L 199.039 136.54 L 199.037 136.539 Z"/>
  </g>
  <path id="Line" d="M 446.245 30.023 C 493.829 11.064 513.372 60.877 497.227 84.985 L 70.005 486.108 C 26.757 500.253 2.506 464.536 17.005 430.907 C 17.005 430.907 437.987 30.09 446.245 30.023 Z" fill="#f00" style="stroke-width: 5.833;"/>
</svg>
