<?xml version="1.0" encoding="UTF-8"?>
<svg width="512" height="512" version="1.1" viewBox="0 0 1866.7 1866.7" xmlns="http://www.w3.org/2000/svg"><path d="m934.77 0c38.701 90.962 28.436 114.95 274.48 587.38 95.957 184.23 187.63 470.23 208.6 576.4 123.35 624.71-386.63 707.88-477.59 702.66-498.39-30.192-511.62-449.43-510.53-548.95 1.0979-101.06 29.534-308.35 230.56-730.11 99.525-208.88 171.11-296.38 274.48-587.38zm-247.03 982.63c-44.959 152.94-104.96 374.22 27.448 505.04 42.544 42.05 135.87 98.098 192.13 60.385 55.334-37.219 50.229-134.49 27.448-186.64-35.517-81.355-83.606-82.178-148.22-170.18-62.91-85.692-86.186-167.32-98.812-208.6z" fill="#fff"/></svg>
