<?xml version="1.0" encoding="UTF-8"?>
<svg width="512" height="512" version="1.1" viewBox="0 0 384 384" xmlns="http://www.w3.org/2000/svg"><path id="eye" d="m197.32 50.989c3.119 0.97534 8.8424 4.2336 7.5026 20.364-3.4619 0 14.009 1.1254 25.723 4.2872 9.4319 2.5509 18.489 5.6484 26.795 9.6463-7.9314 7.9528-18.36 17.256-26.795 25.723-6.9453-2.7331-36.709-17.674-90.032 4.2872-58.757 24.201-87.374 57.92-108.25 73.955-0.37513 2.3151 23.751 22.004 58.949 49.303-5.5841 4.9732-16.152 15.07-21.436 19.293-12.454-9.9785-38.682-30.857-52.519-48.231-9.4533-11.865-14.234-8.0814-16.077-17.149-1.7042-5.2412-0.39657-12.969 6.4308-13.934 12.208-8.3815 12.551-14.662 26.795-27.867 4.5981-4.2658 16.624-15.798 20.364-19.293-11.35-15.38-6.2808-20.021-2.1436-23.58 9.3033-4.716 16.849-0.50375 23.58 7.5027 17.781-11.286 48.799-36.709 102.89-43.944v-1.0718c-0.55734-8.8746-0.81457-12.165 1.0718-15.005 3.1082-2.5938 7.6527-7.5884 17.149-4.2872zm111.47 65.38s11.704-17.267 22.508-7.5027c9.6784 8.5959 2.4759 16.442-3.2154 22.508 12.454 11.34 15.155 11.929 38.585 37.513 10.139 11.072 7.985 7.7277 15.005 12.862 2.6795 4.4802 1.6399 9.4212 1.0718 15.005-8.7031 4.9089-12.669 10.429-19.293 17.149-18.767 19.046-23.13 21.115-43.944 39.657-19.689 16.302-45.498 34.341-80.386 45.016-24.126 7.3848-61.95 9.9142-86.816 2.1436-23.376-7.299-39.507-13.783-38.585-13.934 7.1704-6.5059 17.106-15.423 23.58-21.436 27.674 11.361 54.919 12.229 77.17 8.5745 54.523-8.9603 120.28-67.813 137.19-84.673-10.514-9.2176-51.972-43.022-69.668-54.662 4.1693-4.0943 12.958-11.254 22.508-20.364 1.8971 0.96463 4.2872 2.1436 4.2872 2.1436zm-194 99.678c-3.1726-12.047-12.722-51.608 19.293-81.457 30.032-27.996 66.806-24.448 87.888-15.005-11.061 9.9892-15.713 13.387-28.939 26.795-2.926-0.2358-24.094-1.9614-39.657 17.149-8.4244 10.343-8.9603 20.214-8.5745 25.723-7.5884 6.8489-21.726 19.893-30.011 26.795zm143.62-60.021c7.6956 9.4212 9.1854 31.876 7.5027 45.016-3.7406 29.153-22.937 55.337-57.878 64.308-17.503 4.4909-51.093 0.4716-61.093-8.5745 5.7878-4.9303 20.686-18.982 26.795-24.652 29.646 7.7599 65.67-15.359 57.878-51.447 8.1993-7.149 19.271-17.363 26.795-24.652z" style="fill: var(--icon-fill, #fff);"/><path id="red" d="m317.36 34.912c19.142-1.2969 28.832 8.7352 31.082 17.149 1.5112 5.6699 2.4759 16.002-1.0718 21.436-132.25 126.12-159.33 141.73-296.89 273.31-12.508 6.195-29.003-0.70739-34.298-8.5745-4.6838-6.9453-6.0772-22.219-1.0718-30.011 7.2454-11.286 40.879-38.06 31.082-28.939 66.795-62.176 84.844-77.352 256.16-235.8 4.3837-4.0622 8.6816-7.985 15.005-8.5745z" fill="#f00"/></svg>
