<?xml version="1.0" encoding="utf-8"?>
<svg width="512" height="512" viewBox="0 0 512 512" xmlns="http://www.w3.org/2000/svg">
  <g style="fill: var(--icon-fill, #fff); touch-action: none;">
    <path d="M 256 16 C 281 40 356 88 406 88 L 406 184 C 406 280 331 424 256 496 C 181 424 106 280 106 184 L 106 88 C 156 88 231 40 256 16 Z M 131 111 L 131 191 C 131 271 193.5 391 256 451 C 256.018 450.982 256.037 450.965 256.055 450.947 C 256.055 450.947 256.418 51.401 256 51 C 235.167 71 172.667 111 131 111 Z"/>
  </g>
</svg>
