<?xml version="1.0" encoding="UTF-8"?>
<svg width="512" height="512" version="1.1" viewBox="0 0 1866.7 1866.7" xmlns="http://www.w3.org/2000/svg"><path id="Skull" d="m1006.5 420.71c-3.4868 0.68594-30.753-0.22864-31.267-0.11432-4.8015-13.49-53.446-39.498-53.446-39.498-8.9172 0.40013-26.523-12.747-43.5-27.037-6.6879 1.2576-18.177-1.1432-21.607 8.0026-1.4862 3.887-2.5151 13.719 0.85742 19.663 0 0 27.094 39.784 27.094 39.784s-13.662 37.04-19.149 67.622l-0.0572 39.098 21.664 26.751s-2.5151 35.211-2.5151 35.211l-5.0302-28.238-33.554-32.868 0.51446-27.838 5.8876-12.004 2.1721-63.906c-30.524-21.836-33.325-70.823-33.325-110.95-13.89-4.4586-30.067-11.432-36.012-15.434l-4.2299-23.836-14.919-24.351c4.9159-6.8594 14.176-24.351 14.176-24.351s5.4303-18.635 0.45729-38.012c0 0-0.74309-11.718-13.833-19.092-53.274-35.669-89-97.517-89-97.517s-1.772-26.066-1.772-26.066c-131.81 23.836-276.2 171.08-325.3 291.52-13.776 33.839-24.979 100.15-28.123 137.19-3.2582 39.27 25.437 161.37 12.347 222.93-23.893 112.66-77.854 80.426-111.58 188.63-6.9165 22.179-9.6031 27.552-10.232 51.445-2.9152 105.52 76.367 175.31 154.22 233.62 27.552 20.635 68.708 53.846 102.89 59.219 37.726 5.9447 68.822-23.036 97.517-26.694 26.123-3.2582 67.908 8.2312 98.26 30.753-46.472 4.6301-97.746 11.661-90.715 63.22 2.7437 20.464 25.608 93.23 39.098 108.26 9.6602 10.689 27.094 25.265 42.699 19.435 21.493-8.0026 18.92-73.795 18.92-93.401 34.297 23.95 4.7444 83.856 25.322 119.81 19.149 33.439 58.476 35.04 71.737 15.605 7.6024-11.204 6.2306-66.193 6.9165-80.769 27.838 30.01 14.29 78.025 30.696 98.489 16.52 20.578 87.228 39.784 102.15 10.175 5.3732-10.746 3.2582-78.254 3.2582-94.716h34.297c0 18.177-3.6583 87.114 5.659 98.66 6.745 8.3455 18.806 9.1457 28.638 9.7174 39.841 2.2864 63.335-10.861 77.968-32.296 3.1438-76.424 13.833-72.138 25.608-89.686 0 0 2.6294 75.624 2.6294 75.624 12.175 26.237 51.617 21.55 70.823-5.4875 19.835-32.582-2.0006-114.78 30.524-127.64 9.946 34.983-6.745 107.58 32.639 95.916 42.299-12.518 47.387-65.164 51.674-93.744 7.8882-10.403 14.29-31.724 11.089-51.788-1.772-26.809-28.238-46.129-84.313-45.386 3.4868-15.719 67.507-36.126 124.33-26.809 24.808 5.7733 42.013 26.58 68.593 22.75 31.953-4.6873 71.509-35.726 97.174-54.875 79.568-59.448 162.91-129.58 159.94-237.96-0.7431-28.638-15.834-79.511-32.182-102.89-39.67-56.818-66.421-27.552-88.314-131.47-16.005-66.707 13.49-176.06 11.432-222.93-1.5433-34.354-15.662-111.29-28.523-142.9-39.384-96.66-141.59-208.92-233.85-256.6-83.512-43.157-191.2-80.483-285.81-80.654h-137.19c-22.75 0.28581-60.362 4.6301-79.683 12.518-11.089 26.809-16.291 36.983-21.435 47.501-6.8022 13.947-24.065 26.751-20.578 42.871 20.978 6.4021 61.105 84.827 64.878 75.396 1.772 34.468 1.8863 89.857 1.8863 89.857 2.9724 6.2306 6.5164 12.518 12.175 18.749 4.8015 5.3732 11.146 1.0861 20.578 9.6602 5.4303 3.887 19.949 7.3738 32.753 24.294 26.466 28.581 55.732 51.216 93.459 51.445l32.239 21.378 47.158 0.97174 49.273 54.875-51.96-35.783-30.467-0.11432s-2.5723 7.0308-2.8009 7.088zm-171.37 346.28c-7.431 11.718-37.955 67.565-37.955 67.565-15.148 0.17148-67.107-38.87-81.055-49.33-43.728-32.639-93.516-65.85-142.9-89.114-16.119-7.5453-43.042-22.293-60.82-20.064-40.584 5.2017-72.366 51.617-75.338 89.915-2.1721 28.295 5.7733 114.44 23.893 136.16 39.784 47.672 156.79 53.16 215.15 52.474 19.606-0.22865 50.016-0.80026 67.05-10.918 10.861-6.4592 26.58-25.322 35.897-34.811 39.441-27.037 81.855-100.43 56.075-141.87zm197.43 1.5434c-24.922 17.72 7.8311 105.52 51.96 141.87 13.947 14.176 22.579 27.78 41.613 35.897 39.841 13.433 116.04 11.547 157.94 5.7161 38.584-3.2582 100.6-21.95 123.64-55.618 13.49-19.606 15.776-50.13 17.32-73.281 3.4297-50.245 16.177-85.399-28.809-123.87-10.746-9.203-25.608-19.492-39.898-21.321-17.72-2.2864-46.758 10.632-62.877 18.177-49.387 23.265-100.83 56.361-145.48 89.057-14.976 11.204-62.306 56.59-80.026 51.445-21.321-41.042-35.383-68.079-35.383-68.079zm-97.688 180.34-120.55 182.92 57.676 48.873s63.906-63.963 63.906-63.963l59.791 63.963 56.132-49.902-116.95-181.89zm315.99 587.22c50.359-20.807 28.352-31.038 30.638-70.708 2.1149-37.04 6.2877-93.63 20.235-127.81 7.4882-18.292 21.95-47.844 42.928-52.931 28.009-6.745 22.293 32.01 19.721 47.215-21.035 45.729-7.6596 101-2.858 117.98 0.2858 1.0289 40.527 93.516 40.527 93.516 2.3436 14.976-45.958 113.64-50.931 128.9-46.243 29.095-81.055 48.816-120.55 78.025-70.651 33.154-101.92 86.485-131.53 101.75-42.699 22.007-300.9 17.206-330.96-0.5144l-112.26-93.001c-29.895-19.721-118.67-63.678-136.62-83.17-18.749-26.523-42.128-95.631-54.589-127.81 75.853-181.89 43.557-167.02 35.897-227.1-1.7148-14.976-1.429-41.27 21.493-35.783 20.978 5.0874 35.44 34.64 42.928 52.931 13.947 34.182 19.378 89.4 21.493 126.44 5.0302 39.327-12.118 58.647 30.353 70.423 2.0006-14.976 1.0289-46.015 11.261-57.104 22.293-24.122 61.105 5.8876 69.737 22.007 5.8304 20.807-1.6577 59.733 2.9724 74.024 16.462 10.003 9.6602-8.2312 20.006-44.986 15.776-12.804 45.1-3.0296 61.048 16.177 18.177 21.893 14.347 57.561 14.347 84.541 20.349 21.092 12.575-40.813 26.237-51.331 19.835-15.205 76.367 3.3725 87.971 23.493 7.9454 13.89 5.8304 45.558 5.8304 62.134h34.297c0-16.577-2.115-48.244 5.8304-62.134 11.604-20.121 68.136-38.698 87.971-23.493 13.662 10.518 3.3726 27.38 14.119 59.219 27.494-7.5453 9.8317-62.992 19.606-81.969 10.746-20.75 47.044-45.214 68.308-24.579 8.1169 7.8311 5.3731 36.297 8.9171 47.73 7.7739-2.0578 17.148 16.634 13.662-78.825 8.6314-16.12 47.444-46.129 69.737-22.007 10.232 11.089 10.232 43.786 12.232 58.762z" fill="#fff" fill-rule="evenodd"/></svg>
