<?xml version="1.0" encoding="UTF-8"?>
<svg width="512" height="512" version="1.1" viewBox="0 0 512 512" xmlns="http://www.w3.org/2000/svg"><path d="m366.16 357.84c-5.3757 11.686-1.9575 25.811-0.73038 30.151 0.0731 0.26294 10.357 23.899 10.357 23.899 0.59892 3.8272-9.9153 30.256-13.016 32.941-10.554 9.1405-20.714 12.475-30.807 19.94-18.055 8.4728-26.046 22.102-33.614 26.003-10.912 5.624-76.897 4.3971-84.579-0.13146l-28.689-23.767c-7.6399-5.0399-30.327-16.273-34.914-21.255-4.7914-6.7782-16.455-24.207-13.951-32.663 14.3-48.291 11.131-42.683 9.1738-58.037l-7.7131-23.039c-8.7355-1.3731-19.253-9.8604-26.294-15.134-19.896-14.902-40.157-32.737-39.412-59.703 0.16072-6.106 0.8473-7.4792 2.6149-13.147 8.6189-27.652 22.409-19.415 28.515-48.206 3.3453-15.732-3.988-46.936-3.1554-56.972 0.80347-9.4659 3.6665-26.412 7.187-35.06 29.045-71.245 114.33-85.936 129.88-86.186h35.06c24.178 0.0437 51.699 9.5827 73.041 20.612 23.578 12.185 49.697 40.874 59.762 65.576 3.2867 8.0782 6.8949 27.74 7.2893 36.519 0.52594 11.978-7.0117 39.924-2.9215 56.971 5.5949 26.557 12.431 19.078 22.569 33.598 4.1779 5.9747 8.0345 18.976 8.2244 26.294 0.759 27.697-20.54 45.62-40.874 60.813-6.5589 4.8937-16.668 12.826-24.834 14.024z" fill-rule="evenodd" stroke-width="60" style="stroke: var(--icon-stroke, #000); fill: var(--icon-stroke, #000);"/><path id="Skull" d="m274.7 124.93c-0.89108 0.1753-7.8592-0.0584-7.9905-0.0293-1.2271-3.4475-13.659-10.094-13.659-10.094-2.2789 0.10225-6.7782-3.2576-11.117-6.9095-1.7091 0.32139-4.6453-0.29215-5.5218 2.0451-0.37981 0.99335-0.64275 3.506 0.21912 5.025l6.9241 10.167s-3.4914 9.4659-4.8937 17.281l-0.0146 9.9918 5.5364 6.8364-0.64276 8.9984-1.2855-7.2164-8.575-8.3997 0.13147-7.1142 1.5046-3.0677 0.55509-16.332c-7.8006-5.5804-8.5165-18.099-8.5165-28.354-3.5497-1.1394-7.6839-2.9215-9.2032-3.9443l-1.081-6.0915-3.8127-6.2231c1.2563-1.753 3.6228-6.2231 3.6228-6.2231s1.3878-4.7623 0.11686-9.7143c0 0-0.1899-2.9946-3.5351-4.8791-13.615-9.1155-22.745-24.921-22.745-24.921s-0.45285-6.6614-0.45285-6.6614c-33.685 6.0915-70.585 43.721-83.133 74.5-3.5206 8.6478-6.3836 25.594-7.187 35.06-0.83266 10.036 6.5006 41.239 3.1554 56.972-6.106 28.791-19.896 20.553-28.515 48.206-1.7676 5.668-2.4542 7.0411-2.6149 13.147-0.745 26.966 19.516 44.802 39.412 59.703 7.0411 5.2734 17.559 13.761 26.294 15.134 9.6412 1.5192 17.588-5.887 24.921-6.8219 6.676-0.83265 17.354 2.1036 25.111 7.8592-11.876 1.1833-24.98 2.9801-23.183 16.156 0.70117 5.2297 6.5443 23.826 9.9918 27.667 2.4687 2.7316 6.9241 6.4567 10.912 4.9668 5.4927-2.0451 4.8352-18.859 4.8352-23.869 8.7649 6.1206 1.2125 21.43 6.4712 30.618 4.8937 8.5456 14.944 8.9547 18.333 3.988 1.9428-2.8633 1.5923-16.916 1.7676-20.641 7.1142 7.6693 3.6519 19.94 7.8446 25.17 4.2218 5.2589 22.292 10.167 26.105 2.6003 1.3732-2.7462 0.83266-19.998 0.83266-24.205h8.7649c0 4.6453-0.93491 22.263 1.4462 25.213 1.7237 2.1328 4.806 2.3373 7.3187 2.4834 10.182 0.58431 16.186-2.7756 19.925-8.2535 0.80343-19.531 3.5351-18.435 6.5443-22.92l0.67196 19.326c3.1114 6.7051 13.191 5.5073 18.099-1.4024 5.069-8.3266-0.51127-29.333 7.8006-32.619 2.5418 8.9402-1.7237 27.493 8.3411 24.512 10.81-3.1991 12.11-16.653 13.206-23.957 2.0159-2.6586 3.6519-8.1073 2.8339-13.235-0.45285-6.8512-7.2164-11.789-21.547-11.599 0.89109-4.0171 17.252-9.2323 31.774-6.8512 6.3399 1.4754 10.737 6.7927 17.529 5.8139 8.1658-1.1979 18.275-9.1301 24.834-14.024 20.334-15.192 41.633-33.115 40.874-60.813-0.1899-7.3187-4.0465-20.32-8.2244-26.294-10.138-14.52-16.974-7.0411-22.569-33.598-4.0902-17.047 3.4475-44.994 2.9215-56.971-0.3944-8.7794-4.0025-28.441-7.2893-36.519-10.065-24.702-36.184-53.391-59.762-65.576-21.342-11.029-48.863-20.568-73.041-20.612h-35.06c-5.8139 0.07304-15.426 1.1833-20.364 3.1991-2.8339 6.8512-4.1633 9.4513-5.4779 12.139-1.7384 3.5643-6.15 6.8364-5.2589 10.956 5.3611 1.6361 15.616 21.678 16.58 19.268 0.45285 8.8086 0.48206 22.964 0.48206 22.964 0.75962 1.5923 1.6653 3.1991 3.1114 4.7915 1.2271 1.3732 2.8484 0.27756 5.2589 2.4687 1.3878 0.99335 5.0981 1.8844 8.3703 6.2085 6.7636 7.3041 14.243 13.089 23.884 13.147l8.2389 5.4633 12.052 0.24833 12.592 14.024-13.279-9.1446-7.7861-0.0292s-0.65737 1.7968-0.71579 1.8114zm-43.795 88.495c-1.899 2.9946-9.6997 17.267-9.6997 17.267-3.8712 0.0438-17.15-9.9335-20.714-12.607-11.175-8.3412-23.899-16.828-36.519-22.774-4.1193-1.9283-11-5.6972-15.543-5.1275-10.372 1.3293-18.494 13.191-19.253 22.978-0.5551 7.231 1.4754 29.246 6.106 34.797 10.167 12.183 40.069 13.585 54.983 13.41 5.0105-0.0584 12.782-0.20451 17.135-2.7902 2.7756-1.6507 6.7927-6.4712 9.1738-8.8962 10.079-6.9095 20.919-25.666 14.33-36.256zm50.455 0.39443c-6.369 4.5285 2.0013 26.966 13.279 36.256 3.5643 3.6228 5.7702 7.0994 10.635 9.1738 10.182 3.4329 29.655 2.9509 40.363 1.4608 9.8604-0.83266 25.709-5.6095 31.597-14.214 3.4475-5.0105 4.0317-12.811 4.4263-18.728 0.87649-12.841 4.1342-21.824-7.3624-31.656-2.7462-2.3519-6.5443-4.9813-10.196-5.4487-4.5285-0.58432-11.949 2.7171-16.069 4.6453-12.621 5.9456-25.768 14.404-37.179 22.759-3.8272 2.8633-15.923 14.462-20.451 13.147-5.4488-10.489-9.0424-17.398-9.0424-17.398zm-24.965 46.087-30.807 46.747 14.74 12.49s16.332-16.346 16.332-16.346l15.28 16.346 14.345-12.753-29.887-46.483zm80.754 150.07c12.87-5.3174 7.2456-7.932 7.8298-18.07 0.54048-9.4659 1.6069-23.928 5.1712-32.663 1.9137-4.6747 5.6095-12.227 10.971-13.527 7.1579-1.7237 5.6972 8.1804 5.0399 12.066-5.3757 11.686-1.9575 25.811-0.73039 30.151 0.0731 0.26294 10.357 23.899 10.357 23.899 0.59893 3.8272-11.745 29.042-13.016 32.941-11.818 7.4354-20.714 12.475-30.807 19.94-18.055 8.4728-26.046 22.102-33.614 26.003-10.912 5.6241-76.897 4.3971-84.579-0.13146l-28.689-23.767c-7.6399-5.0398-30.327-16.273-34.914-21.255-4.7914-6.7782-10.766-24.439-13.951-32.663 19.385-46.483 11.131-42.683 9.1738-58.037-0.43823-3.8272-0.36519-10.547 5.4927-9.1446 5.3611 1.3001 9.057 8.8525 10.971 13.527 3.5643 8.7355 4.9522 22.847 5.4927 32.313 1.2855 10.05-3.0968 14.988 7.757 17.997 0.51127-3.8272 0.26294-11.759 2.8778-14.593 5.6972-6.1646 15.616 1.5046 17.822 5.6241 1.49 5.3174-0.42363 15.265 0.75962 18.917 4.207 2.5564 2.4687-2.1036 5.1127-11.497 4.0317-3.2722 11.526-0.77423 15.601 4.1342 4.6453 5.5949 3.6665 14.71 3.6665 21.605 5.2004 5.3902 3.2136-10.43 6.7051-13.118 5.069-3.8858 19.516 0.86187 22.482 6.0038 2.0305 3.5497 1.49 11.643 1.49 15.879h8.7649c0-4.2364-0.5405-12.329 1.49-15.879 2.9655-5.1421 17.413-9.8896 22.482-6.0038 3.4914 2.688 0.8619 6.9972 3.6082 15.134 7.0263-1.9283 2.5126-16.098 5.0105-20.948 2.7462-5.3028 12.022-11.555 17.457-6.2814 2.0743 2.0013 1.3731 9.276 2.2788 12.198 1.9867-0.52589 4.3823 4.2509 3.4914-20.144 2.2058-4.1196 12.125-11.789 17.822-5.624 2.6149 2.8339 2.6149 11.19 3.126 15.017z" style="fill: var(--icon-fill, #fff);" fill-rule="evenodd"/></svg>
