<?xml version="1.0" encoding="UTF-8"?>
<svg width="512" height="512" version="1.1" viewBox="0 0 1866.7 1866.7" xmlns="http://www.w3.org/2000/svg"><g transform="translate(717.49 754.36)"><g transform="matrix(5.8334 0 0 5.8334 -828.61 -865.18)"><path id="Ear" d="m300.58 120c1.52 11.44-2.2 39.09-4.58 51-2.29 11.43-4.3 23.06-8.42 34-9.1 24.1-28.66 52.74-44.58 73-10.08 12.83-17.65 22.04-30.45 33.09-17.24 14.88-30.6 28.19-54.55 27.91-14.62-0.17-29.81-8.56-37.53-21-8.12-13.07-4.65-23.09-19.47-27-20.82-28.64-20-51-20-51l0.09-115.64s14.18-0.36 27.64-17.45c8.54-5.09 22.54-40.36 43.09-53.46 15.92-14.01 42.54-30.9 65.18-34.44 16.35-0.37 28.64 6.67 41 16.54 5.27 5.54 29.27 20.09 42.58 84.45zm-140.76 45.64c0.18-6.91-3.26-13.02-2.21-15.33 2.08-4.53 10.03-0.31 13.05 2.79 1.23 4.4 22.37 18.9 20.79 57.99-1.69 12.66-18.53 40.11-24.36 41.82-1.45-9.27-4.36-16-5.59-17.91 0.48-3.76 0.41-37.36-1.68-69.36zm-7.09 76.54c2.59 6.97 2.54 10.91 6.54 18.55 1.64 9.82 1.74 11.18 6.37 12.36 5.68 2.54 12-9.82 16.36-14.54 18.59-20.2 34.36-11.82 43.45-37.46-14.54 2-18.36 5.46-29.27 12.55 26.18-65.82-22.35-92.24-24.54-93.46-2.98-1.65-5.64-2-8.55-4.91 10.18-25.63 44.86-58.18 48.91-58.99 7.81-1.58 13.48 2.92 19.09 7.72 26.18 24.73 20.55 99.64 20.55 99.64 2.72-0.91 29.27-105.28-30.55-119.82l11.09-10.55c-54.54 14.91-89.51 80.57-88.73 90.91 0 0-0.9 9.09 2.55 26.73 0.2 2.17 0.18 34.73 6.73 71.27z" fill="#fff"/><path id="Line" d="m297.27 39.64c29.85-11.89 42.11 19.36 31.98 34.48l-268 251.63c-27.13 8.87-42.34-13.53-33.25-34.63 0 0 264.09-251.43 269.27-251.48z" fill="#f00"/></g></g></svg>
