<?xml version="1.0" encoding="UTF-8"?>
<svg width="512" height="512" version="1.1" viewBox="0 0 1866.7 1866.7" xmlns="http://www.w3.org/2000/svg"><path id="Selection" d="m1338.5 56.673c81.309-10.419 161.68 9.0956 220 69.457 108.6 112.4 84.341 312.94-54.628 389.46-54.849 30.208-83.128 29.933-143.32 29.271-106-1.2679-200.43-84.837-222.32-187.42-4.9613-23.263-3.969-53.03-3.6934-77.174 1.3781-117.42 93.216-202.86 203.96-223.59zm-562.38 68.134c36.713-1.764 26.294 23.538 12.458 45.202l-84.01 110.25c-143.49 180.97-248.72 372.53-265.09 606.37 0 0-5.0163 55.125-5.0163 55.125v77.174c-0.0551 18.467 1.3781 38.256-10.419 53.857-24.641 32.634-63.669 14.057-81.309-15.38-32.579-54.408-35.776-147.07-35.059-209.36 2.5357-216.58 126.62-394.42 263.05-551.25 43.989-50.549 144.04-148.17 205.39-171.99zm-286.54 34.177c-10.419 49.667-70.78 114.88-103.36 154.35-54.298 65.764-86.601 119.79-128.16 192.94-87.207 153.47-129.87 326.56-142.33 501.63-2.8114 39.414 21.664 147.51-50.604 136.49-34.949-5.3471-48.454-45.808-55.014-75.851-19.569-88.806-5.7881-140.18 0-226.01 12.734-187.15 169.12-421.32 297.56-551.25 39.855-40.296 125.9-124.53 181.91-132.3zm308.7 534.71-16.096 148.84c-3.528 44.596-4.6305 94.98-32.358 132.08-43.659 58.432-115.49 54.739-155.4-5.292-17.254-25.909-16.592-47.573-16.648-77.174 0 0 16.096-220.5 16.096-220.5 2.7011-33.957 7.2764-98.563 24.365-126.79 29.602-48.84 89.081-79.159 141.45-97.35 86.546-30.043 263.28-73.481 352.8-73.536 45.533 159.59 220.72 246.79 374.85 187.04 31.531-12.238 69.126-37.54 93.657-60.747 11.19-10.584 29.547-35.445 44.651-36.823 13.781-1.2127 38.587 14.663 49.116 22.932 24.641 19.294 100.82 103.19 123.53 130.15 18.412 21.884 33.626 39.635 44.486 66.149 24.916 53.691 38.201 113.56 0 164.38-17.971 22.05-80.427 52.203-107.38 63.945-93.271 40.572-211.57 79.159-314.21 80.372-35.61 0.38587-67.528 0.71662-99.004-19.183-46.139-29.161-55.676-102.81-24.2-145.97 18.908-25.909 81.474-53.746 112.18-66.315 0 0 167.74-45.368 207.1-58.763-75.521-1.2127-172.82 26.239-243.04 52.479-31.917 11.907-68.851 28.114-91.341 54.628-92.775 109.53 17.695 227.5 129.65 223.14 27.617-1.0474 101.43-19.183 124.42-22.932 21.113 6.6701 71.552 54.353 88.144 71.111 25.302 25.633 52.148 59.204 73.757 88.199 47.958 64.441 93.712 137.98 59.259 220.5-52.699 126.29-208.76 200.54-314.87 275.62 24.365 4.3548 64 4.0792 82.411 14.608 48.62 27.452 52.754 93.987 0 119.62-18.742 8.9853-45.368 8.7097-65.874 11.411 0 0-220.5 3.1972-220.5 3.1972-55.676-0.6615-119.29-23.483-121.16-88.199-1.6538-54.794 16.372-77.064 45.808-121.27 27.121-40.627 51.817-70.174 86.38-104.74l154.35-132.3-44.155-43.162c-39.965-36.768-60.196-44.651-104.68-70.284-11.19-6.4495-42.997-26.57-52.809-29.161-30.043-7.9379-135.06 27.011-167.69 37.871-42.501 14.167-121.88 42.666-159.86 62.842l-49.612 32.579c-100.38 65.378-152.64 112.34-237.04 196.74l-43.548 44.1c-15.49 17.089-26.846 37.485-44.871 52.203-45.037 36.713-156.55 72.158-214.77 84.451-44.486 9.4263-110.36 20.617-147.57-12.954-33.295-29.988-13.671-77.23 8.4341-107.16 39.194-53.03 74.804-53.802 122.54-87.648 21.829-15.545 59.479-61.023 77.23-83.238 0 0 76.292-99.224 76.292-99.224l37.705-55.125c44.651-57.826 131.75-143.65 189.19-189.24 45.809-36.437 96.578-69.732 148.84-96.027 24.861-12.513 79.159-33.13 95.035-51.707 25.633-30.043 43.493-79.435 60.747-115.04 19.404-40.131 53.085-81.529 64.551-125.08 0 0 0.1654-67.858 0.1654-67.858s-220.5 49.612-220.5 49.612z" style="fill: var(--icon-fill, #fff);"/></svg>
