<?xml version="1.0" encoding="utf-8"?>
<svg width="333.3px" height="333.3px" version="1.1" viewBox="0 0 333.3 333.3" xmlns="http://www.w3.org/2000/svg"><path d="M 164.899 101.344 C 176.172 101.344 187.034 103.045 197.263 106.224 L 205.732 66.446 C 206.647 62.141 205.662 58.059 202.905 54.646 C 200.137 51.232 196.348 49.425 191.961 49.425 L 137.872 49.425 C 133.473 49.425 129.684 51.232 126.916 54.646 C 124.148 58.059 123.174 62.141 124.089 66.446 L 132.558 106.224 C 142.787 103.057 153.649 101.344 164.922 101.344 L 164.899 101.344 Z M 228.794 121.99 C 256.22 141.826 274.062 174.073 274.062 210.507 C 274.062 270.789 225.193 319.67 164.899 319.67 C 104.616 319.67 55.736 270.789 55.736 210.507 C 55.736 174.073 73.578 141.826 101.004 121.99 L 86.036 51.631 C 84.264 43.326 86.153 35.443 91.502 28.839 C 96.851 22.234 104.159 18.751 112.664 18.751 L 217.134 18.751 C 225.639 18.751 232.947 22.234 238.296 28.839 C 243.645 35.443 245.534 43.326 243.762 51.631 L 228.794 121.99 Z" fill="#fff"/></svg>
