<?xml version="1.0" encoding="utf-8"?>
<svg width="333.3px" height="333.3px" version="1.1" viewBox="0 0 333.3 333.3" xmlns="http://www.w3.org/2000/svg"><path d="M211.59 97.65c11.46,0 22.52,1.74 32.91,4.96l8.61 -40.45c0.93,-4.37 -0.06,-8.52 -2.88,-12 -2.81,-3.48 -6.67,-5.31 -11.14,-5.31l-55.01 0c-4.47,0 -8.32,1.83 -11.14,5.31 -1.44,1.78 -2.41,3.74 -2.88,5.81 -6.23,-4.52 -13.69,-6.93 -21.75,-6.93l-16.52 0 -0.41 -1.94c-1.8,-8.45 0.13,-16.46 5.56,-23.18 5.44,-6.71 12.87,-10.26 21.51,-10.26l106.24 0c8.64,0 16.08,3.55 21.51,10.26 5.44,6.72 7.36,14.73 5.56,23.18l-15.22 71.55c27.89,20.17 46.04,52.96 46.04,90.01 0,61.31 -49.7,111.01 -111.01,111.01 -14.95,0 -29.2,-2.96 -42.22,-8.32 25.29,-19.6 41.57,-50.27 41.57,-84.74 0,-31.37 -13.64,-60.81 -37.08,-81.07l9.41 -44.25c9.04,-2.38 18.53,-3.64 28.31,-3.64zm-107.8 35.9c9.61,0 18.87,1.45 27.59,4.16l7.22 -33.91c0.78,-3.67 -0.06,-7.15 -2.41,-10.06 -2.36,-2.91 -5.59,-4.45 -9.33,-4.45l-46.11 0c-3.75,0 -6.98,1.54 -9.34,4.45 -2.36,2.91 -3.19,6.39 -2.41,10.06l7.22 33.91c8.72,-2.7 17.98,-4.16 27.59,-4.16zm54.47 17.6c23.38,16.91 38.59,44.4 38.59,75.46 0,51.39 -41.66,93.06 -93.06,93.06 -51.39,0 -93.06,-41.67 -93.06,-93.06 0,-31.06 15.21,-58.55 38.59,-75.46l-12.76 -59.98c-1.51,-7.08 0.1,-13.8 4.66,-19.43 4.56,-5.63 10.79,-8.6 18.04,-8.6l89.06 0c7.25,0 13.48,2.97 18.04,8.6 4.56,5.63 6.17,12.35 4.66,19.43l-12.76 59.98z" fill="#fff"/><path id="red" d="M 294.608 19.696 C 312.532 18.481 321.606 27.875 323.713 35.754 C 325.128 41.062 326.031 50.738 322.71 55.826 C 198.873 173.923 173.515 188.54 44.706 311.75 C 32.994 317.551 17.548 311.087 12.59 303.72 C 8.204 297.217 6.899 282.915 11.586 275.619 C 18.37 265.05 49.865 239.98 40.691 248.52 C 103.237 190.3 120.138 176.089 280.556 27.721 C 284.661 23.917 288.684 20.244 294.606 19.692 L 294.608 19.696 Z" fill="#f00"/></svg>
