<?xml version="1.0" encoding="UTF-8"?>
<svg width="512" height="512" version="1.1" viewBox="0 0 1866.7 1866.7" xmlns="http://www.w3.org/2000/svg"><path id="Exhaustion" d="m1386.6 927.51c-45.022-74.929-53.962-138.15-52.032-187.68 3.0229-77.823 32.802-216.94 64.317-287.69l81.875-159.63c29.907-52.675 26.434-56.149 64.896-111.65 38.59-56.149 110.5-157.25 181.24-180.09 0 17.366-2.1224 41.42-6.4317 57.885l-89.464 194.69c-46.18 121.94-63.738 165.62-87.728 293.54 0 0-30.615 179.89-11.32 212.44 12.027 19.681 129.41 142.65 129.41 142.65 78.402 88.886 47.402 246.53 46.051 288.72-7.3964 51.968-18.523 103.94-33.573 154.3-30.422 102.01-119.44 253.41-176.49 346.09-33.445 54.412-113.39 161.63-175.65 174.88 0-33.252 14.471-90.815 24.891-106.12 139.12-251.61 186.52-543.48 172.11-649.6-28.621-82.711-75.958-118.41-132.11-182.72zm-389.89-0.7718c-45.086-74.993-53.962-138.15-52.097-187.74 3.0229-77.759 32.802-216.94 64.317-287.62l81.875-159.63c29.972-52.74 26.434-56.213 64.896-111.65 38.59-56.149 110.5-157.32 181.24-180.09 0 17.301-2.1225 41.356-6.4317 57.885l-89.4 194.69c-46.179 121.88-63.802 165.62-87.728 293.48 0 0-30.679 179.89-11.384 212.44 12.092 19.745 129.47 142.72 129.47 142.72 78.338 88.821 47.402 246.53 45.986 288.72-7.3321 51.904-18.523 103.87-33.509 154.3-30.486 101.94-119.44 253.41-176.49 346.09-33.509 54.412-113.45 161.63-175.71 174.88 0.0643-33.252 14.536-90.88 24.955-106.12 139.05-251.67 186.52-543.48 172.05-649.6-28.557-82.776-75.958-118.41-132.04-182.72zm-393.94 1.6079c-45.086-74.993-53.962-138.15-52.032-187.74 2.9586-77.759 32.737-216.94 64.317-287.62l81.811-159.63c29.972-52.74 26.434-56.213 64.896-111.72 38.59-56.084 110.56-157.25 181.31-180.09-0.0643 17.366-2.1868 41.42-6.4317 57.885l-89.465 194.75c-46.179 121.88-63.802 165.62-87.728 293.48 0 0-30.679 179.89-11.384 212.44 12.092 19.681 129.47 142.72 129.47 142.72 78.402 88.821 47.401 246.53 45.986 288.72-7.3321 51.904-18.523 103.87-33.573 154.23-30.422 102.01-119.37 253.47-176.42 346.15-33.509 54.412-113.45 161.63-175.65 174.81 0-33.187 14.407-90.815 24.891-106.12 139.12-251.61 186.52-543.48 172.05-649.6-28.557-82.711-75.958-118.34-132.04-182.66zm-397.99-0.83611c-45.022-74.929-53.962-138.15-52.032-187.68 3.0229-77.823 32.802-216.94 64.317-287.69l81.875-159.63c29.907-52.675 26.434-56.149 64.896-111.65 38.59-56.149 110.5-157.25 181.24-180.09 0 17.366-2.1225 41.42-6.4317 57.885l-89.465 194.69c-46.179 121.94-63.738 165.62-87.728 293.54 0 0-30.615 179.89-11.32 212.44 12.027 19.681 129.41 142.65 129.41 142.65 78.402 88.886 47.401 246.53 46.051 288.72-7.3964 51.968-18.523 103.94-33.573 154.3-30.422 102.01-119.44 253.41-176.49 346.09-33.445 54.412-113.39 161.63-175.65 174.88 0-33.252 14.471-90.815 24.955-106.12 139.05-251.61 186.52-543.48 171.98-649.6-28.557-82.711-75.894-118.41-132.04-182.72z" style="fill: var(--icon-fill, #fff);"/><path id="Numeral" d="m534.37 540.13c-47.883 0-111.61 3.841-149.34-31.077-34.712-32.036-26.412-94.532 12.828-119.23 24.284-15.367 54.125-14.269 81.635-14.338h912.39c27.577 0.0686 50.765-1.4406 75.323 13.789 45.071 27.852 54.949 90.553 12.348 125.81-30.39 25.177-97.482 25.04-135.69 25.04v788.91c36.152 0 92.748-5.5567 123.21 13.788 47.197 29.91 45.894 101.6 0 132.06-25.656 17.013-78.959 18.728-109.49 18.797h-871.23c-27.166-0.1372-57.83-0.9604-82.116-14.681-58.79-32.86-50.764-112.98 0-140.01 27.99-14.817 96.59-9.9466 130.14-9.9466v-788.91zm322.42 0h-157.78v788.91l156.96-1.715 0.8232-787.19zm322.42 0h-157.78v788.91h157.78v-788.91z" fill="#c70000" stroke-width="256.22" style="paint-order: stroke fill markers; stroke: var(--icon-stroke, #000);"/></svg>
