<?xml version="1.0" encoding="UTF-8"?>
<svg width="512" height="512" version="1.1" viewBox="0 0 1866.7 1866.7" xmlns="http://www.w3.org/2000/svg"><path id="Exhaustion" d="m1386.6 927.51c-45.022-74.929-53.962-138.15-52.032-187.68 3.0229-77.823 32.802-216.94 64.317-287.69l81.875-159.63c29.907-52.675 26.434-56.149 64.896-111.65 38.59-56.149 110.5-157.25 181.24-180.09 0 17.366-2.1224 41.42-6.4317 57.885l-89.464 194.69c-46.18 121.94-63.738 165.62-87.728 293.54 0 0-30.615 179.89-11.32 212.44 12.027 19.681 129.41 142.65 129.41 142.65 78.402 88.886 47.402 246.53 46.051 288.72-7.3964 51.968-18.523 103.94-33.573 154.3-30.422 102.01-119.44 253.41-176.49 346.09-33.445 54.412-113.39 161.63-175.65 174.88 0-33.252 14.471-90.815 24.891-106.12 139.12-251.61 186.52-543.48 172.11-649.6-28.621-82.711-75.958-118.41-132.11-182.72zm-389.89-0.7718c-45.086-74.993-53.962-138.15-52.097-187.74 3.0229-77.759 32.802-216.94 64.317-287.62l81.875-159.63c29.972-52.74 26.434-56.213 64.896-111.65 38.59-56.149 110.5-157.32 181.24-180.09 0 17.301-2.1225 41.356-6.4317 57.885l-89.4 194.69c-46.179 121.88-63.802 165.62-87.728 293.48 0 0-30.679 179.89-11.384 212.44 12.092 19.745 129.47 142.72 129.47 142.72 78.338 88.821 47.402 246.53 45.986 288.72-7.3321 51.904-18.523 103.87-33.509 154.3-30.486 101.94-119.44 253.41-176.49 346.09-33.509 54.412-113.45 161.63-175.71 174.88 0.0643-33.252 14.536-90.88 24.955-106.12 139.05-251.67 186.52-543.48 172.05-649.6-28.557-82.776-75.958-118.41-132.04-182.72zm-393.94 1.6079c-45.086-74.993-53.962-138.15-52.032-187.74 2.9586-77.759 32.737-216.94 64.317-287.62l81.811-159.63c29.972-52.74 26.434-56.213 64.896-111.72 38.59-56.084 110.56-157.25 181.31-180.09-0.0643 17.366-2.1868 41.42-6.4317 57.885l-89.465 194.75c-46.179 121.88-63.802 165.62-87.728 293.48 0 0-30.679 179.89-11.384 212.44 12.092 19.681 129.47 142.72 129.47 142.72 78.402 88.821 47.401 246.53 45.986 288.72-7.3321 51.904-18.523 103.87-33.573 154.23-30.422 102.01-119.37 253.47-176.42 346.15-33.509 54.412-113.45 161.63-175.65 174.81 0-33.187 14.407-90.815 24.891-106.12 139.12-251.61 186.52-543.48 172.05-649.6-28.557-82.711-75.958-118.34-132.04-182.66zm-397.99-0.83611c-45.022-74.929-53.962-138.15-52.032-187.68 3.0229-77.823 32.802-216.94 64.317-287.69l81.875-159.63c29.907-52.675 26.434-56.149 64.896-111.65 38.59-56.149 110.5-157.25 181.24-180.09 0 17.366-2.1225 41.42-6.4317 57.885l-89.465 194.69c-46.179 121.94-63.738 165.62-87.728 293.54 0 0-30.615 179.89-11.32 212.44 12.027 19.681 129.41 142.65 129.41 142.65 78.402 88.886 47.401 246.53 46.051 288.72-7.3964 51.968-18.523 103.94-33.573 154.3-30.422 102.01-119.44 253.41-176.49 346.09-33.445 54.412-113.39 161.63-175.65 174.88 0-33.252 14.471-90.815 24.955-106.12 139.05-251.61 186.52-543.48 171.98-649.6-28.557-82.711-75.894-118.41-132.04-182.72z" style="fill: var(--icon-fill, #fff);"/><path id="Skull" d="m864.29 379.48c161.8-20.019 299.9 29.209 426.65 128.52 83.23 65.244 148.47 158.78 144.14 269.05-1.7067 44.437-22.842 116.84-41.155 157.53 0 0-39.974 85.33-39.974 85.33-4.529 28.093 23.105 54.546 35.774 78.766 22.776 42.271 26.124 89.662 0 131.21-60.191 94.191-144.21 30.784-216.67 85.002-46.735 34.985-51.789 80.407-76.6 110.8-30.719 37.48-124.98 69.248-173.09 65.639-44.569-3.4132-124.78-30.719-153.4-65.639-25.205-30.85-29.078-74.696-76.6-110.86-73.712-56.187-155.04 11.552-215.23-84.936-29.668-44.831-23.958-93.272 0-137.78 13.981-22.514 38.661-44.962 34.329-72.202 0 0-36.364-78.766-36.364-78.766-21.332-48.244-47.457-131.21-44.437-183.79 12.406-213.33 243.13-346.83 432.62-377.88zm-238.27 510.6c-16.279 35.379-4.8574 82.245 17.656 109.88 39.449 48.376 102.27 62.948 161.47 48.31 62.751-15.556 31.31-56.908 0-86.84-43.583-41.68-117.49-76.994-179.13-71.349zm615.56-0.59083c-62.356 2.1662-127.4 23.958-173.81 65.901l-24.745 25.14c-53.43 64.654 23.564 73.252 70.692 72.137 53.496-1.3127 102-29.209 125.24-78.701 12.537-26.715 11.159-54.48 2.6256-84.477zm-305.09 222.32c-21.857 12.733-33.278 20.676-50.607 39.646-11.618 12.668-40.63 46.144-41.024 63.669 35.707 45.947 65.113 44.503 87.627 46.8 30.26-1.444 53.364-5.7107 90.187-45.356 0.5907-13.719-23.367-46.275-41.352-65.113-14.177-15.163-28.946-26.584-44.831-39.646z" fill="#c70000" stroke-width="256.22" style="paint-order: stroke fill markers; stroke: var(--icon-stroke, #000);"/></svg>
