<?xml version="1.0" encoding="UTF-8"?>
<svg width="512" height="512" version="1.1" viewBox="0 0 1866.7 1866.7" xmlns="http://www.w3.org/2000/svg"><path d="m804.66 0.0029379h123.78 91.49c137.02-0.53818 278.4 72.923 370.86 171.46l175.28 258.33 109.2 145.31c68.672 109.63 98.325 217.16 68.887 344.43-21.958 94.988-82.126 168.45-164.52 218.23-61.891 37.403-139.98 58.5-175.45 126.2-26.102 49.835-19.59 93.482-24.595 145.31l-33.69 209.89c-30.999 109.9-134.49 188.36-239.87 222l-69.748 15.015c-36.004 6.9425-14.692 10.441-64.797 10.548h-86.109c-19.321-0.3229-115.01-22.119-134.54-29.277-38.049-13.777-81.05-34.82-113.02-59.576-33.475-25.994-75.076-67.542-95.15-104.89-28.9-53.872-45.96-192.83-53.979-258.33-6.6196-53.603 2.5294-97.679-25.241-150.69-35.466-67.703-113.56-88.8-175.45-126.2-79.435-48.006-126.1-103.81-156.83-191.32-45.099-128.62-9.0414-259.24 61.191-371.34l109.2-145.31s165.65-247.56 165.65-247.56c86.593-101.02 208.11-159.52 337.44-182.23zm-58.931 378.39c-34.874 15.392-33.69 61.729-42.893 94.45-7.5345 26.694-20.935 48.059-37.565 69.963-34.659 45.745-101.12 95.796-151.23 124.48-37.457 21.42-98.164 49.028-121.25 85.517-6.6196 10.387-14.316 25.241-15.661 37.565-4.4669 40.902 36.542 90.414 72.331 105.05 37.457 15.338 86.754 8.557 123.78-4.6822 40.04-14.316 72.546-43.808 102.25-73.461 73.3-73.354 103.81-142.19 123.78-242.18 5.7047-28.631 10.387-45.53 10.764-75.345 0.53818-47.091 5.0589-128.3-64.312-121.36zm355.04 0c-64.581 26.317-43.216 142.56-32.398 196.7 22.657 113.45 61.89 190.3 150.69 267.53 50.643 44.023 114.31 73.784 182.98 57.908 43.485-10.01 93.589-63.021 88.477-110.17-1.6145-14.746-13.616-36.327-22.765-47.898-21.258-26.909-83.148-57.424-114.15-75.184-47.252-27.07-113.72-76.637-147.08-119.1-15.123-19.213-30.084-41.44-38.318-64.581-16.63-46.445-7.4268-111.13-67.434-105.21zm-166.94 538.88c-83.687 6.1352-89.445 48.436-106.99 115.28 0 0-23.734 86.109-23.734 86.109-27.501 96.818-51.127 161.78-58.123 263.71l-3.9287 37.672 3.9287 37.672c6.7272 96.549 18.352 144.61 118.88 177.11 17.921 5.7585 51.127 11.086 69.963 11.086s52.042-5.328 69.963-11.086c100.53-32.506 112.16-80.565 118.88-177.11l3.9287-37.672-3.9287-37.672c-6.9963-101.93-30.622-166.89-58.123-263.71l-23.734-86.109c-17.545-66.842-23.303-109.14-106.99-115.28z" style="fill: var(--icon-fill, #fff);"/></svg>
