<?xml version="1.0" encoding="UTF-8"?>
<svg width="512" height="512" version="1.1" viewBox="0 0 1866.7 1866.7" xmlns="http://www.w3.org/2000/svg"><path d="m991.59 1.2714c114.14-0.94894 245.99 37.114 347.95 87.25 122.1 59.994 167.33 94.789 263.6 191.05 36.903 36.903 70.433 72.7 100.01 115.98 25.094 36.692 39.856 66.268 59.467 105.44 23.144 46.287 46.129 92.838 61.787 142.34 24.831 78.393 42.228 186.73 42.333 268.87 0.2636 165.54-24.303 293.7-98.848 442.84-20.718 41.437-50.241 94.894-77.655 131.8-97.741 131.59-205.29 216.46-350.69 288.64-147.61 73.332-285.37 92.838-448.11 90.94-81.029-0.949-181.41-20.086-258.32-45.707-184.78-61.523-350.84-180.09-464.4-339.14-77.286-108.23-141.13-258.16-160.69-390.12 0 0-8.0133-94.894-8.0133-94.894v-131.8c6.6426-96.739 18.768-172.02 53.51-263.6 101.48-267.5 309.51-465.83 579.59-558.4 145.24-53.141 358.49-41.49 358.49-41.49zm337.88 401.46c-102.27-78.92-261.12-133.48-390.6-133.7-82.136-0.10544-176.71 18.294-253.05 48.501-208.35 82.558-357.33 265.55-401.72 483.96-6.6426 32.686-14.34 77.708-14.761 110.71-1.6343 139.97 36.64 270.71 113.08 388.22l947.04-897.7zm173.5 191.74-938.4 888.53c116.51 65.161 186.47 97.161 321.59 109.66 19.242 1.7924 32.791 5.5355 52.719 4.4284 135.49-7.697 268.81-48.818 379.58-128.32 277.93-199.49 352.06-580.01 184.52-874.29z" style="fill: var(--icon-fill, #fff);"/></svg>
