<?xml version="1.0" encoding="UTF-8"?>
<svg width="512" height="512" version="1.1" viewBox="0 0 1866.7 1866.7" xmlns="http://www.w3.org/2000/svg"><g transform="translate(427.22 742.21)" style="stroke: var(--icon-fill, #fff);"><path id="Body" d="m-58.537 1123.9c0.16773-49.815 26.445-289.72 26.445-289.72l24.32-185.51c7.1563-140.78 46.796-246.5 64.127-287.15 35.558-75.253 75.309-88.336 86.379-94.095l117.41-62.171c58.033-31.477 95.325-55.182 117.63-67.594 49.032-27.339 55.518-69.942 55.685-120.76l-1.0064-95.548c-74.191-24.376-49.088-16.158-110.81-50.206-100.64-55.518-142.96-198.14-139.27-262.38 3.075-53.393 22.14-118.19 48.808-164.15 26.948-49.815 78.049-82.13 90.461-90.237 113.89-73.967 237.11-77.546 352.23-3.5782 15.71 10.12 52.331 26.724 92.976 95.828 38.521 77.378 24.768 51.883 47.299 128.09 3.7459 12.747 1.9568 71.452-4.6963 95.604-14.201 51.436-57.027 156.82-101.59 185.73-21.749 14.201-87.386 55.126-128.03 63.289l-1.0064 91.97c0.0559 53.449 3.9695 96.443 55.406 126.47 21.693 12.635 88.001 52.163 129.09 73.352l101.14 50.765c78.272 39.639 88.895 99.126 97.617 120.93 42.547 99.35 53.225 178.57 60.941 284.63 0 0 14.257 110.81 17.332 165.71 13.194 128.09 30.414 238.12 30.47 290.73" stroke-dasharray="166.15911391, 83.07955694" stroke-dashoffset="124.62" stroke-width="83.08" style="paint-order: normal" fill="none"/><path id="Right armpit" d="m852.78 1123.3s-6.5194-373.16 24.957-406.25" fill="none" stroke-dasharray="224.66894949,112.33447474" stroke-dashoffset="50.551" stroke-width="56.167" style="paint-order:normal"/><path id="Left armpit" d="m159.51 1123.3s5.4812-385.18-9.5519-411.99" fill="none" stroke-dasharray="224.669, 112.334" stroke-dashoffset="50.55" stroke-width="56.167" style="paint-order:normal"/></g></svg>
