<?xml version="1.0" encoding="UTF-8"?>
<svg width="512" height="512" version="1.1" viewBox="0 0 1866.7 1866.7" xmlns="http://www.w3.org/2000/svg"><path d="m887.98 172.74c0-24.037-2.5986-131.07 3.2482-145.95 11.964-30.533 55.22-35.027 74.709-9.7988 10.232 13.209 8.6078 31.67 8.6619 47.478v108.27c432.45 34.539 691.6 383.72 703.78 703.78h108.27c13.372 0 42.552-1.2452 53.92 3.2482 30.533 11.964 35.027 55.22 9.7988 74.709-11.044 8.5536-23.387 8.3912-36.651 8.6619h-135.34c-14.184 340.41-275.45 684.18-702.8 714.61v146.17c-5.4137 22.088-19.11 42.173-44.284 42.173-25.174 0-38.87-20.085-44.284-42.173v-146.17c-560.7-43.959-715.69-526.48-710.93-713.25l-126.73-0.86619c-64.964-5.9009-65.451-76.766-3.4648-87.593h128.95c17.053-371.05 341.22-695.17 713.14-703.29zm0 86.619c-209.67 18.677-566.98 148.61-627.99 617.16h200.31c18.244-222.83 207.67-398.99 427.68-416.85v-200.31zm86.132 0 0.48724 200.31c220.01 17.865 409.44 194.03 427.68 416.85 0 0 187.53 2.4362 189.48 0-35.947-298.73-242.15-576.83-617.65-617.16zm-87.106 289.36c-165.39 13.913-317.08 159.97-334.67 327.8 18.677 0 60.308-2.5986 75.575 5.522 32.699 17.432 32.699 58.143 0 75.575-15.591 8.2829-61.608 5.522-80.989 5.522 0 0 20.301 297.1 341.06 351.89l-0.64964-71.731c18.677-35.081 71.948-35.46 85.915 1.3535l1.3534 70.378c218.6-23.712 335.65-224.67 339.6-352.38-28.963 0-55.382 1.8406-55.382 1.8406-67.022-16.945-49.373-73.085-8.7702-86.619 0 0 47.64-2.3279 63.178-2.3279-43.58-239.93-248.65-320.49-338.14-327.8 0 16.512 5.9009 61.066-9.3657 85.157-26.04 23.604-49.21 21.168-67.4 0.48723-18.352-25.553-11.315-55.111-11.315-84.67zm6.3882 173.29c78.444-10.827 152.34 11.044 203.93 73.301 80.068 96.58 53.866 260.13-57.764 321.3-45.15 24.74-74.98 25.769-124.51 25.174-147.09-1.7865-232.95-162.09-181.58-292.34 29.288-74.222 84.832-110.76 159.92-127.44zm-433.09 241.13h-200.31c25.715 375.6 334.3 620.52 627.99 627.99v-189.48c-221.47-4.8723-427.03-217.79-427.68-438.51zm1131.5 0h-189.48c-0.6497 220.72-206.21 433.64-427.68 438.51v189.48c385.02-39.953 595.51-333.59 617.16-627.99z" fill="#fff"/></svg>
