<?xml version="1.0" encoding="UTF-8"?>
<svg width="512" height="512" version="1.1" viewBox="0 0 1866.7 1866.7" xmlns="http://www.w3.org/2000/svg"><g transform="matrix(5.3952 0 0 5.3952 -32.371 -45.859)" style="fill: var(--icon-fill, #fff);"><path id="Effect" d="m207.1 36.99c4.15 6.04 12.29 11.54 19.9 10.81 10.7-1.02 29.92-12.75 39-18.8l10-6.5c5.64-3.68 9.11-6.76 16-7.5-5.04 11.96-7.02 25.06-7 38 0.01 7.09-0.32 18.3 6.88 21.88 6.62 3.29 19.2-3.09 27.12-1.88-8.38 6.88-19.42 19.24-24 32-15.5-17.25-36.88-27.5-61-19.55-2.91-0.27-10.56-3.78-14-4.93-5.85-1.97-11.84-2.84-18-3.15l-6.75 0.13c-20.37-1.41-54.5 26-51.25 49.5-9.03-3.16-11.64-15.76-14.33-24-5.48-16.81-10-39.36-10.71-57-0.29-7.32-0.77-17.14 2.04-24 7.1 13.59 23.8 34.96 41 33.91 10.97-0.68 18.32-9.89 25.18-17.49 4.72-5.22 8.24-11.24 10.57-17.8 0 0 5.97 11.43 9.35 16.37zm-185.1 66.21 32 25.38 55 39.75 26 18.3c2.66 2 11.38 8.37 9 12.62 0 0-6.27 0.08-12 2.47-9.35 3.91-18.14 10.72-19.7 21.28-2.07 14.03 7.54 27.49 19.7 33.62 3.08 1.56 9.12 3.48 12.57 4.47 1.82 0.53 4.14 0.96 4.69 3.15 0.97 3.85-5.03 7.75-8.3 12.76-5.9 9.06-9.85 20.44-6.2 31 3.67 10.62 19.97 23.32 30.24 27.55 6.43 2.65 18.69 5.41 21 12.45-4.25-0.75-6.99-1.15-17-3.34 0 0-23-3.51-23-3.51-9.63-1.15-35-2.15-35-2.15h-31c-11.55 0.14-30.62 2.25-41 0 0 0 18-7.32 18-7.32 6.05-2.92 11.38-7.7 15.83-12.68 11.64-13.05 7.97-23.69-0.83-37-11.1-16.78-25.51-29.57-44-37.8l-22-9.2 17 1h11c7.31-0.01 9.97-0.64 17-2.37 4-0.99 9.63-2.08 13-4.33 8.08-5.39 12.98-17.75 12.22-27.3-0.86-10.65-8.92-28.77-14.42-38l-6.48-11-9.75-15c-4.28-5.99-8.38-11.74-13.57-17l-26-26 16 8.2zm286 48.8 19 8.84h25c-3.93 5.39-8.92 8.14-14 12.16l-9 7.29c-12.46 10.84-34.77 35.39-17.91 51.53 2.9 2.77 6.35 4.65 9.91 6.42 7.43 3.69 8.16 2.82 16 2.76h9c-2.48 3.23-6.22 3.72-10 5-6.17 2.1-12.17 4.68-18 7.6-6.04 3.03-21.98 12.65-27 16.71l-15 13.69s-1.5-5.25-2.38-9l11.71-32c4.35-13.2 6.19-24.25 7.48-38v-14l9.07-14.38c5-11.3 4.37-14.62 6.12-24.62z"/><path id="Body" d="m135 254c4.62-8.62 13.19-15.16 20.62-21.62 10-7.13 17-19.62 19.49-30.38 0.66-2.83 2.92-10.22 1.51-12.75-2.74-3.87-14.88-5.84-18.6-13.25-2.41-4.83 0.84-10.18 1.66-15 0.37-2.23 0.13-5.89 1.34-7.69 3.2-4.75 8.92 0.61 11.98 2.59l6.99 3.85c3.22 1.61 5.99 4.44 8.01 0.25 1.62-17.38-0.86-20.53-6.88-25.5-3.46-2.87-8.62-3.73-10.77-8.52-2.57-5.71 2.73-8.23 3.55-14.98 0.31-2.59 0.34-9.34 2.08-11.19 1.89-2.09 5.75-0.56 8.02 0 5.27 1.43 12.68 3.41 18 1.78l13-5.31c12.08-5.11 23.72-8.57 37-8.27 23.04 0.53 42.26 19.68 48.56 40.99 2.26 7.64 2.53 12.17 2.44 20-0.08 6.74-1.27 11.66-3.33 18-1.76 5.41-2.12 7.79-4.98 13-5.23 9.51-18.56 20.54-28.69 24.54-6.56 2.58-15.02 3.03-22 2.29-4.18-0.45-9-2.83-16.5-2.08-5.17 1.37-7.75 18.63-5.5 20.5 1 6.08 7.05 4.92 12 6.47 7.31 2.28 15.45 5.56 20.67 11.37 8.71 9.7 14.48 26.88 19.14 38.91 4.12 10.63 10.91 23.03 16.62 33 0 0 13.69 22.72 13.07 24.88h-63.25c-1.63-4.38-18.63-26.13-35-37.76 2 4.38 21.14 32.13 21.75 37.88h-33c-11.44-0.06-39.76-17.53-43.88-20.88-9.46-7.69-10.55-11.19-10.5-22.74 0.05-9.01 3.35-16.11 8.76-23.26 2.04-2.69 8.99-8.21 7.37-11.87-1-4.25-5.18-3.47-7.13-4-6.24-1.7-8.5-2.63-13.62-3.25zm92.75-140.88c-5.88 0.15-9.1 1.02-13.13 5.5l13.63 10.13-0.5-15.63z"/></g></svg>
