<?xml version="1.0" encoding="UTF-8"?>
<svg width="512" height="512" version="1.1" viewBox="0 0 1866.7 1866.7" xmlns="http://www.w3.org/2000/svg"><path d="m212.21 1115.1c-37.208-20.433-26.738-49.085-22.797-84.435 7.4302-66.14 23.585-145 66.478-197.01 15.367-18.632 55.108-50.154 69.405-71.657-10.751-11.765-18.182-26.906-17.112-52.124l7.8806-29.721 2.8708-77.286c1.2947-26.569 6.7548-95.805 16.718-118.21 14.354-32.423 83.984-94.454 112.97-118.66 91.865-76.667 191.39-144.1 292.71-207.54l90.064-53.532c14.635-9.1189 34.393-26.456 50.661-29.158 18.125-2.9834 39.741 10.076 56.29 17.056l112.58 47.677c13.116 5.9667 37.658 21.278 50.661 21.109 18.35-0.28145 56.121-33.098 73.177-44.694 49.816-33.774 134.03-100.25 191.39-113.37 66.647-15.311 89.67 20.602 113.31 75.822 25.105 58.654 78.524 262.76 83.703 326.48 62.876-11.258 144.78-12.44 185.76 46.664 21.615 31.185 17.281 90.514 16.887 127.83l-5.629 84.435c-0.1126 75.653-13.397 197.07-47.114 264.56-21.39 42.78-67.604 98.62-99.239 135.1 72.276 65.015 34.787 106.44 33.774 175 0.394 13.397 5.9104 18.801 3.3211 33.267-8.3872 57.81-67.998 117.25-110.27 153.5l-168.87 137.85c-30.847 23.248-64.17 37.095-101.32 47.058-18.97 5.0098-58.316 12.609-73.683 15.705 0 0-55.783 62.425-55.783 62.425-39.459 39.459-87.362 81.676-140.72 100.81-18.857 6.7548-36.588 11.427-56.29 5.1786-21.165-6.6984-23.022-12.327-44.019-28.708l-74.19 45.426-118.21 35.857c-6.8111 2.0264-16.211-1.0132-23.529 2.139-13.847 5.9104-25.893 18.013-38.39 16.662-24.542-2.7582-81.114-40.641-101.32-56.459-16.211-12.665-18.407-18.069-38.39-34.449h-33.267c-34.843-2.4204-135.26-28.032-164.76-46.889-24.542-15.649-51.505-41.429-64.564-67.717-10.02-20.095-6.8674-40.866-16.774-55.783-16.38-15.367-46.383-32.085-70.024-68.054-26.85-40.81-26.625-78.918-37.208-123.84-6.3044-26.738-16.549-50.604-18.688-78.806-1.1821-16.099 1.0695-24.092 3.0396-39.403 11.652-89.501 60.23-112.64 108.53-180.13zm1199-1004c-4.6158 1.5198-34.506 238.5-48.691 300.36l-22.91 90.064c-11.877 57.359-9.2315 115.56-48.466 163.24-27.075 32.929-93.835 82.352-133.24 98.901-27.3 11.539-20.996 4.9535-44.019-0.67548l-91.077 81.451-157.61 130.42c-16.605 15.423-75.147 66.591-80.832 83.928-7.2614 22.122 12.778 59.555-6.9799 90.007-14.692 22.685-120.74 98-148.6 115.84 0 0-146.35 92.484-146.35 92.484-15.198 9.119-57.978 35.857-73.177 38.784-29.946 5.8541-48.184-38.896-74.696-48.015-14.354-16.887-83.928 47.621-111.06 58.823-9.7944 6.2482-30.171 17.956-41.429 24.599-3.6025 18.407 14.298 47.114 40.923 61.919 18.407-7.6554 99.295-76.273 132.45-33.042 8.7249 12.609 3.3211 34.506 0 48.916l-30.622 129.47c36.363 20.152 80.438 40.923 122.32 43.005-28.201-53.644-38.164-72.051-37.883-133.07 0.0563-12.609-0.39403-27.413 4.1092-39.346 6.5859-17.281 43.456-57.022 58.035-69.912 46.889-41.486 100.87-74.809 151.76-111.06l135.1-90.795c12.44-4.5595 26.344-3.9966 39.403-4.1092 3.2085 39.797 15.198 101.77 25.218 140.72 5.629 22.066 21.953 57.528 17.168 78.806-7.8806 35.125-49.535 61.412-81.789 74.865-48.634 25.162-147.03 83.027-210.75 117.14-28.201 8.6123-41.035 14.748-47.171 23.416 3.8277 13.059 8.9501 9.2315 17.112 20.94 19.701 27.976 103.69 91.471 136.95 98.282 18.013 3.7151 36.419-10.695 53.194-17.056 30.903-11.652 123.11-39.741 143.82-59.667-14.354-47.621-7.2614-71.544 1.5198-83.928 9.6818 20.433 24.205 29.552 40.416 45.313 14.41 13.96 47.846 42.217 67.548 45.764 17.337 3.1522 36.701-8.8375 50.661-17.956 33.492-21.84 61.919-50.154 90.064-78.243-53.025-64.564-156.49-128.12-204.61-197.01-13.172-18.801-29.158-66.928-34.618-90.064-12.271-51.899-5.2912-63.889-9.4004-106.95-4.278-45.144-14.354-108.53 4.3906-151.48 9.0626-20.827 36.588-46.101 52.856-62.425 61.525-61.75 65.015-66.309 135.1-118.94l78.806-61.3c18.294-10.076 57.641-18.632 78.806-23.079 12.271-2.5893 27.244-8.0494 39.403-7.3177 26.906 1.6887 82.858 35.237 106.95 49.648 0 0 135.1 85.786 135.1 85.786l78.806 63.945 95.693-140.72c30.678-75.203 30.171-344.89 30.171-344.89-9.1752 40.135-71.769 204.28-91.977 237.94 0 0-38.39 50.661-38.39 50.661-10.751 13.284-40.472 50.604-52.293 59.386-8.6686 6.5296-9.7381 17.9-27.638 8.4435-71.15-55.558-94.454-66.591-115.68-79.087-14.298-8.4435-44.863-16.211-47.621-34.28-2.533-16.549 27.976-57.584 37.714-72.67l95.918-135.1c11.202-15.142 40.641-45.876 45.032-61.919 4.6721-17.056-13.453-80.494-17.619-101.32l-65.296-277.85zm-385.3 106.95-119.28-62.425c0 74.19-32.198 70.587 11.258 134.53 31.973-12.215 64.508-45.538 108.02-72.107zm-177.59 65.465c-38.39 20.996-87.024 57.359-120.74 79.819l-229.27 161.21c-56.008 41.711-115.68 86.461-105.94 151.48 30.171 9.2315 45.707-25.105 75.203-53.194l54.263-48.634 125.36-87.531 218.01-165.27s-16.887-37.883-16.887-37.883zm298.34 1270.6c43.737-8.2183 113.48-21.503 151.98-41.654 25.668-13.453 113.54-87.193 140.72-109.88 22.741-18.97 93.722-73.458 107.46-95.13-4.1091-22.516 0-32.704 5.3476-51.674 6.4733-22.91 24.373-73.683 20.377-95.693-3.2648-18.182-19.364-36.532-30.734-50.661-28.989-35.913-72.783-82.408-110.61-102.84l-116.18 159.13-230.28 211.42-84.435 64.395 146.35 112.58z" style="fill: var(--icon-fill, #fff);"/></svg>
