<?xml version="1.0" encoding="UTF-8"?>
<svg width="512" height="512" version="1.1" viewBox="0 0 1866.7 1866.7" xmlns="http://www.w3.org/2000/svg"><path d="m1151.7 1001.7s-5.9596-95.354-5.9596-95.354c-0.1788-109.48-3.8737-219.07 10.25-327.78 3.9929-30.752 13.469-120.5 26.878-142.97 18.654-31.288 65.138-52.504 96.963-69.31 80.097-36.532 154.17-68.952 236.54-93.506 0 0 81.944-17.164 105.78-19.369 17.104-21.216 7.3899-60.311 7.0323-83.434-0.5363-36.652 5.1253-130.16 31.407-155.72 37.307-36.234 80.931 3.6949 96.128 39.87 9.5354 57.748 57.629 234.39 58.344 292.38 0.1788 15.376 5.304 38.439-2.8606 51.67-11.621 18.654-35.877 6.4364-103.28 44.459l-129.98 64.066s-32.063 17.879-67.045 46.187c-25.328 28.308-83.554 43.088-93.089 59.298-7.5091 12.694 0.8344 40.942 1.1324 55.782l17.044 119.19 11.681 83.434s3.5758 59.596 3.5758 59.596c12.277 85.52 28.01 113.89-7.3899 201.49-32.122 79.382-103.04 139.75-158.35 203.4-17.998 20.739-51.729 57.331-84.865 74.137 0 0 1.4303-20.143-20.143-58.523-18.356-31.05-53.696-67.761-87.546-81.527-73.363-29.977-175.39 33.135-161.68 131.83l21.991 137.07s4.1121 86.414 4.1121 86.414l-163.53-0.7152c133.02 47.26 189.99 39.453 189.99 39.453 0-87.964-0.29798-108.35-14.839-196.67-5.5424-36.532-18.713-96.426 0-130.81 38.559-72.111 123.01-54.173 167.82 0 41.3 49.286 49.524 162.22 49.643 226.17 0.1192 77.654 1.2515 100.3-13.469 178.79-4.5889 24.554-14.124 63.47-30.752 82.183-45.889 51.729-131.83 43.684-194.16 42.969-85.878-1.0131-209.12-38.201-286.06-76.044-26.639-13.052-66.747-32.659-88.262-52.206-19.19-17.342-43.922-65.973-39.274-92.254 2.6818-15.435 35.102-65.556 37.903-137.07 3.4566-88.321-39.87-177.95-108.17-231.71 0 0-53.994-41.717-99.048-48.034-6.7939-10.548-11.204-52.385-12.754-65.913l-14.72-89.394c-14.601-80.633-46.604-169.31-91.063-238.38-16.091-25.09-66.449-92.731-86.235-112.64-31.169-31.347-88.321-48.869-81.229-119.79 5.602-56.437 50.597-92.016 106.08-89.156 48.988 2.5626 106.62 49.107 143.03 79.859 128.13 108.11 183.2 251.97 228.19 408.59 22.468 78.071 34.923 101.02 40.227 184.75 1.3111 20.263-17.402 75.21 95.115 31.943 76.998-20.859 136.3-48.571 196.31-100.12 27.533-32.003 57.331-50.656 61.086-92.374-9.9525-15.674-83.554-40.048-102.45-49.941-73.422-38.499-128.97-65.675-190.71-122.77-27.533-25.447-46.068-38.678-55.484-77.594-18.952-78.309 14.422-246.19 32.003-327.78 5.4232-24.911 39.87-118.89 35.758-136.3-12.634-15.316-48.749-26.043-65.913-37.486-35.4-23.6-74.137-65.258-86.891-106.68-8.2242-26.878-4.6485-57.987 27.533-64.84h35.519c69.787 0.95354 170.62 42.254 232.42 74.257 23.064 11.919 57.748 25.984 70.383 50.418 0 0 2.0263 80.633 0 112.99l-4.8273 101.31-3.3374 191.06c0 14.005-2.0859 43.326 5.1848 55.543 9.7141 16.091 223.37 76.7 235.52 95.413 9.9525 44.22-21.693 247.98 36.771 218.18zm-905.86 259c87.189-12.038 170.68 7.3303 231.35 74.793 127.54 142.02 43.863 368.06-141.96 401.5-130.81 23.6-254.83-62.456-279.56-192.97-3.2778-17.462-6.6747-35.877-5.4232-53.636 4.8869-67.343 30.454-131.35 82.6-176.05 34.983-29.977 68.595-43.743 112.99-53.636z" style="fill: var(--icon-fill, #fff);"/></svg>
