<?xml version="1.0" encoding="UTF-8"?>
<svg width="512" height="512" version="1.1" viewBox="0 0 1866.7 1866.7" xmlns="http://www.w3.org/2000/svg"><path d="m411.92 72.56c57.171-19.771 77.906 43.4 114.4 66.547 19.45 12.324 74.745 20.414 98.803 23.415 185.82 32.256 383.1 33.756 568.28-2.2504 0 0 164.44-33.595 164.44-33.595 20.414-13.717 47.205-45.008 74.37-26.469 13.717 9.3231 12.592 27.273 13.074 41.9 0.643 19.557-3.7506 57.599 8.6265 81.014 32.684 108.34 72.013 205.21 135.99 299.41 48.491 71.37 132.72 174.08 195.89 232.06 9.3767 10.341 22.29 20.95 37.828 29.148 26.147 6.6976 47.365 20.897 42.382 44.204-6.5369 27.112-47.74 41.204-54.384 62.636l-62.314 140.65c-62.958 162.08-120.24 352.94-119.86 687.82 15.056 27.487 30.166 58.671-7.9835 74.745-49.991 14.681-26.844-14.145-95.856-15.324 0 0-246.47-53.474-246.47-53.474-102.02-22.611-200.93-43.668-305.41-50.955l-64.297-4.8758h-171.46l-166.1 12.216c-85.033 11.466-177.41 28.291-253.49 68.476-44.526 17.092-59.314 58.296-99.821 41.579-29.791-15.699-20.575-47.687-15.324-74.049 13.181-66.494 26.522-124.2 25.719-192.89-1.3395-114.13-40.829-217.7-85.408-320.47l-60.921-145.36c-10.288-21.54-29.737-53.849-45.919-71.316-12.216-13.234-32.845-22.718-36.167-41.525-4.983-28.291 26.362-45.008 43.883-61.939 25.129-28.826 70.405-88.569 95.588-120.24 94.999-119.43 196.05-302.03 235.06-450.08 10.234-38.846 19.664-115.25 19.986-155.38 0.21432-28.934-6.3225-65.047 16.878-85.622zm895.39 170.87s-119.59 28.612-119.59 28.612c-55.67 11.145-156.35 21.004-212.34 21.111-106.57 0.16074-211.11-3.0541-316.45-20.789l-92.909-23.093s70.834 124.41 89.266 143.28c27.165 18.753 143.38 28.023 179.12 28.184 119.16 0.53581 164.33 2.1432 283.98-21.432 26.79-5.2509 94.516-14.735 115.57-29.094 18.378-23.093 73.352-126.77 73.352-126.77zm-834.74-2.6255c1.661 12.324-13.556 102.18-22.45 131.7-12.806 42.436-57.439 146.44-77.853 187.53-44.204 88.998-84.872 153.08-147.62 230.4 0 0-37.239 49.723-112.95 121.9l106.52 1.2859c73.191 4.3936 64.243-13.877 107.16-52.616l41.954-38.471c82.997-89.534 139.69-176.66 173.12-294.64 6.9655-24.594 26.576-86.908 24.165-110.64l-92.052-176.44zm932.84 16.878c-12.377 27.916-76.085 131.06-77.853 146.76-2.1432 19.396 31.881 86.104 40.507 107.38 30.273 74.317 80.478 177.35 127.95 241.11 14.36 19.343 53.688 72.173 74.531 79.889 14.413 7.4477 134.92-21.861 134.92-21.861l-106.68-122.32c-85.515-109.14-133.74-193.16-171.89-326.84-9.5909-33.542-19.878-68.851-21.486-104.11zm-692.16 232.49c17.735 28.88 61.618 123.24 80.371 135.35 57.331 18.646 204.57 31.184 292.12 8.8408 14.949-21.915 81.55-144.19 81.55-144.19s-92.266 19.343-194.28 23.254c-82.729 0.16074-179.82 3.1077-259.76-23.254zm568.65-7.2334c-20.307 24.219-53.849 95.213-70.941 125.33-8.2514 14.52-27.005 34.613-27.969 50.902-1.3395 23.254 45.437 119.06 58.671 141.99 12.431 21.486 44.472 67.619 62.582 84.711 13.663 5.626 149.33-27.112 149.33-27.112-61.136-91.677-79.568-114.29-123.93-218.34l-47.74-157.47zm-652.13 43.936c-7.1798 31.666-9.0552 52.348-16.932 76.031 0 0-39.811 96.445-39.811 96.445-52.67 101.27-104.8 156.4-172.64 219.04 0 0 133.42 5.4117 167.76 4.8223 0 0 26.415-22.45 54.331-57.76 34.399-43.454 52.938-64.565 72.334-117.88 6.001-16.61 18.753-48.33 17.36-65.636-2.1432-25.719-67.565-124.25-82.407-155.06zm408.93 200.66c-73.566 13.395-109.73 12.056-182.17 11.413 16.556 37.131 80.586 142.1 103.68 176.6 20.254-66.655 78.496-188.02 78.496-188.02zm93.659 19.557-99.232 193.59 167.71-27.701c-12.109-16.985-49.83-102.71-68.476-165.89zm-348.28 53.366s-16.556 57.76-87.605 134.17l164.71 0.48223-77.103-134.65zm923.84 92.427c-18.753 3.4292-84.711 15.11-84.711 15.11-14.735 12.27-46.08 91.784-55.938 112.84-46.187 98.428-82.997 210.68-109.36 316.13-8.305 33.22-40.078 128.81-32.095 158.38 0 0 30.702 34.613 44.686 50.58 23.415 26.79 84.229 103.84 84.229 103.84-25.451-192.89-0.5894-386.42 61.939-569.99 0 0 33.81-85.729 33.81-85.729 14.252-31.13 39.703-72.013 57.439-101.16zm-230.56 47.58-117.88 22.558c-11.681 2.4647-43.561 5.3581-52.241 11.949-8.7337 6.644-16.878 30.327-23.093 40.507 0 0-51.92 91.087-51.92 91.087-11.948 23.897-42.436 76.513-36.167 102.82 3.9114 16.449 126.93 158.38 159.08 199.27 0-166.64 61.779-317.04 122.22-468.19zm-1152.5 667.67c17.789-23.468 84.979-91.355 94.141-111.13 11.306-24.486 8.4658-83.854 8.1443-111.82-0.80371-65.583-32.202-177.67-53.581-241.11l-64.779-149.33s-159.56-6.0546-159.56-6.0546 51.545 96.445 51.545 96.445c41.579 83.104 84.979 172.91 109.89 262.55 11.466 41.472 31.452 118.36 14.199 260.46zm199.91-221.34c110-80.639 91.141-167.44 74.477-274.55-3.1613-20.361-7.662-75.013-25.076-106.47 0 0-80.371-12.056-161.76-9.3766 0 0 37.346 61.939 37.346 61.939 43.936 91.409 75.013 227.24 75.013 328.45zm662.04-391.57s-83.64 15.806-141.45 20.896c32.791 38.203 61.404 83.908 81.336 109.04 24.701-74.263 60.118-129.93 60.118-129.93zm-396.02 15.592-130.68-0.4822c18.593 48.383 40.025 140.11 42.382 191.5 19.718-16.235 77.103-78.496 94.57-98.321 0 0-6.269-92.695-6.269-92.695zm180.67 18.218s-54.92 43.561-89.212 98.482l161.55 5.5189c-38.846-62.636-72.334-104-72.334-104zm276.8 369.55c-20.414-28.13-65.851-81.443-87.712-109.84-13.985-18.164-28.344-48.705-48.437-59.421-35.149-18.807-208.11-47.098-296.36-22.611-26.951 13.127-105.5 107.48-129.08 133.26 0 0 176.5-20.843 260.19-13.02 55.403 5.5188 133.31 21.968 187.53 36.167l113.86 35.47zm240.26 292.93c-40.507-54.01-44.74-55.51-61.725-75.924-15.806-18.914-41.257-53.634-60.118-67.351-38.15-27.594-171.89-68.958-221.56-82.032-117.88-31.13-214.86-49.455-337.56-48.866-52.402 0.2679-145.53 12.484-192.89 33.809-71.691 32.309-94.463 59.743-145.58 116.22-19.289 21.325-28.934 26.308-59.421 62.422 53.099-24.218 188.93-49.402 188.93-49.402 137.49-20.414 371.96-19.611 509.02 3.4828 75.763 12.752 151.47 29.523 225.04 51.652l155.87 55.992zm-635.09-675.71 29.148 0.6966s-26.147 26.79-26.147 26.79l-3.0005-27.487z" style="fill: var(--icon-fill, #fff);" fill-rule="evenodd"/></svg>
