<?xml version="1.0" encoding="UTF-8"?>
<svg width="512" height="512" version="1.1" viewBox="0 0 512 512" xmlns="http://www.w3.org/2000/svg"><path id="Mouth" d="m181.04 76.244c17.943-2.3087 48.584-1.0082 74.155 28.581 15.708-18.63 41.614-29.048 55.89-29.224 111.05 0.73059 133.33 135.16 188.13 167.67 5.4794 4.0182 11.686 5.9098 12.785 12.055-0.56411 5.6151-9.6928 12.782-14.612 17.169-33.972 25.571-89.863 161.1-247.67 164.02-142.67-18.192-173.49-97.095-238.04-166.71-5.2285-5.0367-9.7938-3.9872-11.387-12.491 1.3297-6.4438 5.4103-6.7379 11.62-13.313 61.37-45.662 75.251-149.04 169.13-167.76zm289.97 181.87c-11.149-7.7004-95.634-63.678-95.634-63.678-16.131-10.871-45.691-30.1-64.818-31.971-9.0447 1.0667-38.677 12.668-54.268 12.858-16.614 0.20456-45.633-12.055-55.729-13.121-23.379 1.5927-68.807 34.805-88.197 48.628-6.9114 2.1187-62.962 41.702-71.992 46.758 0 0 63.751 42.228 82.221 51.214 36.53 28.215 110.66 46.276 132.97 45.384 71.729-5.4794 101.48-25.936 135.89-47.108 25.103-11.5 65.49-41.527 79.561-48.964z" fill="#fff"/><path id="Line" d="m437.97 46.551c25.523-1.7292 38.443 11.647 41.443 22.865 2.0149 7.5599 3.3012 21.336-1.4291 28.581-176.33 168.16-212.44 188.97-395.85 364.41-16.677 8.26-38.671-0.94318-45.731-11.433-6.2451-9.2604-8.1029-29.625-1.4291-40.015 9.6605-15.048 54.505-50.747 41.443-38.585 89.06-82.901 113.13-103.14 341.55-314.4 5.8449-5.4163 11.575-10.647 20.007-11.433z" fill="#f00" stroke-width="1.3333"/></svg>
