<?xml version="1.0" encoding="UTF-8"?>
<svg width="512" height="512" version="1.1" viewBox="0 0 1866.7 1866.7" xmlns="http://www.w3.org/2000/svg"><g transform="matrix(5.5363 0 0 5.5363 -55.086 -55.363)" fill="#fff"><path id="Effect" d="m147 64c-5.65-3.29-6.71-9.97-7.57-16-0.72-5.04-0.21-7.12 0.77-12 3.11-15.55 12.29-25.97 28.8-26h11c26.88 0.04 43.15 29.29 52.06 51.38l4.94 13.62c-6.09-3.32-11.55-13.39-16.38-18.75-11.77-13.06-32.57-26.35-51-23.13-5.77 1.02-9.99 2.86-14 7.32-6.37 6.25-8.14 18.31-8.62 23.56zm-36.12-40c-0.81 11.42-7.16 24.17-0.76 35.5 3.37 6.27 6.03 3.91 9.92 10.28-4.87-0.17-8.3-1.82-15.91-0.61-6.91 1.88-13.84 7.38-18 13.18-3.7 5.15-1.82 6.4-7.48 11.08 1.31-13.69 8.58-18.39-0.22-32.69-6.21-10.13-9.87-6.01-13.43-12.74 8.87 2.13 16.13 4.1 28.35-3.04 3.09-1.81 6.66-3.84 8.95-6.66l8.58-14.3zm160.06 12.75c1.44 19.56 8.37 20.37 13.12 22.87-13.87 2.82-10.37 9.12-15.31 17.13-1.94-8.31-3.63-15.94-14.94-19.75 9.13-3.12 17.63-9.5 17.13-20.25zm2.06 55.25c7.35 8.09 18.7 26.48 35 25.71l10-0.71c-2.65 5.91-7.74 5-7.83 16.09-1.59 13.29 7.16 23.11 8.18 30.48-5.57-5.27-8.8-10.97-14.78-15.83-4.34-3.52-12.74-7.7-18.44-7.78-8.65-0.35-10.81 2.36-15.22 3.3 0.29-5.67 3.2-5.45 6.18-9.87 5.61-8.78 4.98-10.74 4.65-16.56-0.75-13.22-7.16-14.46-7.74-24.83zm-104 24c5.94 4.47 12.14 20.94 20 28.25 13.05 18.08 26.66 32.77 47 42.94 7.94 5.37 20.25 9.12 28.31 5.69 7.07-6.5 8.97-19.52 7.63-27.13 12.75 6.37 15.21 17.93 15.06 30.25-0.04 2.83-0.09 5.31-1.15 8-3.38 8.65-13.73 14.36-22.85 13.68-24.66-1.85-36.87-9.49-55-25.4-14.92-13.08-23.02-24.82-30.31-43.4-3.61-9.2-11.37-23.4-8.69-32.88zm37.65 95.52c0.44 10.65 5.31 15.48 14.44 16.91-9.35 2.96-13.57 6.92-15.13 14.92-0.92-7.83-5.83-12.83-14.22-15.83 10.61-1.13 14.13-5.61 14.91-16z"/><path id="Body" d="m126.75 145.19c11.56 2.93 10.63 8.75 12.44 5.69 1.06-5.07-5.35-9.55-9.63-11.94-4.66-2.61-10.64-3.87-12.11-9.94-1.35-5.55 4.45-7.29 4.43-11.25l-3.07-8.87c-0.16-1.24 0.07-8.07 2.31-9.88 0 0 6.65-0.01 13.88 0 3.4 0.01 9.26 0.51 12.38-0.38 8.76-2.48 19.45-11.28 27.87-15.12 8.63-3.94 12.59-4.54 21.75-4.5 13.15 0.06 33.5 9.32 42.91 18.18 8.95 8.42 16.07 21.44 15.86 33.82v18c-1.24 5.33-6.89 17.98-9.55 23-1.7 3.2-6.42 11.57-10.26 11.9-1.9-0.78-14.68-9.75-19.15-13.46-15.05-12.52-21.42-23.21-32.31-38.94-8.44-13.06-12.69-19.19-14.19-19.81-1.37-0.57-5.5 2.19-4.75 9.69-0.14 5.96 3.75 17.03 6 22.68 5.63 12.82 6.94 25.75 35.13 53.06-15.88-1.06-25.23 6.38-26.69 22.82-0.63 7.03 3.69 10.09 8 14.87 6.18 6.85 13.22 13.1 17.06 21.63 4.71 10.45 8.66 28.05 9.77 39.56 0.56 5.74-0.81 12.16 0.55 17.88l14.62 33.12s-68.91 0.09-68.91 0.09c-1.15-2.78-7.84-37.47-23.97-51.71 0 0 11.63 29.81 13.15 51.53l-111.54 0.27c0-11.04-0.02-20.24 1.71-31.18 3.95-25.03 22.53-61.59 39.65-80 7.54-8.11 14.37-13.91 23.91-19.55 9.49-5.61 14-2.57 20.94-12.95 1.64-2.46 3.5-5.69 4.31-8.56 2.02-7.13 0.87-7.82-7.69-11.19-7.31-2.46-16.01-3.1-15.23-12.75 0.63-7.95 4.05-11 6.05-15.06l0.19-9.89c0.73-2.36 2-3.84 4.48-4.39s7.26 2.9 9.7 3.53z"/></g></svg>
