<?xml version="1.0" encoding="UTF-8"?>
<svg width="512" height="512" version="1.1" viewBox="0 0 1866.7 1866.7" xmlns="http://www.w3.org/2000/svg"><path d="m284.35 3.7287e-5h361.3v1324.8h-361.3v-1324.8zm791.12 514.85s-323.72-5.299-323.72-5.299-2.9506 9.8152-3.7334-33.841v-54.194c0.3613-74.246 28.061-179.38 69.79-240.86 69.489-102.25 211.3-167.16 333.66-168.61 139.34-1.6258 285.6 61.661 375.81 168.61 12.886 15.235 26.314 30.409 35.648 48.173 44.5 84.423 39.562 158.61 39.442 249.9-0.2409 135.37-102.25 267.06-187.45 365.03-35.166 40.465-77.077 76.113-106.88 121.22-58.771 88.939-41.489 209.37-42.151 311.62-0.3613 48.956-0.7226 48.896-0.7226 48.896l-360.57-0.7226v-289.04c5.299-77.558 27.88-130.25 64.732-188.18 42.151-66.298 104.6-139.28 161.8-192.69 41.248-38.418 90.324-67.021 134.76-158.79 4.6969-14.03 6.3829-44.68 6.0216-59.494-1.686-68.707-87.434-132.29-149.03-79.004-44.078 38.117-47.39 103.27-47.39 157.28zm-646.6 945.15c40.285-5.5399 81.894-4.3356 120.43 9.8152 121.09 44.5 166.74 208.47 92.492 312.58-47.029 65.997-105.56 85.206-182.82 84.302-152.17-1.8667-238.46-170.05-172.34-301.08 29.927-59.373 78.943-91.528 142.23-105.62zm620.23 0c40.284-5.5399 81.894-4.3356 120.43 9.8152 121.09 44.5 166.74 208.47 92.492 312.58-47.029 65.997-105.56 85.206-182.82 84.302-152.17-1.8667-238.46-170.05-172.34-301.08 29.927-59.373 78.943-91.528 142.23-105.62z" fill="#fff"/></svg>
