<?xml version="1.0" encoding="UTF-8"?>
<svg width="512" height="512" version="1.1" viewBox="0 0 1866.7 1866.7" xmlns="http://www.w3.org/2000/svg"><path d="m86.936 106.58s1375.1-0.65514 1375.1-0.65514 0.7643 2.1838 45.696 74.358c24.076 38.708 59.945 96.96 95.541 124.2 81.892 51.155 244.31 28.662 263.42 15.014v846.22l-40.291-2.7297c-120.76-4.0946-200.58 92.156-250.43 179.51 0 0-42.966 114.65-47.061 150.79-26.697 109.3-59.781 270.74-202.71 267.46-67.152-1.5833-74.631-29.099-123.6-57.543-39.69-23.039-65.896 10.919-105.15-13.867-24.458-15.396-27.516-38.599-27.843-65.022-0.3276-32.047 0-42.202 29.263-80.418 20.91-48.644 62.074-75.941 54.104-88.334-39.69 3.4941-89.317 42.693-151.88 119.13-23.257 25.66-49.954 70.373-84.349 79.326-18.398 4.8589-38.435 2.6205-54.595-8.353-15.669-10.646-26.806-61.528-101.27-58.089-15.669 4.6952-35.705 24.895-47.607 35.76-12.994 11.792-21.838 24.295-35.76 36.196-40.673 28.335-121.09 31.556-133.98-25.277l1.4741-54.104c-1.3103-31.938-3.5487-39.69-8.4622-69.008-18.344-109.46-63.385-241.25-147.9-318.62-34.231-40.182-72.502-33.358-121.58-65.459-57.325-37.507-112.03-100.4-149.04-157.89-100.07-155.32-133.54-348.32-111.65-530.94 8.4622-70.755 28.171-168.1 47.771-236.78 0 0 32.757-94.886 32.757-94.886zm319.38 883.78c-1.3649 43.676 27.953 55.905 43.021 77.743 30.136 31.392 70.7 61.146 109.84 80.582 36.142 23.858 46.406 14.304 58.689 24.131 6.8244 37.943-17.743 85.714-30.027 103.46 75.068-12.284 88.062-122.13 110.55-182.89 19.108-51.865 29.427-124.31 20.473-148.77-7.4795 57.98-52.957 153.96-81.456 166.79-19.545 8.8444-43.84-5.2957-62.511-12.557-57.488-22.275-117.32-76.433-168.59-108.48z" style="fill: var(--icon-fill, #fff);"/></svg>
