<?xml version="1.0" encoding="utf-8"?>
<svg width="512" height="512" viewBox="0 0 512 512" xmlns="http://www.w3.org/2000/svg">
  <g style="fill: var(--icon-fill, #fff); touch-action: none;">
    <path d="M 180.053 116.056 C 135.039 164.706 131.087 186.944 165.993 240.056 C 131.229 198.631 102.347 197.203 35.023 232.869 C 90.151 182.69 96.341 177.792 79.743 116.275 C 99.38 153.865 122.998 161.212 180.053 116.055 Z M 27.477 20.937 C 27.479 20.938 27.48 20.94 27.482 20.941 C 27.48 20.941 27.479 20.94 27.477 20.939 Z M 27.482 20.941 C 66.813 37.999 83.576 36.093 122.727 26.717 C 86.191 41.42 77.202 54.987 58.227 108.717 C 62.687 63.706 61.242 48.599 27.482 20.941 Z M 261.287 43.655 C 227.734 62.307 220.437 73.517 205.662 107.967 C 208.382 79.589 206.367 62.917 181.412 35.905 C 215.787 53.875 226.727 54.838 261.287 43.655 Z M 424.423 373.906 C 424.423 373.909 424.424 373.911 424.424 373.914 C 424.424 373.912 424.423 373.909 424.422 373.907 Z M 424.424 373.914 C 440.997 421.22 449.827 430.387 488.422 441.843 C 449.43 436.309 434.878 443.55 391.578 480.593 C 419.812 447.616 433.692 425.602 424.424 373.914 Z M 318.368 336.708 C 313.625 405.895 317.56 423.027 359.335 454.865 C 310.765 439.865 289.032 436.662 264.275 492.082 C 267.083 427.902 264.869 426.932 210.743 406.832 C 273.064 420.651 299.663 405.497 318.368 336.707 Z M 433.849 290.272 C 433.849 290.273 433.848 290.273 433.848 290.274 C 433.848 290.272 433.849 290.271 433.849 290.27 Z M 433.848 290.274 C 424.063 316.476 428.334 324.991 451.193 346.332 C 424.397 333.783 416.931 339.9 400.881 359.02 C 407.633 333.639 412.865 318.059 390.037 299.615 C 410.916 307.762 418.529 308.266 433.848 290.274 Z M 339.72 55.875 C 401.513 55.876 451.624 105.961 451.624 167.75 C 451.624 229.545 401.509 279.625 339.719 279.625 C 277.924 279.625 227.844 229.54 227.844 167.75 C 227.844 105.956 277.927 55.876 339.718 55.875 Z M 339.719 74.75 C 332.115 74.75 324.728 75.686 317.655 77.406 C 334.813 78.614 348.375 92.88 348.375 110.344 C 348.375 128.601 333.569 143.406 315.313 143.406 C 297.056 143.406 282.25 128.601 282.25 110.344 C 282.25 102.308 285.139 94.948 289.906 89.22 C 263.958 105.717 246.75 134.716 246.75 167.75 C 246.75 219.108 288.357 260.75 339.72 260.75 C 391.077 260.75 432.72 219.112 432.72 167.75 C 432.72 116.392 391.08 74.75 339.72 74.75 Z M 292.437 155.03 C 292.437 163.458 285.607 170.28 277.187 170.28 C 268.761 170.28 261.907 163.45 261.907 155.03 C 261.907 146.605 268.769 139.78 277.187 139.78 C 285.614 139.78 292.437 146.612 292.437 155.03 Z M 200.875 212.751 L 296.125 308.031 C 288.398 308.923 281.319 310.483 274.875 312.656 L 196.375 234.156 C 198.533 227.67 200.029 220.546 200.875 212.75 Z M 257.094 321.313 C 249.764 326.233 243.686 332.403 238.844 339.813 L 169.25 270.188 C 176.672 265.363 182.84 259.305 187.75 251.97 Z M 151.313 278.688 L 230.281 357.688 C 228.126 364.065 226.534 371.029 225.531 378.563 C 192.889 345.921 162.888 315.087 130.344 283.375 C 137.914 282.404 144.906 280.824 151.312 278.688 Z M 135.625 315.095 L 146.437 325.905 L 17.187 455.125 L 17.187 433.188 L 135.625 315.094 Z M 193.28 372.75 L 70.907 495.125 L 17.187 495.125 L 17.187 481.53 L 159.625 339.094 Z"/>
  </g>
</svg>
